<svg width="14" height="16" viewBox="0 0 14 16" fill="none" xmlns="http://www.w3.org/2000/svg">
<path d="M9.98411 10.885L7.88646 7.47342V5.86565H8.07258C8.26485 5.86565 8.42079 5.70849 8.42079 5.51514C8.42079 5.3218 8.26485 5.16464 8.07258 5.16464H5.92686C5.73515 5.16464 5.57865 5.3218 5.57865 5.51514C5.57865 5.70849 5.73459 5.86565 5.92686 5.86565H6.11298V7.47342L4.01589 10.8845C3.85548 11.1318 3.88845 11.464 4.0947 11.6741C4.21096 11.7929 4.36634 11.8588 4.53234 11.8598H9.46822C9.63366 11.8588 9.78905 11.7929 9.9053 11.6741C10.111 11.464 10.1445 11.1318 9.98411 10.885ZM5.66137 9.5408L6.80941 7.67325V5.86565H7.19059V7.67325L8.33919 9.5408H5.66137Z" fill="white"/>
<path d="M5.69714 4.48902C5.98834 4.48902 6.22421 4.26111 6.22421 3.97974C6.22421 3.69836 5.98834 3.47045 5.69714 3.47045C5.40594 3.47045 5.17007 3.69836 5.17007 3.97974C5.17007 4.26111 5.40594 4.48902 5.69714 4.48902Z" fill="white"/>
<path d="M8.30398 4.48902C8.59518 4.48902 8.83104 4.26111 8.83104 3.97974C8.83104 3.69836 8.59518 3.47045 8.30398 3.47045C8.01278 3.47045 7.77691 3.69836 7.77691 3.97974C7.77691 4.26111 8.01278 4.48902 8.30398 4.48902Z" fill="white"/>
<path d="M7 2.95901C7.20569 2.95901 7.3728 2.79807 7.3728 2.59879C7.3728 2.3995 7.20624 2.23856 7 2.23856C6.79376 2.23856 6.6272 2.3995 6.6272 2.59879C6.6272 2.79807 6.79376 2.95901 7 2.95901Z" fill="white"/>
<path d="M7 16C6.94634 16 6.89157 15.9908 6.83847 15.9708C3.57993 14.7514 1.89923 12.9897 1.06308 11.727C0.140291 10.3325 0.00782498 9.2227 0.00279463 9.17571C0.00111785 9.16059 0 9.14493 0 9.12981V2.35144C0 2.16133 0.129112 1.99337 0.31747 1.93774L6.87033 0.01889C7.10675 -0.0502384 7.3566 0.0788374 7.42814 0.306745C7.49968 0.535193 7.3661 0.776063 7.13023 0.845731L0.894283 2.67223V9.10172C0.915522 9.24052 1.08041 10.1667 1.84614 11.3057C2.61242 12.4458 4.15674 14.0406 7.16153 15.165C7.39181 15.2515 7.50639 15.5015 7.41696 15.724C7.34821 15.8952 7.17942 16 7 16Z" fill="white"/>
<path d="M7 16C6.82058 16 6.65179 15.8952 6.58304 15.724C6.49361 15.5015 6.60819 15.2515 6.83847 15.165C9.84326 14.0406 11.3876 12.4458 12.1539 11.3057C12.9179 10.1694 13.0839 9.24484 13.1057 9.10118V2.35144C13.1057 2.11273 13.3058 1.91938 13.5529 1.91938C13.7999 1.91938 14 2.11273 14 2.35144V9.12927C14 9.14493 13.9989 9.16005 13.9972 9.17517C13.9922 9.22162 13.8597 10.332 12.9369 11.7259C12.1008 12.9886 10.4201 14.7503 7.16153 15.9697C7.10843 15.9897 7.05366 15.9989 7 15.9989L7 16Z" fill="white"/>
<path d="M13.5529 2.78403C13.5098 2.78403 13.4662 2.77809 13.4232 2.76513L6.87033 0.845731C6.6339 0.776603 6.50032 0.535193 6.57242 0.306745C6.64396 0.0782973 6.89324 -0.0507785 7.13023 0.01889L13.6831 1.93828C13.9195 2.00741 14.0531 2.24882 13.981 2.47727C13.9223 2.66359 13.7446 2.78403 13.5529 2.78403Z" fill="white"/>
</svg>
