<svg width="391" height="407" viewBox="0 0 391 407" fill="none" xmlns="http://www.w3.org/2000/svg">
<path d="M211.096 406.701H40.5605C18.2446 406.701 0 388.455 0 366.137V40.5646C0 18.2466 18.2446 0 40.5605 0H305.335C327.651 0 345.895 18.2466 345.895 40.5646V199.506C345.895 205.537 340.92 210.514 334.888 210.514C328.857 210.514 323.881 205.537 323.881 199.506V40.5646C323.881 30.3104 315.588 22.0166 305.335 22.0166H40.5605C30.3072 22.0166 22.0143 30.3104 22.0143 40.5646V366.137C22.0143 376.391 30.3072 384.685 40.5605 384.685H211.096C217.127 384.685 222.103 389.661 222.103 395.693C222.103 401.725 217.127 406.701 211.096 406.701Z" fill="#0C0C0C"/>
<path d="M275.028 107.217H83.5335C77.5022 107.217 72.5264 102.241 72.5264 96.2089C72.5264 90.177 77.5022 85.2007 83.5335 85.2007H275.028C281.059 85.2007 286.035 90.177 286.035 96.2089C286.035 102.241 281.059 107.217 275.028 107.217Z" fill="#0C0C0C"/>
<path d="M226.325 170.251H83.3828C77.3515 170.251 72.3756 165.274 72.3756 159.243C72.3756 153.211 77.3515 148.234 83.3828 148.234H226.325C232.356 148.234 237.332 153.211 237.332 159.243C237.332 165.274 232.356 170.251 226.325 170.251Z" fill="#0C0C0C"/>
<path d="M158.472 233.133H83.5335C77.5022 233.133 72.5264 228.157 72.5264 222.125C72.5264 216.093 77.5022 211.117 83.5335 211.117H158.472C164.504 211.117 169.48 216.093 169.48 222.125C169.48 228.157 164.504 233.133 158.472 233.133Z" fill="#0C0C0C"/>
<path d="M389.17 324.668L384.345 315.016C381.932 310.191 381.932 304.46 384.345 299.484L389.019 289.682C393.241 281.087 389.773 270.833 381.329 266.309L371.679 261.332C366.854 258.769 363.537 254.245 362.482 248.816L360.521 238.11C358.863 228.76 350.117 222.427 340.618 223.784L329.912 225.292C324.484 226.046 319.056 224.387 315.136 220.466L307.295 212.926C300.51 206.291 289.503 206.291 282.717 212.926L275.028 220.466C271.107 224.236 265.679 226.046 260.251 225.292L249.545 223.784C240.046 222.427 231.301 228.911 229.793 238.26L227.983 248.967C227.079 254.396 223.761 258.92 218.936 261.483L209.437 266.61C200.993 271.134 197.676 281.389 201.898 289.984L206.723 299.635C209.136 304.461 209.136 310.191 206.723 315.167L202.049 324.969C197.827 333.564 201.295 343.819 209.739 348.343L219.389 353.319C224.214 355.883 227.531 360.406 228.586 365.835L230.547 376.542C232.205 385.891 240.951 392.225 250.45 390.868L261.156 389.36C266.584 388.606 272.012 390.264 275.932 394.185L283.773 401.725C290.558 408.36 301.565 408.36 308.35 401.725L316.04 394.185C319.961 390.415 325.389 388.606 330.817 389.36L341.523 390.868C351.022 392.225 359.767 385.74 361.275 376.391L363.085 365.684C363.989 360.256 367.307 355.732 372.132 353.168L381.631 348.041C390.075 343.517 393.392 333.263 389.17 324.668ZM351.173 276.563L339.864 289.23L316.04 315.921L294.629 339.898C291.011 343.819 287.241 349.7 281.21 349.7C280.305 349.7 276.535 349.247 273.972 346.835L247.284 321.048C243.062 316.977 243.062 310.492 246.982 306.27C251.053 302.048 257.537 302.048 261.759 305.969L280.606 324.215L335.341 262.69C339.11 258.316 345.745 258.015 350.117 261.785C354.49 265.555 354.792 272.19 351.022 276.563H351.173Z" fill="#0C0C0C"/>
</svg>
