<svg width="360" height="409" viewBox="0 0 360 409" fill="none" xmlns="http://www.w3.org/2000/svg">
<path d="M359.261 403.121C359.261 403.121 359.412 402.668 359.562 402.518C359.562 402.367 359.562 402.216 359.713 402.065C359.713 401.915 359.713 401.764 359.864 401.462C359.864 401.311 359.864 401.161 359.864 400.859C359.864 400.708 359.864 400.558 359.864 400.407C359.864 400.256 359.864 399.955 359.864 399.804C359.864 399.804 359.864 399.502 359.864 399.352C359.864 399.05 359.864 398.899 359.864 398.598C359.864 398.598 359.864 398.447 359.864 398.296V179.851C359.864 80.6543 279.174 0 179.932 0C173.899 0 167.866 0.301503 161.984 0.904526C117.793 5.27644 76.9198 25.7792 46.906 58.7947C16.7414 91.9609 0 134.926 0 179.851C0 279.049 80.6903 359.703 179.932 359.703C203.46 359.703 226.235 355.18 247.802 346.436L342.821 407.643C343.123 407.945 343.575 408.096 344.028 408.246C344.028 408.246 344.179 408.246 344.329 408.246C344.782 408.397 345.234 408.548 345.687 408.699C345.687 408.699 345.838 408.699 345.988 408.699C346.29 408.699 346.742 408.849 347.044 409C347.044 409 347.346 409 347.496 409C347.949 409 348.401 409 348.703 409C349.156 409 349.457 409 349.91 409C349.91 409 350.061 409 350.211 409C350.513 409 350.815 409 351.116 408.849H351.418C351.72 408.849 352.021 408.699 352.323 408.548C352.323 408.548 352.474 408.548 352.624 408.548C352.926 408.548 353.379 408.246 353.68 408.095C353.982 407.945 354.434 407.643 354.736 407.492C354.736 407.492 355.038 407.342 355.038 407.191C355.188 407.04 355.49 406.889 355.641 406.739C355.641 406.739 355.943 406.588 355.943 406.437C356.093 406.286 356.395 405.985 356.546 405.834C356.546 405.834 356.697 405.683 356.697 405.533C356.998 405.231 357.3 404.93 357.451 404.477C357.451 404.477 357.451 404.327 357.602 404.176C357.602 404.025 357.903 403.724 357.903 403.573C357.903 403.573 357.903 403.271 358.054 403.121H359.261ZM22.4725 180.002C22.4725 140.655 37.1025 102.966 63.6474 73.8702C90.0415 44.9252 125.786 26.9853 164.548 23.0656C169.827 22.6133 175.106 22.3118 180.384 22.3118C267.409 22.3118 338.146 93.0162 338.146 180.002V378.095L255.344 324.728C255.193 324.728 254.891 324.426 254.74 324.426C254.74 324.426 254.589 324.426 254.439 324.275C254.288 324.275 254.137 324.125 253.835 323.974C253.685 323.974 253.534 323.974 253.383 323.823C253.383 323.823 253.383 323.823 253.232 323.823C252.327 323.522 251.422 323.371 250.517 323.22C250.517 323.22 250.366 323.22 250.216 323.22C249.311 323.22 248.255 323.22 247.35 323.371C247.35 323.371 247.35 323.371 247.199 323.371C247.048 323.371 246.898 323.371 246.747 323.371C246.596 323.371 246.294 323.371 246.143 323.522C246.143 323.522 245.993 323.522 245.842 323.522C245.54 323.522 245.389 323.672 245.088 323.823C224.727 332.868 203.159 337.542 180.686 337.542C93.6611 337.542 22.925 266.837 22.925 179.851L22.4725 180.002Z" fill="#0C0C0C"/>
<path d="M233.323 132.816H113.268C107.084 132.816 102.107 137.79 102.107 143.971C102.107 150.152 107.084 155.127 113.268 155.127H233.323C239.507 155.127 244.484 150.152 244.484 143.971C244.484 137.79 239.507 132.816 233.323 132.816Z" fill="#0C0C0C"/>
<path d="M233.323 206.686H176.011C169.827 206.686 164.85 211.661 164.85 217.842C164.85 224.023 169.827 228.998 176.011 228.998H233.323C239.507 228.998 244.484 224.023 244.484 217.842C244.484 211.661 239.507 206.686 233.323 206.686Z" fill="#0C0C0C"/>
</svg>
