<svg width="391" height="407" viewBox="0 0 391 407" fill="none" xmlns="http://www.w3.org/2000/svg">
<path d="M319.196 344.422L292.496 299.465V278.645H294.457C297.172 278.645 299.284 276.382 299.284 273.667C299.284 270.951 297.172 268.688 294.457 268.688H267.002C264.287 268.688 262.175 270.951 262.175 273.667C262.175 276.382 264.287 278.645 267.002 278.645H268.963V299.465L242.263 344.422C240.151 347.892 240.604 352.418 243.319 355.284C244.828 356.944 246.939 357.849 249.202 357.849H312.257C314.52 357.849 316.481 356.944 318.14 355.284C320.855 352.418 321.308 347.892 319.196 344.422ZM297.323 326.469H264.287L278.618 302.18V278.495H282.841V302.18L297.172 326.469H297.323Z" fill="#0C0C0C"/>
<path d="M280.88 239.723C283.294 239.723 285.255 237.61 285.255 235.046C285.255 232.481 283.294 230.369 280.88 230.369C278.467 230.369 276.506 232.481 276.506 235.046C276.506 237.61 278.467 239.723 280.88 239.723Z" fill="#0C0C0C"/>
<path d="M264.136 260.089C267.635 260.089 270.472 257.05 270.472 253.3C270.472 249.551 267.635 246.511 264.136 246.511C260.637 246.511 257.801 249.551 257.801 253.3C257.801 257.05 260.637 260.089 264.136 260.089Z" fill="#0C0C0C"/>
<path d="M297.474 260.089C300.973 260.089 303.809 257.05 303.809 253.3C303.809 249.551 300.973 246.511 297.474 246.511C293.975 246.511 291.138 249.551 291.138 253.3C291.138 257.05 293.975 260.089 297.474 260.089Z" fill="#0C0C0C"/>
<path d="M391 296.749C391 235.951 341.673 186.618 280.88 186.618C220.088 186.618 170.761 235.951 170.761 296.749C170.761 338.84 195.349 377.914 233.363 396.168C248.297 403.259 264.287 406.88 280.88 406.88C309.843 406.88 337.298 395.716 357.964 375.349C370.786 362.677 380.441 346.987 385.871 329.939C389.19 319.228 391 308.064 391 296.749ZM364.903 323.15C360.529 336.879 352.835 349.401 342.578 359.508C325.984 375.802 304.111 384.703 280.88 384.703C267.606 384.703 254.784 381.836 242.867 376.104C212.395 361.47 192.785 330.392 192.785 296.598C192.785 248.02 232.307 208.494 280.88 208.494C329.454 208.494 368.976 248.02 368.976 296.598C368.976 305.65 367.618 314.551 364.903 323.15Z" fill="#0C0C0C"/>
<path d="M180.868 406.88H40.5784C18.2527 406.88 0 388.625 0 366.297V40.5824C0 18.2546 18.2527 0 40.5784 0H305.469C327.794 0 346.047 18.2546 346.047 40.5824V166.705C346.047 172.739 341.069 177.718 335.035 177.718C329.001 177.718 324.023 172.739 324.023 166.705V40.5824C324.023 30.3237 315.726 22.0262 305.469 22.0262H40.5784C30.3206 22.0262 22.0239 30.3237 22.0239 40.5824V366.297C22.0239 376.556 30.3206 384.854 40.5784 384.854H180.868C186.902 384.854 191.88 389.832 191.88 395.867C191.88 401.901 186.902 406.88 180.868 406.88Z" fill="#0C0C0C"/>
<path d="M275.148 107.264H83.5702C77.5363 107.264 72.5582 102.286 72.5582 96.2513C72.5582 90.2167 77.5363 85.238 83.5702 85.238H275.148C281.182 85.238 286.16 90.2167 286.16 96.2513C286.16 102.286 281.182 107.264 275.148 107.264Z" fill="#0C0C0C"/>
<path d="M226.424 170.325H83.4194C77.3854 170.325 72.4075 165.347 72.4075 159.312C72.4075 153.278 77.3854 148.299 83.4194 148.299H226.424C232.458 148.299 237.436 153.278 237.436 159.312C237.436 165.347 232.458 170.325 226.424 170.325Z" fill="#0C0C0C"/>
<path d="M158.391 233.235H83.4194C77.3854 233.235 72.4075 228.257 72.4075 222.222C72.4075 216.188 77.3854 211.209 83.4194 211.209H158.391C164.425 211.209 169.403 216.188 169.403 222.222C169.403 228.257 164.425 233.235 158.391 233.235Z" fill="#0C0C0C"/>
</svg>
