<svg width="391" height="223" viewBox="0 0 391 223" fill="none" xmlns="http://www.w3.org/2000/svg">
<path d="M142.045 222.589H111.283C49.9115 222.589 0 172.673 0 111.295C0 49.9168 49.9115 0 111.283 0H142.045C149.584 0 155.767 6.18309 155.767 13.7234C155.767 21.2637 149.584 27.4468 142.045 27.4468H111.283C65.1414 27.4468 27.4438 64.9973 27.4438 111.295C27.4438 157.592 64.9906 195.143 111.283 195.143H142.045C149.584 195.143 155.767 201.326 155.767 208.866C155.767 216.406 149.584 222.589 142.045 222.589Z" fill="#0C0C0C"/>
<path d="M279.717 222.589H248.955C241.416 222.589 235.233 216.406 235.233 208.866C235.233 201.326 241.416 195.143 248.955 195.143H279.717C325.859 195.143 363.556 157.592 363.556 111.295C363.556 64.9973 326.009 27.4468 279.717 27.4468H248.955C241.416 27.4468 235.233 21.2637 235.233 13.7234C235.233 6.18309 241.416 0 248.955 0H279.717C341.088 0 391 49.9168 391 111.295C391 172.673 341.088 222.589 279.717 222.589Z" fill="#0C0C0C"/>
<path d="M278.661 125.018H112.339C104.799 125.018 98.6169 118.835 98.6169 111.294C98.6169 103.754 104.799 97.5711 112.339 97.5711H278.661C286.201 97.5711 292.383 103.754 292.383 111.294C292.383 118.835 286.201 125.018 278.661 125.018Z" fill="#0C0C0C"/>
</svg>
