<svg width="305" height="407" viewBox="0 0 305 407" fill="none" xmlns="http://www.w3.org/2000/svg">
<path d="M107.594 239.021H197.557C200.571 239.021 203.283 237.815 205.393 235.555C209.16 231.636 209.763 225.457 206.749 220.785L168.473 156.434V125.991H171.939C175.405 125.991 178.118 123.127 178.118 119.51C178.118 115.894 175.254 113.03 171.939 113.03H132.759C129.293 113.03 126.581 115.894 126.581 119.51C126.581 123.127 129.444 125.991 132.759 125.991H136.225V156.434L97.9496 220.785C95.0865 225.457 95.6893 231.636 99.3059 235.555C101.416 237.815 104.279 239.021 107.142 239.021H107.594ZM149.034 160.201V125.991H156.117V160.201L177.063 195.617H127.937L148.883 160.201H149.034Z" fill="#0C0C0C"/>
<path d="M302.74 178.286C304.247 169.846 305 161.106 305 152.515C305 68.4209 236.586 0 152.5 0C68.414 0 0 68.4209 0 152.515C0 161.106 0.753424 169.696 2.26034 178.135C0.904116 186.424 0 194.864 0 203.454C0 212.044 0.753424 220.635 2.26034 228.924C1.2055 236.308 0 246.707 0 254.242C0 283.63 8.28802 312.114 24.1107 336.679C39.4812 360.641 61.1808 379.63 86.6477 391.988C107.293 401.784 129.444 406.908 152.349 406.908C192.584 406.908 230.558 391.385 259.19 363.203C276.971 345.721 290.383 323.869 297.767 300.208C302.438 285.439 304.849 269.916 304.849 254.393C304.849 248.063 304.849 238.719 302.288 231.486H302.137C303.795 222.292 304.849 212.949 304.849 203.605C304.849 195.165 303.945 186.726 302.589 178.587L302.74 178.286ZM259.34 261.326C266.272 254.544 272.3 246.858 277.876 238.87C277.574 240.076 277.423 241.432 276.971 242.638C270.642 262.833 259.19 281.52 243.97 296.44C219.407 320.553 187.008 333.816 152.5 333.816C132.759 333.816 113.923 329.596 96.292 321.156C62.085 304.88 37.2208 274.286 27.1245 238.72C42.3444 260.723 62.6877 278.506 86.7984 290.111C107.443 299.906 129.595 305.03 152.5 305.03C192.735 305.03 230.709 289.508 259.34 261.326ZM152.651 22.0032C224.531 22.0032 283.15 80.4774 283.15 152.515C283.15 165.928 281.191 179.19 277.122 191.699C270.793 211.894 259.34 230.581 244.121 245.501C219.558 269.614 187.159 282.877 152.651 282.877C132.91 282.877 114.074 278.657 96.4427 270.217C51.3858 248.666 22.3024 202.399 22.3024 152.515C22.3024 80.6281 80.7708 22.0032 152.801 22.0032H152.651ZM243.97 347.379C219.407 371.492 187.008 384.754 152.5 384.754C132.759 384.754 113.923 380.534 96.292 372.095C62.085 355.819 37.2208 325.225 27.1245 289.809C42.3444 311.812 62.6877 329.596 86.7984 341.2C107.443 350.996 129.595 356.12 152.5 356.12C192.735 356.12 230.709 340.597 259.34 312.415C266.272 305.633 272.3 297.947 277.876 289.96C277.574 291.165 277.423 292.522 276.971 293.727C270.642 313.922 259.19 332.61 243.97 347.53V347.379Z" fill="#0C0C0C"/>
<path d="M152.5 71.1335C155.966 71.1335 158.829 68.1194 158.829 64.5024C158.829 60.8855 155.966 57.8713 152.5 57.8713C149.034 57.8713 146.171 60.8855 146.171 64.5024C146.171 68.1194 149.034 71.1335 152.5 71.1335Z" fill="#0C0C0C"/>
<path d="M128.841 103.083C135.773 103.083 141.349 97.5073 141.349 90.5747C141.349 83.6422 135.773 78.0661 128.841 78.0661C121.91 78.0661 116.334 83.6422 116.334 90.5747C116.334 97.5073 121.91 103.083 128.841 103.083Z" fill="#0C0C0C"/>
<path d="M176.309 103.083C183.241 103.083 188.817 97.5073 188.817 90.5747C188.817 83.6422 183.241 78.0661 176.309 78.0661C169.378 78.0661 163.802 83.6422 163.802 90.5747C163.802 97.5073 169.378 103.083 176.309 103.083Z" fill="#0C0C0C"/>
</svg>
