<svg width="266" height="407" viewBox="0 0 266 407" fill="none" xmlns="http://www.w3.org/2000/svg">
<path d="M93.8326 207.115H171.098C173.658 207.115 176.219 206.061 178.026 204.103C181.339 200.638 181.791 195.215 179.231 191.148L146.397 135.868V109.959H149.259C152.271 109.959 154.831 107.399 154.831 104.235C154.831 101.072 152.271 98.5115 149.259 98.5115H115.672C112.659 98.5115 110.099 101.072 110.099 104.235C110.099 107.399 112.659 109.959 115.672 109.959H118.533V135.868L85.6995 191.148C83.1391 195.215 83.7415 200.638 86.9044 204.103C88.7117 206.061 91.2722 207.115 93.8326 207.115ZM153.325 169.307H111.756L129.679 139.181V109.959H135.402V139.181L153.325 169.307Z" fill="#0C0C0C"/>
<path d="M112.057 90.0762C118.082 90.0762 122.901 85.2561 122.901 79.2309C122.901 73.2058 118.082 68.3856 112.057 68.3856C106.032 68.3856 101.213 73.2058 101.213 79.2309C101.213 85.2561 106.032 90.0762 112.057 90.0762Z" fill="#0C0C0C"/>
<path d="M152.873 90.0762C158.898 90.0762 163.718 85.2561 163.718 79.2309C163.718 73.2058 158.898 68.3856 152.873 68.3856C146.849 68.3856 142.029 73.2058 142.029 79.2309C142.029 85.2561 146.849 90.0762 152.873 90.0762Z" fill="#0C0C0C"/>
<path d="M132.39 63.8668C136.306 63.8668 139.469 60.7036 139.469 56.7872C139.469 52.8708 136.306 49.7076 132.39 49.7076C128.474 49.7076 125.311 52.8708 125.311 56.7872C125.311 60.7036 128.474 63.8668 132.39 63.8668Z" fill="#0C0C0C"/>
<path d="M259.809 169.157C263.274 157.257 265.081 145.056 265.081 132.554C265.081 59.4985 205.588 0 132.54 0C59.4925 0 0 59.4985 0 132.554C0 145.056 1.80735 157.407 5.27147 169.157C1.80735 181.056 0 193.408 0 205.91C0 217.509 1.65672 228.806 4.669 239.651L3.916 243.115C1.95802 251.249 0.602406 259.534 0.301178 267.969C0.301178 270.078 0.150646 272.337 0.150646 274.446C0.150646 325.208 29.8215 372.205 75.6082 394.046C93.5313 402.632 112.81 407 132.842 407C167.784 407 200.769 393.443 225.771 369.042C251.375 343.886 265.533 310.296 265.533 274.446C265.533 269.174 265.231 264.053 264.629 258.932C263.876 252.605 262.52 246.279 261.014 240.103C263.876 229.107 265.533 217.659 265.533 205.91C265.533 193.408 263.725 181.207 260.261 169.307L259.809 169.157ZM209.956 353.225C189.171 373.711 161.609 384.858 132.54 384.858C115.822 384.858 99.8571 381.242 84.7957 374.012C47.8953 356.389 23.9476 319.334 22.2908 278.815C35.3943 298.547 53.468 314.815 75.3071 325.359C93.2301 333.945 112.509 338.313 132.54 338.313C167.483 338.313 200.467 324.756 225.469 300.355C232.096 293.877 237.82 286.798 242.941 279.267C241.736 307.284 230.289 333.342 210.107 353.225H209.956ZM209.956 284.689C189.171 305.175 161.609 316.321 132.54 316.321C115.822 316.321 99.8571 312.706 84.7957 305.476C46.5397 287.25 21.839 247.936 21.839 205.609C21.839 205.458 21.839 205.308 21.839 205.006C34.9424 224.889 53.1668 241.308 75.1564 252.003C93.0795 260.588 112.358 264.957 132.39 264.957C167.332 264.957 200.317 251.4 225.319 226.998C231.946 220.37 237.82 212.99 242.941 205.308C242.941 205.308 242.941 205.609 242.941 205.759C242.941 235.735 231.193 263.752 209.805 284.689H209.956ZM237.97 165.843C232.548 183.014 222.909 198.831 209.956 211.483C189.171 231.969 161.609 243.115 132.54 243.115C115.822 243.115 99.8571 239.5 84.7957 232.27C46.5397 214.044 21.839 174.73 21.839 132.403C21.839 71.3982 71.3911 21.8412 132.39 21.8412C193.389 21.8412 242.941 71.3982 242.941 132.403C242.941 143.7 241.284 154.997 237.82 165.692L237.97 165.843Z" fill="#0C0C0C"/>
</svg>
