<svg width="391" height="407" viewBox="0 0 391 407" fill="none" xmlns="http://www.w3.org/2000/svg">
<path d="M262.618 267.617V239.288H265.782C269.096 239.288 271.658 236.575 271.658 233.11C271.658 229.644 268.946 226.932 265.782 226.932H229.32C226.005 226.932 223.443 229.644 223.443 233.11C223.443 236.575 226.156 239.288 229.32 239.288H232.484V267.617L196.775 327.589C194.063 331.959 194.666 337.836 198.131 341.452C200.09 343.562 202.802 344.767 205.514 344.767H289.437C292.3 344.767 294.861 343.562 296.82 341.452C300.285 337.685 300.888 331.959 298.176 327.589L262.467 267.617H262.618ZM224.799 304.082L244.387 271.233V239.438H250.865V271.233L270.452 304.082H224.95H224.799Z" fill="#0C0C0C"/>
<path d="M247.551 121C168.75 121 104.565 185.192 104.565 264C104.565 291.425 112.4 318.247 127.165 341.151C141.63 363.603 161.82 381.534 185.776 392.986C205.062 402.178 225.854 407 247.4 407C285.068 407 320.626 392.534 347.596 366.014C364.32 349.589 376.825 329.247 383.756 306.945C388.126 293.082 390.386 278.616 390.386 264C390.386 185.192 326.2 121 247.4 121H247.551ZM332.227 350.192C309.476 372.493 279.342 384.849 247.551 384.849C229.32 384.849 211.691 380.932 195.419 373.096C153.683 353.055 126.713 310.26 126.713 264C126.713 197.397 180.955 143.151 247.551 143.151C314.147 143.151 368.388 197.397 368.388 264C368.388 276.356 366.58 288.712 362.813 300.315C356.937 319.151 346.24 336.329 332.227 350.192Z" fill="#0C0C0C"/>
<path d="M225.402 217.89C231.881 217.89 237.154 212.616 237.154 206.137C237.154 199.658 231.881 194.384 225.402 194.384C218.923 194.384 213.65 199.658 213.65 206.137C213.65 212.616 218.923 217.89 225.402 217.89Z" fill="#0C0C0C"/>
<path d="M269.699 217.89C276.178 217.89 281.451 212.616 281.451 206.137C281.451 199.658 276.178 194.384 269.699 194.384C263.22 194.384 257.947 199.658 257.947 206.137C257.947 212.616 263.22 217.89 269.699 217.89Z" fill="#0C0C0C"/>
<path d="M247.551 189.562C251.794 189.562 255.235 186.121 255.235 181.877C255.235 177.632 251.794 174.192 247.551 174.192C243.307 174.192 239.867 177.632 239.867 181.877C239.867 186.121 243.307 189.562 247.551 189.562Z" fill="#0C0C0C"/>
<path d="M0.150673 174.794C0.150673 196.342 24.2579 213.068 66.4454 220.753C73.0749 221.959 80.0057 222.863 87.0872 223.466C90.4019 210.055 95.5247 197.397 101.853 185.493C88.1419 185.041 74.8829 183.685 62.2267 181.425C32.394 176 12.8069 166.959 0 156.863V174.644C0 174.644 0 174.644 0 174.794H0.150673Z" fill="#0C0C0C"/>
<path d="M0.150673 237.178C0.150673 258.726 24.2579 275.452 66.4454 283.137C72.0202 284.192 77.7457 284.945 83.4711 285.548C82.5671 278.315 81.9644 271.082 81.9644 263.849C81.9644 257.973 82.2658 252.247 82.8684 246.521C75.787 245.767 68.8561 244.863 62.2267 243.658C32.394 238.233 12.8069 229.192 0 219.096V237.027C0 237.027 0 237.027 0 237.178H0.150673Z" fill="#0C0C0C"/>
<path d="M0.150673 112.411C0.150673 133.959 24.2579 150.685 66.4454 158.37C80.4577 160.931 95.5247 162.137 111.194 162.137C113.153 162.137 115.262 162.137 117.221 162.137C132.138 143.151 151.122 127.329 172.818 116.329C154.286 120.849 133.042 123.26 111.194 123.26C94.1687 123.26 77.7457 121.904 62.2267 119.041C32.394 113.616 12.8069 104.575 0 94.4794V112.26C0 112.26 0 112.26 0 112.411H0.150673Z" fill="#0C0C0C"/>
<path d="M66.4455 95.8356C80.4578 98.3973 95.5248 99.6028 111.194 99.6028C138.616 99.6028 164.682 95.5342 184.571 88.1507C198.282 83.0274 208.527 76.5479 214.855 69.0137C219.225 63.7397 221.786 57.7123 222.238 51.5342C222.238 51.3835 222.238 51.2328 222.238 50.9315C222.238 50.4794 222.238 50.0274 222.238 49.726C222.238 17.0274 166.34 0 111.194 0C56.0493 0 0.301388 17.0274 0.150718 49.5753C0.150718 49.5753 0.150718 49.5753 0.150718 49.726C0.150718 71.274 24.2579 88 66.4455 95.6849V95.8356Z" fill="#0C0C0C"/>
<path d="M88.4433 309.507C79.4031 308.753 70.6642 307.699 62.2267 306.192C61.3227 306.041 60.5693 305.89 59.816 305.74C31.3394 300.315 12.5056 291.425 0.150718 281.63V305.74C0.150718 305.74 0.150718 306.192 0.150718 306.493C0.150718 328.041 24.2579 344.767 66.4455 352.452C80.1564 355.014 94.9221 356.219 110.29 356.219C109.688 355.164 108.934 354.26 108.332 353.206C99.5929 339.644 92.9634 324.877 88.594 309.507H88.4433Z" fill="#0C0C0C"/>
</svg>
