<svg width="195" height="202" viewBox="0 0 195 202" fill="none" xmlns="http://www.w3.org/2000/svg">
<g clip-path="url(#clip0_347_19)">
<path d="M195 44.791C194.952 43.0446 194.223 41.3847 192.955 40.1852L152.579 1.81368C149.939 -0.690691 145.773 -0.585142 143.267 2.04397L23.2028 128.26C23.2028 128.26 23.174 128.289 23.1644 128.308C23.0588 128.424 22.9628 128.539 22.8668 128.663C22.8188 128.721 22.7804 128.769 22.7324 128.827C22.6556 128.932 22.5788 129.047 22.502 129.153C22.454 129.23 22.3964 129.306 22.3484 129.383C22.2908 129.469 22.2428 129.565 22.1948 129.661C22.1372 129.767 22.0796 129.872 22.0316 129.978C21.9932 130.055 21.9644 130.131 21.9356 130.208C21.878 130.333 21.83 130.467 21.782 130.592C21.782 130.621 21.7628 130.64 21.7532 130.669L0.355326 193.288C-0.470253 195.715 0.18253 198.402 2.03528 200.177C2.80327 200.906 3.70564 201.424 4.68482 201.722C6.07679 202.144 7.59355 202.096 8.99511 201.549L70.76 177.302C70.76 177.302 70.7792 177.292 70.7888 177.292C70.856 177.264 70.9232 177.235 70.9904 177.196C71.1728 177.11 71.3552 177.024 71.5376 176.928C71.6144 176.889 71.6912 176.841 71.768 176.793C71.9792 176.669 72.1712 176.534 72.3632 176.39C72.3919 176.371 72.4111 176.352 72.4399 176.333C72.6703 176.15 72.8719 175.959 73.0735 175.757C73.0927 175.738 73.1119 175.728 73.1215 175.709L167.794 76.1868L193.186 49.5023C194.386 48.2357 195.039 46.5469 195 44.8006V44.791ZM33.7433 136.282L122.551 42.9295L153.635 71.9648L64.5777 165.576L17.4045 184.095L33.7337 136.282H33.7433ZM162.716 62.4175L131.632 33.3822L148.278 15.8804L179.113 45.1844L162.716 62.4175Z" fill="#0C0C0C"/>
</g>
<defs>
<clipPath id="clip0_347_19">
<rect width="195" height="202" fill="white"/>
</clipPath>
</defs>
</svg>
