<svg width="17" height="17" viewBox="0 0 17 17" fill="none" xmlns="http://www.w3.org/2000/svg">
<path d="M3.24427 3.87864C3.00767 3.87864 2.81518 4.07337 2.81518 4.31272C2.81518 4.55207 3.00767 4.7468 3.24427 4.7468H9.53631C9.77292 4.7468 9.96541 4.55207 9.96541 4.31272C9.96541 4.07337 9.77292 3.87864 9.53631 3.87864H3.24427Z" fill="white"/>
<path d="M7.66153 7.51353H3.24427C3.00767 7.51353 2.81518 7.70826 2.81518 7.94761C2.81518 8.18696 3.00767 8.38169 3.24427 8.38169H7.66153C7.89814 8.38169 8.09063 8.18696 8.09063 7.94761C8.09063 7.70826 7.89814 7.51353 7.66153 7.51353Z" fill="white"/>
<path d="M5.45391 12.0166C5.69051 12.0166 5.883 11.8219 5.883 11.5825C5.883 11.3431 5.69051 11.1484 5.45391 11.1484H3.24427C3.00767 11.1484 2.81518 11.3431 2.81518 11.5825C2.81518 11.8219 3.00767 12.0166 3.24427 12.0166H5.45391Z" fill="white"/>
<path d="M7.03193 15.4932H1.58604C1.18302 15.4932 0.856183 15.1626 0.856183 14.7549V1.96384C0.856183 1.55613 1.18302 1.2255 1.58604 1.2255H11.8663C12.2693 1.2255 12.5961 1.55613 12.5961 1.96384V2.48108C12.5961 2.72043 12.7886 2.91516 13.0252 2.91516C13.2618 2.91516 13.4543 2.72043 13.4543 2.48108V1.96384C13.4543 1.07946 12.7425 0.359375 11.8683 0.359375H1.58604C0.711815 0.359375 0 1.07946 0 1.96384V14.7549C0 15.6393 0.711815 16.3594 1.58604 16.3594H7.02992C7.26653 16.3594 7.45902 16.1646 7.45902 15.9253C7.45902 15.6859 7.26653 15.4912 7.02992 15.4912L7.03193 15.4932Z" fill="white"/>
<path d="M16.881 15.2336L14.0919 10.7326V8.49325H14.4448C14.6393 8.49325 14.7977 8.33301 14.7977 8.13625C14.7977 7.9395 14.6393 7.77925 14.4448 7.77925H11.6076C11.4131 7.77925 11.2547 7.9395 11.2547 8.13625C11.2547 8.33301 11.4131 8.49325 11.6076 8.49325H11.9605V10.7326L9.17138 15.2336C8.98691 15.5156 9.01699 15.8969 9.26161 16.1444C9.39997 16.2843 9.58043 16.3553 9.76289 16.3553H16.2895C16.472 16.3553 16.6525 16.2843 16.7908 16.1444C17.0354 15.8969 17.0655 15.5156 16.881 15.2336ZM11.0662 13.5196L12.6663 10.9395V8.49325H13.3841V10.9395L14.9842 13.5196H11.0662Z" fill="white"/>
<path d="M13.0252 4.7752C13.2799 4.7752 13.4864 4.56632 13.4864 4.30867C13.4864 4.05101 13.2799 3.84213 13.0252 3.84213C12.7705 3.84213 12.564 4.05101 12.564 4.30867C12.564 4.56632 12.7705 4.7752 13.0252 4.7752Z" fill="white"/>
<path d="M11.3008 6.7894C11.6651 6.7894 11.9605 6.49062 11.9605 6.12205C11.9605 5.75349 11.6651 5.45471 11.3008 5.45471C10.9365 5.45471 10.6411 5.75349 10.6411 6.12205C10.6411 6.49062 10.9365 6.7894 11.3008 6.7894Z" fill="white"/>
<path d="M14.7496 6.7894C15.1139 6.7894 15.4093 6.49062 15.4093 6.12205C15.4093 5.75349 15.1139 5.45471 14.7496 5.45471C14.3853 5.45471 14.0899 5.75349 14.0899 6.12205C14.0899 6.49062 14.3853 6.7894 14.7496 6.7894Z" fill="white"/>
</svg>
