<svg width="195" height="149" viewBox="0 0 195 149" fill="none" xmlns="http://www.w3.org/2000/svg">
<g clip-path="url(#clip0_346_9)">
<path d="M194.403 54.6475C194.19 54.2688 193.929 53.9314 193.64 53.6355C193.255 53.1206 192.758 52.6826 192.161 52.3453L99.863 0.991827C99.0527 0.542033 98.1713 0.358564 97.3077 0.405911C96.4442 0.352646 95.551 0.536115 94.7406 0.991827L2.43106 52.3453C0.147865 53.6177 -0.674321 56.5 0.597405 58.7845C0.975966 59.4651 1.5024 60.0095 2.11165 60.412C2.38374 60.6665 2.69132 60.8914 3.02847 61.0808L10.9546 65.4899V120.122C5.25843 122.087 1.15933 127.496 1.15933 133.865C1.15933 141.89 7.65992 148.4 15.6866 148.4C23.7132 148.4 30.2138 141.896 30.2138 133.865C30.2138 127.496 26.1207 122.087 20.4186 120.122V70.7573L38.0394 80.558C38.0216 80.7237 38.0098 80.8954 38.0098 81.0729V109.197C38.0098 109.197 38.0098 109.215 38.0098 109.226V109.262C38.0098 109.298 38.0098 109.333 38.0098 109.369C38.0098 109.481 38.0157 109.593 38.0276 109.706C38.0335 109.777 38.0453 109.854 38.0571 109.925C38.069 110.002 38.0749 110.079 38.0926 110.156C38.1104 110.244 38.134 110.333 38.1518 110.416C38.1695 110.475 38.1814 110.534 38.1991 110.594C38.2287 110.682 38.2582 110.771 38.2878 110.86C38.3056 110.913 38.3292 110.972 38.347 111.026C38.3825 111.109 38.418 111.185 38.4534 111.268C38.483 111.327 38.5067 111.387 38.5422 111.452C38.5777 111.523 38.6191 111.588 38.6545 111.653C38.696 111.718 38.7314 111.789 38.7788 111.854C38.8143 111.907 38.8557 111.961 38.8912 112.014C38.9444 112.085 38.9976 112.162 39.0509 112.227C39.0863 112.274 39.1278 112.316 39.1632 112.357C39.2283 112.428 39.2875 112.499 39.3584 112.57C39.3998 112.612 39.4472 112.653 39.4886 112.695C39.5536 112.76 39.6246 112.819 39.6956 112.878C39.7547 112.925 39.8139 112.973 39.873 113.014C39.9322 113.062 39.9913 113.109 40.0564 113.15C40.1451 113.21 40.2398 113.269 40.3285 113.322C40.364 113.346 40.3995 113.369 40.435 113.387L40.4705 113.405C40.4705 113.405 40.4823 113.411 40.4882 113.417L95.3262 143.926C96.0538 144.328 96.8405 144.523 97.6212 144.523C97.6745 144.523 97.7336 144.512 97.7869 144.512C97.8401 144.512 97.8933 144.523 97.9525 144.523C98.7274 144.523 99.52 144.334 100.248 143.926L155.086 113.417C155.086 113.417 155.097 113.411 155.103 113.405L155.139 113.387C155.174 113.369 155.21 113.34 155.245 113.322C155.34 113.269 155.429 113.21 155.517 113.15C155.582 113.109 155.642 113.062 155.701 113.014C155.76 112.967 155.819 112.925 155.878 112.878C155.949 112.819 156.014 112.754 156.085 112.695C156.127 112.653 156.174 112.612 156.215 112.57C156.28 112.499 156.345 112.428 156.41 112.357C156.446 112.316 156.487 112.269 156.523 112.227C156.582 112.156 156.629 112.085 156.683 112.014C156.718 111.961 156.759 111.907 156.795 111.854C156.836 111.789 156.878 111.718 156.919 111.653C156.961 111.588 156.996 111.517 157.032 111.452C157.061 111.393 157.091 111.333 157.12 111.268C157.156 111.185 157.197 111.109 157.227 111.026C157.25 110.972 157.268 110.913 157.286 110.86C157.315 110.771 157.351 110.682 157.375 110.594C157.392 110.534 157.404 110.475 157.422 110.416C157.446 110.327 157.469 110.244 157.481 110.156C157.499 110.079 157.505 110.002 157.517 109.925C157.528 109.854 157.54 109.783 157.546 109.706C157.558 109.593 157.558 109.481 157.564 109.369C157.564 109.333 157.564 109.298 157.564 109.262V109.226C157.564 109.226 157.564 109.209 157.564 109.197V81.0729C157.564 80.9013 157.552 80.7297 157.534 80.5639L192.557 61.0808C194.84 59.8083 195.662 56.9261 194.391 54.6416L194.403 54.6475ZM97.7987 102.977L17.952 58.5536C17.952 58.5536 17.9461 58.5536 17.9402 58.5477L14.3498 56.5532L97.3018 10.402L180.751 56.8255L97.8046 102.971L97.7987 102.977ZM148.112 106.48L97.7928 134.474L47.4738 106.48V85.8194L95.3321 112.446C96.0597 112.849 96.8464 113.044 97.6272 113.044C97.6863 113.044 97.7395 113.032 97.7987 113.032C97.8578 113.032 97.9111 113.044 97.9702 113.044C98.7451 113.044 99.5377 112.854 100.265 112.446L148.112 85.8253V106.486V106.48Z" fill="#0C0C0C"/>
</g>
<defs>
<clipPath id="clip0_346_9">
<rect width="195" height="148" fill="white" transform="translate(0 0.399902)"/>
</clipPath>
</defs>
</svg>
