<svg width="278" height="297" viewBox="0 0 278 297" fill="none" xmlns="http://www.w3.org/2000/svg">
<path d="M273.856 257.541L176.272 102.064V24.6886H188.629C195.453 24.6886 200.986 19.1611 200.986 12.3443C200.986 5.52747 195.453 0 188.629 0H144.275H139.441H89.3711C82.5472 0 77.0139 5.52747 77.0139 12.3443C77.0139 19.1611 82.5472 24.6886 89.3711 24.6886H101.728V102.064L4.14357 257.541C-2.29231 267.245 -1.23093 280.447 7.32769 288.997C12.173 293.837 18.5089 296.275 24.8566 296.316H253.143C259.491 296.275 265.83 293.837 270.672 288.997C279.231 280.447 280.292 267.242 273.856 257.541ZM70.4898 198.313L126.443 109.166L126.446 24.6886H151.557V109.166L207.513 198.313H70.4898Z" fill="#3971FF"/>
</svg>
