<svg width="270" height="418" viewBox="0 0 270 418" fill="none" xmlns="http://www.w3.org/2000/svg">
<g clip-path="url(#clip0_62_2)">
<path d="M265.982 380.489L171.242 230.138V155.27H183.297C189.943 155.27 195.352 149.89 195.352 143.279C195.352 136.669 189.943 131.288 183.297 131.288H86.8575C80.2118 131.288 74.8025 136.669 74.8025 143.279C74.8025 149.89 80.2118 155.27 86.8575 155.27H98.9124V230.138L4.0183 380.489C-2.16372 389.867 -1.23642 402.627 7.10932 410.928C11.7458 415.54 17.9279 418 24.1099 418H245.89C252.072 418 258.254 415.54 262.891 410.928C271.236 402.627 272.164 389.867 265.982 380.489ZM68.4659 323.301L122.868 237.056V155.27H147.287V237.056L201.689 323.301H68.4659Z" fill="#0C0C0C"/>
<path d="M135.077 31.0541C143.698 31.0541 150.687 24.1024 150.687 15.527C150.687 6.95169 143.698 0 135.077 0C126.456 0 119.468 6.95169 119.468 15.527C119.468 24.1024 126.456 31.0541 135.077 31.0541Z" fill="#0C0C0C"/>
<path d="M76.5026 98.3892C88.8792 98.3892 98.9124 88.4091 98.9124 76.0979C98.9124 63.7868 88.8792 53.8066 76.5026 53.8066C64.126 53.8066 54.0927 63.7868 54.0927 76.0979C54.0927 88.4091 64.126 98.3892 76.5026 98.3892Z" fill="#0C0C0C"/>
<path d="M193.652 98.3892C206.029 98.3892 216.062 88.4091 216.062 76.0979C216.062 63.7868 206.029 53.8066 193.652 53.8066C181.275 53.8066 171.242 63.7868 171.242 76.0979C171.242 88.4091 181.275 98.3892 193.652 98.3892Z" fill="#0C0C0C"/>
</g>
<defs>
<clipPath id="clip0_62_2">
<rect width="135" height="209" fill="white" transform="scale(2)"/>
</clipPath>
</defs>
</svg>
