<svg width="454" height="64" viewBox="0 0 454 64" fill="none" xmlns="http://www.w3.org/2000/svg">
<path d="M0 50.3324V1.50704H30.2867V4.67175H3.31487V23.5087H27.1224V26.5225H3.31487V50.3324H0Z" fill="#A5A2A2"/>
<path d="M39.0262 47.9213C36.6153 45.8116 35.4099 43.2496 35.4099 40.2357V15.2204H38.7249V40.2357C38.7249 42.4961 39.6289 44.4554 41.2864 46.113C42.9439 47.7707 45.0533 48.524 47.4642 48.524C50.3272 48.524 52.8888 47.4691 55.149 45.2087C57.4092 42.9482 58.7653 40.2359 59.368 36.9206V15.2204H62.683V50.3325H59.368V44.1539C58.3132 46.2637 56.8064 48.0719 54.5462 49.2775C52.4367 50.4831 50.0259 51.2366 47.3136 51.2366C43.9987 51.2366 41.1357 50.1817 38.8755 48.0719L39.0262 47.9213Z" fill="#A5A2A2"/>
<path d="M73.2307 50.3324V15.2203H76.5456V21.0974C77.6003 18.9877 79.1072 17.33 81.066 16.1244C83.0249 14.9189 85.285 14.1653 87.8466 14.1653C91.3122 14.1653 94.1752 15.2202 96.5861 17.4806C98.997 19.7411 100.353 22.6043 100.353 25.7689V50.1815H97.0381V25.7689C97.0381 23.3578 96.134 21.248 94.3258 19.5904C92.5177 17.9327 90.4082 17.0286 87.8466 17.0286C85.1343 17.0286 82.7235 17.9328 80.4633 19.8918C78.3538 21.8509 76.9976 24.2619 76.5456 27.1251V50.3324H73.2307Z" fill="#A5A2A2"/>
<path d="M112.408 45.8115C109.394 42.1949 107.887 37.9754 107.887 32.8517C107.887 27.7281 109.394 23.2071 112.408 19.5904C115.421 15.9738 119.038 14.0148 123.257 14.0148C125.969 14.0148 128.38 14.7683 130.64 16.426C132.9 18.0836 134.407 20.1932 135.462 22.9058V1.50704H138.777V50.3324H135.462V43.0989C134.558 45.51 133.051 47.4691 130.791 48.976C128.53 50.483 126.119 51.2366 123.257 51.2366C119.038 51.2366 115.421 49.4282 112.408 45.8115ZM131.996 44.003C134.407 40.8384 135.462 37.071 135.462 32.7009C135.462 28.3307 134.256 24.5635 131.996 21.5496C129.585 18.385 126.722 16.878 123.407 16.878C120.092 16.878 117.229 18.385 114.818 21.5496C112.408 24.5635 111.202 28.3307 111.202 32.7009C111.202 37.071 112.408 40.8384 114.818 44.003C117.229 47.1676 120.092 48.6748 123.407 48.6748C126.722 48.6748 129.585 47.1676 131.996 44.003Z" fill="#A5A2A2"/>
<path d="M174.186 61.0317H176.748C177.953 61.0317 179.31 59.9769 180.816 58.0179C182.323 56.0588 183.679 53.3463 184.885 50.031L171.474 15.2204H174.488L186.392 45.9622L198.295 15.2204H201.46L186.392 54.0999C185.337 56.9631 183.981 59.2235 182.323 60.8811C180.666 62.5388 178.858 63.4429 177.2 63.4429H174.036V61.0317H174.186Z" fill="#A5A2A2"/>
<path d="M210.199 45.9622C207.186 42.6469 205.679 38.2768 205.679 32.8518C205.679 27.4267 207.186 22.6044 210.199 19.1384C213.213 15.6724 217.13 14.0148 222.103 14.0148C227.075 14.0148 230.993 15.6724 234.007 19.1384C237.02 22.6044 238.527 27.1253 238.527 32.8518C238.527 38.5782 237.02 42.7976 234.007 45.9622C230.993 49.2775 227.075 50.9352 222.103 50.9352C217.13 50.9352 213.062 49.2775 210.199 45.9622ZM231.596 44.0031C234.007 41.1399 235.061 37.5233 235.061 32.8518C235.061 28.1802 233.856 24.1114 231.596 21.2482C229.185 18.3849 226.021 16.8781 222.103 16.8781C218.185 16.8781 214.87 18.3849 212.61 21.2482C210.199 24.1114 208.994 27.8788 208.994 32.8518C208.994 37.8247 210.199 41.2906 212.61 44.0031C215.021 46.8663 218.185 48.2228 222.103 48.2228C226.021 48.2228 229.185 46.8663 231.596 44.0031Z" fill="#A5A2A2"/>
<path d="M249.828 47.9213C247.417 45.8116 246.212 43.2496 246.212 40.2357V15.2204H249.527V40.2357C249.527 42.4961 250.431 44.4554 252.088 46.113C253.746 47.7707 255.855 48.524 258.266 48.524C261.129 48.524 263.691 47.4691 265.951 45.2087C268.211 42.9482 269.567 40.2359 270.17 36.9206V15.2204H273.485V50.3325H270.17V44.1539C269.115 46.2637 267.608 48.0719 265.348 49.2775C263.239 50.4831 260.828 51.2366 258.115 51.2366C254.801 51.2366 251.938 50.1817 249.677 48.0719L249.828 47.9213Z" fill="#A5A2A2"/>
<path d="M284.033 50.3325V15.2204H287.348V23.0564C288.252 20.4946 289.608 18.5357 291.416 16.8781C293.224 15.3711 295.183 14.6175 297.292 14.6175H299.251V18.3849C299.251 18.3849 298.95 18.385 298.649 18.2343C298.498 18.2343 298.347 18.0837 298.347 18.0837C295.786 18.0837 293.375 19.1383 291.416 21.3988C289.306 23.6592 287.95 26.3718 287.348 29.6871V50.3325H284.033Z" fill="#A5A2A2"/>
<path d="M331.497 50.3324V1.50704H354.852C358.167 1.50704 361.03 2.71261 363.441 5.27443C365.852 7.68556 367.057 10.6996 367.057 14.3162C367.057 17.4809 366.304 20.1933 364.948 22.4537C363.441 24.7141 361.633 26.0705 359.373 26.5225C361.332 27.1253 362.989 28.7829 364.345 31.6461C365.551 34.5093 366.304 38.126 366.304 42.1948C366.304 44.4552 366.304 46.2635 366.455 47.3184C366.455 48.6746 366.756 49.5788 367.057 50.1816H363.742C363.742 50.1816 362.838 48.3734 362.688 46.5651L362.386 39.633C362.386 36.3177 361.633 33.4545 359.975 31.1941C358.469 28.9336 356.51 27.7281 354.25 27.7281H334.812V50.3324H331.497ZM354.099 24.714C356.661 24.714 358.921 23.6592 360.729 21.7002C362.537 19.7411 363.441 17.4807 363.441 14.6175C363.441 11.7543 362.537 9.49381 360.729 7.53477C358.921 5.57573 356.661 4.67175 354.099 4.67175H334.661V24.714H354.099Z" fill="#A5A2A2"/>
<path d="M377.304 46.7157C373.989 43.5511 372.331 39.7838 372.331 35.2629H375.646C375.646 38.8796 377.002 42.0441 379.715 44.606C382.427 47.1678 385.591 48.524 389.358 48.524C393.426 48.524 397.043 47.4691 399.906 45.2086C402.769 42.9482 404.275 40.3864 404.275 37.2218C404.275 34.5093 402.919 32.2489 400.358 30.4405C397.796 28.6322 394.481 27.5773 390.112 27.1252C384.838 26.6731 380.769 25.1661 377.605 22.6043C374.441 20.0425 372.934 17.0287 372.934 13.2613C372.934 9.49389 374.591 6.48005 377.756 3.91823C380.92 1.35641 384.838 0 389.358 0C394.18 0 398.399 1.35632 401.865 4.06884C405.33 6.78136 406.988 9.94595 406.988 13.7133H403.673C403.673 10.8501 402.317 8.2883 399.454 6.17857C396.741 4.06883 393.426 3.01409 389.358 3.01409C385.742 3.01409 382.728 4.06892 380.167 6.02796C377.605 7.987 376.4 10.2474 376.4 13.1107C376.4 15.9739 377.756 18.2342 380.317 20.0425C383.03 21.8509 386.495 23.0564 391.016 23.3578C396.139 23.8099 400.056 25.317 403.221 27.7281C406.234 30.1393 407.741 33.3039 407.741 36.9206C407.741 40.8386 405.933 44.3046 402.317 47.0171C398.7 49.8803 394.481 51.2366 389.358 51.2366C384.687 51.2366 380.619 49.5788 377.304 46.4142V46.7157Z" fill="#A5A2A2"/>
<path d="M418.741 44.0029C414.371 39.03 412.111 33.0022 412.111 25.9195C412.111 18.8368 414.371 12.8091 418.741 7.6855C423.11 2.71255 428.384 0.150729 434.562 0.150729C439.685 0.150729 443.904 1.50682 447.521 4.21934C450.986 6.93186 453.247 10.5486 454 15.0694H450.685C450.082 11.6034 448.274 8.89095 445.11 6.63052C442.096 4.37009 438.48 3.3152 434.412 3.3152C429.138 3.3152 424.617 5.57567 420.85 9.94584C417.083 14.4667 415.275 19.741 415.275 25.9195C415.275 32.098 417.083 37.523 420.85 41.8932C424.617 46.2634 429.138 48.5238 434.412 48.5238C438.932 48.5238 442.548 47.1677 445.562 44.6058C448.576 42.044 450.233 38.4274 450.534 34.0572H453.849C453.397 39.3315 451.438 43.7016 447.822 46.8662C444.356 50.0308 439.836 51.6885 434.412 51.6885C428.234 51.6885 422.96 49.1267 418.59 44.1538L418.741 44.0029Z" fill="#A5A2A2"/>
</svg>
