<svg width="391" height="407" viewBox="0 0 391 407" fill="none" xmlns="http://www.w3.org/2000/svg">
<path d="M126.215 296.438V274.748H128.323C131.034 274.748 133.293 272.488 133.293 269.626C133.293 266.764 131.034 264.505 128.323 264.505H99.857C97.146 264.505 94.8868 266.764 94.8868 269.626C94.8868 272.488 97.146 274.748 99.857 274.748H101.966V296.438L74.1021 343.284C71.8429 346.748 72.2947 351.568 75.1564 354.581C76.8131 356.238 78.9217 357.142 81.1809 357.292H146.849C149.108 357.292 151.216 356.389 152.873 354.581C155.735 351.568 156.187 346.899 153.927 343.434L126.064 296.589L126.215 296.438ZM131.486 324.606H96.9954L112.057 299.3V274.597H116.575V299.3L131.637 324.606H131.486Z" fill="#0C0C0C"/>
<path d="M223.059 327.166C226.523 316.02 228.331 304.572 228.331 292.823C228.331 229.86 177.122 178.646 114.165 178.646C51.2087 178.646 0 229.86 0 292.823C0 336.506 25.4537 377.025 64.9146 395.853C80.2772 403.234 96.8448 407 114.165 407C144.288 407 172.604 395.402 194.141 374.313C207.546 361.209 217.487 344.941 223.059 327.166ZM114.165 385.008C100.309 385.008 86.9043 381.996 74.4033 375.97C42.6238 360.757 21.9896 328.07 21.9896 292.823C21.9896 242.061 63.2579 200.638 114.165 200.638C165.073 200.638 206.341 241.91 206.341 292.823C206.341 302.313 204.986 311.652 202.124 320.539C197.606 334.849 189.472 347.953 178.779 358.648C161.458 375.669 138.565 385.008 114.165 385.008Z" fill="#0C0C0C"/>
<path d="M203.329 122.914C187.063 122.914 173.959 136.018 173.959 152.286V181.358C200.768 195.818 221.854 219.617 232.699 248.388V152.286C232.699 136.018 219.595 122.914 203.329 122.914Z" fill="#0C0C0C"/>
<path d="M173.959 404.289V406.699H232.699V337.259C226.222 354.43 215.98 370.096 202.877 383.05C194.141 391.636 184.502 398.716 173.959 404.289Z" fill="#0C0C0C"/>
<path d="M96.8447 257.576C101.919 257.576 106.032 253.462 106.032 248.388C106.032 243.313 101.919 239.199 96.8447 239.199C91.7706 239.199 87.6573 243.313 87.6573 248.388C87.6573 253.462 91.7706 257.576 96.8447 257.576Z" fill="#0C0C0C"/>
<path d="M131.486 257.576C136.56 257.576 140.673 253.462 140.673 248.388C140.673 243.313 136.56 239.199 131.486 239.199C126.412 239.199 122.299 243.313 122.299 248.388C122.299 253.462 126.412 257.576 131.486 257.576Z" fill="#0C0C0C"/>
<path d="M114.165 235.434C117.479 235.434 120.19 232.722 120.19 229.408C120.19 226.095 117.479 223.383 114.165 223.383C110.852 223.383 108.141 226.095 108.141 229.408C108.141 232.722 110.852 235.434 114.165 235.434Z" fill="#0C0C0C"/>
<path d="M361.172 0C345.207 0 332.104 12.9542 332.104 29.0715V406.849H390.09V29.0715C390.09 13.1049 377.138 0 361.022 0H361.172Z" fill="#0C0C0C"/>
<path d="M282.401 67.4821C266.135 67.4821 253.032 80.5868 253.032 96.8547V407H311.771V96.8547C311.771 80.5868 298.668 67.4821 282.401 67.4821Z" fill="#0C0C0C"/>
</svg>
