<svg width="392" height="407" viewBox="0 0 392 407" fill="none" xmlns="http://www.w3.org/2000/svg">
<path d="M379.829 133.858C378.171 132.35 370.182 125.718 355.411 126.471C337.927 127.225 318.333 137.928 296.93 158.278C265.127 188.577 251.712 200.485 246.587 205.008C245.231 204.555 243.874 204.103 242.367 203.651C248.848 193.702 254.274 182.849 257.741 171.543C261.811 158.73 263.77 145.465 263.77 131.898C263.77 59.0904 204.535 0 131.885 0C59.2352 0 0 59.2411 0 131.898C0 178.779 25.6234 222.192 65.7164 245.708C43.8612 263.344 25.0205 290.628 14.0175 333.74C5.72757 338.564 0.150722 347.307 0.150722 357.557V379.414C0.150722 394.639 12.5102 407 27.7335 407H139.421C154.645 407 167.004 394.639 167.004 379.414V357.557C167.004 354.241 166.25 351.075 165.195 348.061C181.474 344.292 207.851 338.112 239.503 330.273C286.982 318.515 371.991 201.39 382.24 187.069C390.229 176.668 399.875 152.701 379.829 134.159V133.858ZM364.756 149.987C364.756 149.987 364.605 149.987 364.455 149.987H364.756ZM22.0059 131.597C22.0059 70.9991 71.2933 21.7067 131.885 21.7067C192.477 21.7067 241.764 70.9991 241.764 131.597C241.764 142.902 240.106 154.057 236.639 164.609C232.419 178.025 225.486 190.536 216.442 201.39C198.204 202.746 180.419 207.118 162.482 209.831C139.873 213.298 111.838 217.67 85.6122 231.99C48.5337 213.449 22.0059 173.051 22.0059 131.597ZM144.847 378.962C144.847 381.977 142.285 384.54 139.271 384.54H27.5828C24.5683 384.54 22.0059 381.977 22.0059 378.962V357.105C22.0059 354.09 24.5683 351.528 27.5828 351.528H139.271C142.285 351.528 144.847 354.09 144.847 357.105V378.962ZM364.756 173.201C364.756 173.201 364.455 173.503 364.455 173.653C364.153 173.955 341.394 205.761 313.509 238.472C265.88 294.095 243.271 306.305 234.077 308.566C182.077 321.379 143.792 329.972 143.34 329.972C141.984 329.821 140.778 329.519 139.421 329.519H38.1336C62.8526 247.667 119.827 238.774 166.1 231.689C185.996 228.674 206.193 222.946 226.39 223.247C226.39 223.247 226.691 223.549 226.842 223.247C236.489 223.549 243.271 225.81 245.08 231.99C246.587 237.266 245.532 240.13 244.477 241.788C241.161 247.516 231.665 250.833 228.802 251.436L151.329 267.414C145.3 268.62 141.531 274.499 142.737 280.378C143.943 286.408 149.821 290.176 155.7 288.97L233.173 272.992C235.283 272.539 254.274 268.168 263.167 253.094C267.99 245.105 268.895 235.608 265.88 225.659C265.277 223.549 264.373 221.438 263.167 219.177C270.402 212.846 284.419 199.882 311.851 173.955C347.724 139.888 363.55 149.234 364.756 149.987C374.403 159.032 366.113 170.789 364.455 173.051L364.756 173.201Z" fill="#0C0C0C"/>
<path d="M170.772 187.069C173.636 184.054 174.088 179.381 171.827 175.914L143.943 129.034V107.327H146.053C148.766 107.327 151.027 105.066 151.027 102.202C151.027 99.338 148.766 97.077 146.053 97.077H117.566C114.853 97.077 112.592 99.338 112.592 102.202C112.592 105.066 114.853 107.327 117.566 107.327H119.676V129.034L91.792 175.914C89.5311 179.381 89.9832 184.205 92.847 187.22C94.505 188.878 96.6152 189.783 98.8761 189.933H164.592C166.853 189.933 168.964 189.029 170.622 187.22L170.772 187.069ZM114.702 157.223L129.775 131.898V107.177H134.297V131.898L149.369 157.223H114.853H114.702Z" fill="#0C0C0C"/>
<path d="M114.702 90.1432C119.78 90.1432 123.897 86.0264 123.897 80.948C123.897 75.8696 119.78 71.7528 114.702 71.7528C109.624 71.7528 105.508 75.8696 105.508 80.948C105.508 86.0264 109.624 90.1432 114.702 90.1432Z" fill="#0C0C0C"/>
<path d="M149.369 90.1432C154.447 90.1432 158.563 86.0264 158.563 80.948C158.563 75.8696 154.447 71.7528 149.369 71.7528C144.291 71.7528 140.175 75.8696 140.175 80.948C140.175 86.0264 144.291 90.1432 149.369 90.1432Z" fill="#0C0C0C"/>
<path d="M132.036 67.9843C135.352 67.9843 138.065 65.2708 138.065 61.9545C138.065 58.6382 135.352 55.925 132.036 55.925C128.72 55.925 126.007 58.6382 126.007 61.9545C126.007 65.2708 128.72 67.9843 132.036 67.9843Z" fill="#0C0C0C"/>
</svg>
