<svg width="391" height="398" viewBox="0 0 391 398" fill="none" xmlns="http://www.w3.org/2000/svg">
<path d="M286.26 253.725L223.4 153.471V103.57H231.39C235.761 103.57 239.379 99.9523 239.379 95.5803C239.379 91.2083 235.761 87.5902 231.39 87.5902H167.475C163.103 87.5902 159.486 91.2083 159.486 95.5803C159.486 99.9523 163.103 103.57 167.475 103.57H175.464V153.471L112.605 253.725C108.384 260.057 109.138 268.499 114.715 274.077C117.881 277.243 121.951 278.751 126.021 278.751H273.145C277.215 278.751 281.285 277.092 284.451 274.077C290.028 268.499 290.631 260.057 286.561 253.725H286.26ZM155.265 215.583L191.292 158.145V103.721H207.422V158.145L243.449 215.583H155.114H155.265Z" fill="#0C0C0C"/>
<path d="M199.432 20.8046C205.177 20.8046 209.833 16.1473 209.833 10.4023C209.833 4.65729 205.177 0 199.432 0C193.688 0 189.031 4.65729 189.031 10.4023C189.031 16.1473 193.688 20.8046 199.432 20.8046Z" fill="#0C0C0C"/>
<path d="M160.541 65.7303C168.783 65.7303 175.464 59.0481 175.464 50.8052C175.464 42.5624 168.783 35.8804 160.541 35.8804C152.299 35.8804 145.617 42.5624 145.617 50.8052C145.617 59.0481 152.299 65.7303 160.541 65.7303Z" fill="#0C0C0C"/>
<path d="M238.324 65.7303C246.566 65.7303 253.247 59.0481 253.247 50.8052C253.247 42.5624 246.566 35.8804 238.324 35.8804C230.082 35.8804 223.4 42.5624 223.4 50.8052C223.4 59.0481 230.082 65.7303 238.324 65.7303Z" fill="#0C0C0C"/>
<path d="M279.929 308.299H37.8364C16.8832 308.299 0 325.335 0 346.139C0 367.095 17.0339 383.979 37.8364 383.979H278.723C272.241 373.125 268.472 360.612 268.472 347.044C268.472 332.722 272.693 319.455 279.929 308.148V308.299Z" fill="#0C0C0C"/>
<path d="M339.774 296.389C311.736 296.389 288.973 319.154 288.973 347.195C288.973 375.236 311.736 398 339.774 398C367.812 398 390.574 375.236 390.574 347.195C390.574 319.154 367.812 296.389 339.774 296.389ZM361.631 352.471H346.255V367.848C346.255 371.316 343.542 374.03 340.075 374.03C336.608 374.03 333.895 371.316 333.895 367.848V352.471H318.519C315.052 352.471 312.338 349.758 312.338 346.29C312.338 342.823 315.052 340.109 318.519 340.109H333.895V324.732C333.895 321.264 336.608 318.551 340.075 318.551C343.542 318.551 346.255 321.264 346.255 324.732V340.109H361.631C365.098 340.109 367.812 342.823 367.812 346.29C367.812 349.758 365.098 352.471 361.631 352.471Z" fill="#0C0C0C"/>
</svg>
