<svg width="391" height="407" viewBox="0 0 391 407" fill="none" xmlns="http://www.w3.org/2000/svg">
<path d="M196.744 378.974L126.641 267.25V211.615H135.536C140.36 211.615 144.43 207.694 144.43 202.719C144.43 197.743 140.511 193.823 135.536 193.823H64.2265C59.4022 193.823 55.3317 197.743 55.3317 202.719C55.3317 207.694 59.2515 211.615 64.2265 211.615H73.1213V267.25L3.01836 378.974C-1.65517 385.91 -0.90147 395.408 5.27966 401.59C8.74712 405.058 13.2699 406.867 17.7927 406.867H181.668C186.191 406.867 190.713 405.058 194.181 401.59C200.362 395.408 201.116 385.91 196.442 378.974H196.744ZM50.6582 336.456L90.7602 272.377V211.615H108.851V272.377L148.953 336.456H50.6582Z" fill="#0C0C0C"/>
<path d="M99.9564 119.492C106.368 119.492 111.565 114.294 111.565 107.882C111.565 101.47 106.368 96.2724 99.9564 96.2724C93.5452 96.2724 88.348 101.47 88.348 107.882C88.348 114.294 93.5452 119.492 99.9564 119.492Z" fill="#0C0C0C"/>
<path d="M56.6886 169.398C65.8474 169.398 73.2721 161.973 73.2721 152.813C73.2721 143.653 65.8474 136.228 56.6886 136.228C47.5298 136.228 40.1051 143.653 40.1051 152.813C40.1051 161.973 47.5298 169.398 56.6886 169.398Z" fill="#0C0C0C"/>
<path d="M143.224 169.398C152.383 169.398 159.808 161.973 159.808 152.813C159.808 143.653 152.383 136.228 143.224 136.228C134.065 136.228 126.641 143.653 126.641 152.813C126.641 161.973 134.065 169.398 143.224 169.398Z" fill="#0C0C0C"/>
<path d="M382.931 1.28464C375.996 -1.88161 367.855 0.983132 364.69 7.91875L271.068 208.901L222.373 160.502C215.438 153.567 202.774 154.019 198.402 163.518L145.033 278.106L162.521 305.848L215.438 192.316L265.641 242.222C268.505 245.087 272.726 246.594 276.797 246.142C281.47 245.539 285.692 242.523 287.802 238.302L389.715 19.5284C392.881 12.5928 390.017 4.4509 383.082 1.28464H382.931Z" fill="#0C0C0C"/>
</svg>
