<svg width="392" height="270" viewBox="0 0 392 270" fill="none" xmlns="http://www.w3.org/2000/svg">
<path d="M281.038 23.6343L203.347 180.803C186.964 177.596 169.906 185.53 162.137 201.061C154.368 216.592 158.59 234.993 171.088 246.135L166.359 255.758C163.995 260.654 166.022 266.562 170.751 268.926C175.48 271.289 181.56 269.263 183.924 264.536L188.653 254.914C205.036 258.121 222.094 250.187 229.863 234.656C237.632 219.125 233.41 200.724 220.912 189.582L298.602 32.4129C300.967 27.5172 298.94 21.6086 294.211 19.2452C289.482 16.8817 283.402 18.9074 281.038 23.6343ZM215.845 227.734C210.44 238.539 197.267 243.097 186.289 237.694C175.311 232.292 170.919 219.125 176.324 208.151C181.729 197.178 194.902 192.789 205.88 198.191C216.858 203.593 221.249 216.761 215.845 227.734Z" fill="#0C0C0C"/>
<path d="M259.926 10.6354C239.49 3.54511 217.872 0 196.084 0C87.9931 0 0 87.9536 0 195.997C0 214.398 2.53334 232.63 7.60012 250.187C9.12016 255.758 14.3559 259.641 20.0982 259.641C21.2805 259.641 22.6316 259.472 23.6449 259.134C27.0228 258.121 29.7251 255.927 31.414 252.888C33.1029 249.849 33.4408 246.304 32.5963 242.928C28.2051 227.734 26.0094 211.865 26.0094 195.997C26.0094 102.303 102.18 26.1666 195.916 26.1666C214.832 26.1666 233.41 29.2053 251.143 35.2827C254.521 36.4644 258.068 36.1268 261.108 34.6074C264.317 33.0881 266.682 30.387 267.695 27.1794C268.877 23.8031 268.539 20.258 267.019 17.2193C265.499 14.0118 262.797 11.6483 259.588 10.6354H259.926Z" fill="#0C0C0C"/>
<path d="M325.456 48.6192C322.754 46.2557 319.545 45.2428 315.998 45.4116C312.452 45.5804 309.243 47.2686 307.047 49.8009C304.682 52.5019 303.5 55.7094 303.838 59.2546C304.007 62.7997 305.696 65.8384 308.229 68.2019C344.879 100.446 365.991 147.04 365.991 195.828C365.991 211.865 363.795 227.734 359.404 242.759C358.39 246.135 358.897 249.68 360.586 252.719C362.275 255.758 364.977 257.952 368.355 258.965C369.537 259.303 370.72 259.472 371.902 259.472C377.644 259.472 382.88 255.589 384.4 250.018C389.467 232.461 392 214.229 392 195.828C392 139.443 367.679 85.9277 325.287 48.6192H325.456Z" fill="#0C0C0C"/>
<path d="M232.396 58.2415C220.574 55.2028 208.414 53.5147 196.084 53.5147C117.549 53.5147 53.7078 117.328 53.7078 195.827C53.7078 215.241 57.5923 233.98 65.0236 251.537C67.0503 256.433 71.7793 259.471 77.015 259.471C78.7039 259.471 80.5617 259.134 82.0818 258.459C85.2907 257.108 87.8241 254.576 89.1753 251.368C90.5264 248.161 90.5264 244.616 89.1753 241.408C83.0951 227.059 79.8862 211.696 79.8862 195.996C79.8862 131.846 132.074 79.6812 196.253 79.6812C206.218 79.6812 216.352 81.0318 225.978 83.5641C229.356 84.4082 232.903 83.9017 235.943 82.2135C238.983 80.5253 241.179 77.6554 242.023 74.2791C243.881 67.3576 239.659 60.0985 232.734 58.2415H232.396Z" fill="#0C0C0C"/>
<path d="M280.193 96.9012C277.66 99.2646 276.308 102.641 276.14 106.017C275.971 109.394 277.322 112.77 279.855 115.302C300.798 137.08 312.283 165.61 312.283 195.828C312.283 211.528 309.243 226.722 303.162 241.071C300.291 247.655 303.5 255.42 310.087 258.121C311.776 258.797 313.465 259.134 315.154 259.134C320.39 259.134 325.119 255.927 327.145 251.2C334.577 233.643 338.292 214.904 338.292 195.828C338.292 158.857 324.105 123.743 298.433 97.07C293.536 91.8367 285.091 91.6678 280.024 96.7323L280.193 96.9012Z" fill="#0C0C0C"/>
</svg>
