<svg width="194" height="188" viewBox="0 0 194 188" fill="none" xmlns="http://www.w3.org/2000/svg">
<g clip-path="url(#clip0_248_42)">
<path d="M160.96 70.06C179.08 70.06 193.74 55.39 193.74 37.26C193.74 19.13 179.08 4.45996 160.96 4.45996C142.84 4.45996 128.18 19.13 128.18 37.26C128.18 55.39 142.84 70.06 160.96 70.06ZM147.22 32.63H157.16V22.68C157.16 20.49 158.93 18.63 161.21 18.63C163.49 18.63 165.25 20.4 165.25 22.68V32.63H175.19C177.38 32.63 179.23 34.4 179.23 36.68C179.23 38.96 177.46 40.73 175.19 40.73H165.25V50.68C165.25 52.87 163.48 54.73 161.21 54.73C158.94 54.73 157.16 52.96 157.16 50.68V40.73H147.22C145.03 40.73 143.18 38.96 143.18 36.68C143.18 34.4 144.95 32.63 147.22 32.63Z" fill="#0C0C0C"/>
<path d="M96.15 76.5498H91.26V97.7998H91.35L78.2 119.89H109.3L96.15 97.7998V76.5498Z" fill="#0C0C0C"/>
<path d="M120.17 37.27C120.17 25.95 124.8 15.7 132.27 8.3C120.5 2.97 107.43 0 93.67 0C41.94 0 0 41.94 0 93.67C0 145.4 41.94 187.34 93.67 187.34C145.4 187.34 187.34 145.4 187.34 93.67C187.34 85.7 186.34 77.96 184.47 70.58C177.82 75.29 169.71 78.07 160.97 78.07C138.48 78.07 120.19 59.77 120.19 37.27H120.17ZM108 49C111.04 49 113.5 51.44 113.5 54.5C113.5 57.56 111.04 60 108 60C104.96 60 102.5 57.56 102.5 54.5C102.5 51.44 104.96 49 108 49ZM93.5 35C95.67 35 97.5 36.8 97.5 39C97.5 41.2 95.67 43 93.5 43C91.33 43 89.5 41.2 89.5 39C89.5 36.8 91.33 35 93.5 35ZM79 49C82.04 49 84.5 51.44 84.5 54.5C84.5 57.56 82.04 60 79 60C75.96 60 73.5 57.56 73.5 54.5C73.5 51.44 75.96 49 79 49ZM126.15 144.26C124.89 145.61 123.2 146.37 121.43 146.37H65.98C64.21 146.29 62.52 145.61 61.26 144.26C59.07 141.9 58.65 138.19 60.42 135.41L84.02 95.62V76.57H81.66C79.64 76.57 78.04 74.88 78.04 72.78C78.04 70.68 79.64 68.99 81.66 68.99H105.76C107.78 68.99 109.38 70.68 109.38 72.78C109.38 74.88 107.78 76.57 105.76 76.57H103.4V95.62L127 135.41C128.77 138.19 128.35 141.9 126.16 144.26H126.15Z" fill="#0C0C0C"/>
</g>
<defs>
<clipPath id="clip0_248_42">
<rect width="193.74" height="187.33" fill="white"/>
</clipPath>
</defs>
</svg>
