<svg width="194" height="187" viewBox="0 0 194 187" fill="none" xmlns="http://www.w3.org/2000/svg">
<path d="M160.456 70.0618C178.574 70.0618 193.238 55.3919 193.238 37.2652C193.238 19.1385 178.574 4.46851 160.456 4.46851C142.337 4.46851 127.674 19.1385 127.674 37.2652C127.674 55.3919 142.337 70.0618 160.456 70.0618ZM146.719 32.6281H156.664V22.6795C156.664 20.4874 158.433 18.6326 160.709 18.6326C162.984 18.6326 164.754 20.4031 164.754 22.6795V32.6281H174.698C176.889 32.6281 178.743 34.3986 178.743 36.675C178.743 38.9514 176.973 40.7219 174.698 40.7219H164.754V50.6705C164.754 52.8626 162.984 54.7174 160.709 54.7174C158.433 54.7174 156.664 52.9469 156.664 50.6705V40.7219H146.719C144.528 40.7219 142.674 38.9514 142.674 36.675C142.674 34.3986 144.444 32.6281 146.719 32.6281Z" fill="#0C0C0C"/>
<path d="M60.7608 144.255C62.0249 145.604 63.7104 146.278 65.4801 146.363H120.932C122.701 146.363 124.387 145.604 125.651 144.255C127.842 141.894 128.264 138.184 126.494 135.402L102.897 95.6078V76.5537H105.257C107.28 76.5537 108.881 74.8675 108.881 72.7598C108.881 70.652 107.28 68.9658 105.257 68.9658H81.1549C79.1323 68.9658 77.5312 70.652 77.5312 72.7598C77.5312 74.8675 79.1323 76.5537 81.1549 76.5537H83.5145V95.6078L59.9181 135.402C58.1484 138.184 58.5697 141.894 60.7608 144.255ZM90.8463 97.7999V76.5537H95.7341V97.7999L108.881 119.889H77.784L90.9306 97.7999H90.8463Z" fill="#0C0C0C"/>
<path d="M97.1668 38.7828C97.1668 36.5064 95.397 34.6516 93.2902 34.6516C91.1834 34.6516 89.4137 36.5064 89.4137 38.7828C89.4137 41.0592 91.1834 42.914 93.2902 42.914C95.397 42.914 97.1668 41.0592 97.1668 38.7828Z" fill="#0C0C0C"/>
<path d="M84.1887 54.8861C84.1887 51.598 81.6605 48.9844 78.5424 48.9844C75.4243 48.9844 72.8961 51.598 72.8961 54.8861C72.8961 58.1742 75.4243 60.7878 78.5424 60.7878C81.6605 60.7878 84.1887 58.1742 84.1887 54.8861Z" fill="#0C0C0C"/>
<path d="M113.516 54.8861C113.516 51.598 110.988 48.9844 107.869 48.9844C104.751 48.9844 102.223 51.598 102.223 54.8861C102.223 58.1742 104.751 60.7878 107.869 60.7878C110.988 60.7878 113.516 58.1742 113.516 54.8861Z" fill="#0C0C0C"/>
<path d="M93.4588 187C41.968 187 0 145.098 0 93.5C0 41.9022 41.968 0 93.4588 0C102.897 0 112.252 1.43327 121.185 4.21551C124.555 5.22723 126.409 8.76826 125.314 12.1407C124.303 15.5131 120.763 17.3679 117.392 16.2719C109.639 13.8269 101.549 12.6465 93.3745 12.6465C48.8783 12.6465 12.6409 48.8999 12.6409 93.5C12.6409 138.1 48.8783 174.353 93.4588 174.353C138.039 174.353 174.277 138.1 174.277 93.5C174.277 90.8021 174.108 88.1041 173.855 85.4062C173.518 81.9495 176.046 78.83 179.501 78.4928C182.957 78.0712 186.075 80.6848 186.412 84.1416C186.749 87.1767 186.918 90.2962 186.918 93.5C186.918 145.098 144.95 187 93.4588 187Z" fill="#0C0C0C"/>
</svg>
