<svg width="578" height="578" viewBox="0 0 578 578" fill="none" xmlns="http://www.w3.org/2000/svg">
<g clip-path="url(#clip0_1_98)">
<path d="M289 578C448.61 578 578 448.61 578 289C578 129.39 448.61 0 289 0C129.39 0 0 129.39 0 289C0 448.61 129.39 578 289 578Z" fill="#F2A900"/>
<path d="M228.759 376.474L277.96 298.011V223.649H300.041V298.004L349.242 376.466H228.761V376.474H228.759ZM407.567 428.608L321.763 291.754V223.649H332.631C338.633 223.649 343.499 218.783 343.499 212.781C343.499 206.78 338.633 201.914 332.631 201.914H293.63H289.382H245.354C239.352 201.914 234.486 206.78 234.486 212.781C234.486 218.783 239.352 223.649 245.354 223.649H256.222V291.754L170.418 428.608C164.761 437.148 165.691 448.769 173.218 456.295C177.478 460.555 183.046 462.699 188.634 462.737H389.357C394.937 462.699 400.511 460.555 404.773 456.295C412.294 448.769 413.231 437.148 407.567 428.608Z" fill="white"/>
<path d="M288.993 110.638C296.809 110.638 303.146 104.301 303.146 96.4848C303.146 88.6682 296.809 82.3315 288.993 82.3315C281.176 82.3315 274.839 88.6682 274.839 96.4848C274.839 104.301 281.176 110.638 288.993 110.638Z" fill="white"/>
<path d="M235.999 171.879C247.214 171.879 256.306 162.787 256.306 151.571C256.306 140.356 247.214 131.263 235.999 131.263C224.783 131.263 215.691 140.356 215.691 151.571C215.691 162.787 224.783 171.879 235.999 171.879Z" fill="white"/>
<path d="M362.086 154.823C363.883 143.752 356.365 133.321 345.294 131.524C334.223 129.727 323.792 137.245 321.995 148.316C320.198 159.387 327.716 169.819 338.787 171.615C349.858 173.412 360.29 165.894 362.086 154.823Z" fill="white"/>
</g>
<defs>
<clipPath id="clip0_1_98">
<rect width="289" height="289" fill="white" transform="scale(2)"/>
</clipPath>
</defs>
</svg>
