<svg width="580" height="578" viewBox="0 0 580 578" fill="none" xmlns="http://www.w3.org/2000/svg">
<g clip-path="url(#clip0_1_110)">
<path d="M290 578C450.163 578 580 448.61 580 289C580 129.39 450.163 0 290 0C129.837 0 0 129.39 0 289C0 448.61 129.837 578 290 578Z" fill="#E3A44A"/>
<path d="M229.551 376.474L278.922 298.011V223.649H301.079V298.004L350.45 376.466H229.552V376.474H229.551ZM408.977 428.608L322.877 291.754V223.649H333.782C339.805 223.649 344.687 218.783 344.687 212.781C344.687 206.78 339.805 201.914 333.782 201.914H294.646H290.384H246.203C240.181 201.914 235.298 206.78 235.298 212.781C235.298 218.783 240.181 223.649 246.203 223.649H257.109V291.754L171.008 428.608C165.331 437.148 166.265 448.769 173.817 456.295C178.092 460.555 183.679 462.699 189.286 462.737H390.704C396.304 462.699 401.897 460.555 406.173 456.295C413.721 448.769 414.661 437.148 408.977 428.608Z" fill="white"/>
<path d="M289.993 110.638C297.836 110.638 304.195 104.301 304.195 96.4848C304.195 88.6682 297.836 82.3315 289.993 82.3315C282.149 82.3315 275.79 88.6682 275.79 96.4848C275.79 104.301 282.149 110.638 289.993 110.638Z" fill="white"/>
<path d="M236.815 171.879C248.07 171.879 257.193 162.787 257.193 151.571C257.193 140.356 248.07 131.263 236.815 131.263C225.561 131.263 216.437 140.356 216.437 151.571C216.437 162.787 225.561 171.879 236.815 171.879Z" fill="white"/>
<path d="M363.339 154.823C365.142 143.752 357.598 133.321 346.489 131.524C335.379 129.727 324.912 137.245 323.109 148.316C321.306 159.387 328.85 169.819 339.96 171.615C351.069 173.412 361.536 165.894 363.339 154.823Z" fill="white"/>
</g>
<defs>
<clipPath id="clip0_1_110">
<rect width="290" height="289" fill="white" transform="scale(2)"/>
</clipPath>
</defs>
</svg>
