<svg width="394" height="410" viewBox="0 0 394 410" fill="none" xmlns="http://www.w3.org/2000/svg">
<path d="M334.031 175.822C328 175.822 323.024 180.798 323.024 186.83V382.405C323.024 385.421 320.461 387.985 317.446 387.985H261.659V266.146C261.659 250.916 249.295 238.551 234.067 238.551H158.528C143.3 238.551 130.936 250.916 130.936 266.146V387.985H75.6015C72.5859 387.985 70.0227 385.421 70.0227 382.405V186.83C70.0227 180.798 65.0471 175.822 59.016 175.822C52.985 175.822 48.0095 180.798 48.0095 186.83V382.405C48.0095 397.635 60.3731 410 75.6015 410H317.295C332.523 410 344.887 397.635 344.887 382.405V186.83C344.887 180.798 339.911 175.822 333.88 175.822H334.031ZM158.679 260.566H234.217C237.233 260.566 239.796 263.13 239.796 266.146V387.985H153.251V266.146C153.251 263.13 155.814 260.566 158.83 260.566H158.679Z" fill="#0C0C0C"/>
<path d="M389.969 174.767L204.213 2.71423C200.293 -0.904745 193.206 -0.904745 189.286 2.71423L3.53053 174.767C-0.992742 178.838 -1.14342 185.925 2.92753 190.298C5.03839 192.711 8.0538 193.766 11.0693 193.766C13.7833 193.766 16.4972 192.861 18.6081 190.901L196.976 25.7852L375.343 190.901C377.454 192.861 380.168 193.766 382.882 193.766C385.898 193.766 388.762 192.56 391.024 190.298C395.095 185.774 394.944 178.838 390.421 174.767H389.969Z" fill="#0C0C0C"/>
</svg>
