<svg width="394" height="410" viewBox="0 0 394 410" fill="none" xmlns="http://www.w3.org/2000/svg">
<path d="M334.059 175.908C328.03 175.908 323.057 180.882 323.057 186.912V382.415C323.057 385.43 320.494 387.993 317.48 387.993H261.713V266.199C261.713 250.974 249.354 238.614 234.131 238.614H158.621C143.398 238.614 131.039 250.974 131.039 266.199V387.993H75.7245C72.7101 387.993 70.148 385.43 70.148 382.415V186.912C70.148 180.882 65.174 175.908 59.1452 175.908C53.1164 175.908 48.1427 180.882 48.1427 186.912V382.415C48.1427 397.64 60.5018 410 75.7245 410H317.329C332.552 410 344.911 397.64 344.911 382.415V186.912C344.911 180.882 339.937 175.908 333.908 175.908H334.059Z" fill="#0C0C0C"/>
<path d="M389.976 174.853L204.289 2.86395C202.48 1.05513 199.466 0.150735 196.903 0C194.341 0 191.176 1.05513 189.217 2.86395L3.52923 174.853C-0.992377 178.923 -1.143 186.007 2.92645 190.379C5.03654 192.79 8.05084 193.846 11.0652 193.846C13.7782 193.846 16.4912 192.941 18.6013 190.982L196.903 25.9264L375.205 190.982C377.316 192.941 380.028 193.846 382.741 193.846C385.756 193.846 388.77 192.489 390.88 190.379C394.95 185.857 394.799 178.923 390.277 174.853H389.976Z" fill="#0C0C0C"/>
</svg>
