<svg width="394" height="408" viewBox="0 0 394 408" fill="none" xmlns="http://www.w3.org/2000/svg">
<path d="M333.875 188.702C327.847 188.702 322.874 193.676 322.874 199.705V380.418C322.874 383.433 320.312 385.995 317.298 385.995H261.536V264.213C261.536 248.99 249.179 236.631 233.957 236.631H158.454C143.233 236.631 130.875 248.99 130.875 264.213V385.995H75.5661C72.552 385.995 69.9901 383.433 69.9901 380.418V199.705C69.9901 193.676 65.0169 188.702 58.9887 188.702C52.9604 188.702 47.987 193.676 47.987 199.705V380.418C47.987 395.641 60.3449 408 75.5661 408H317.147C332.368 408 344.726 395.641 344.726 380.418V199.705C344.726 193.676 339.753 188.702 333.724 188.702H333.875ZM158.605 258.787H234.108C237.122 258.787 239.684 261.349 239.684 264.364V386.146H153.179V264.364C153.179 261.349 155.741 258.787 158.756 258.787H158.605Z" fill="#0C0C0C"/>
<path d="M276.306 57.123C282.334 57.123 287.307 52.1492 287.307 46.1204V22.0052H322.723V95.2553C322.723 101.284 327.696 106.258 333.724 106.258C339.753 106.258 344.726 101.284 344.726 95.2553V11.0026C344.726 4.97377 339.753 0 333.724 0H276.155C270.127 0 265.153 4.97377 265.153 11.0026V46.1204C265.153 52.1492 270.127 57.123 276.155 57.123H276.306Z" fill="#0C0C0C"/>
<path d="M389.787 188.4L204.118 16.4285C203.213 15.5242 200.651 13.7155 197.034 13.7155C192.212 13.7155 189.349 16.2778 189.198 16.4285L3.52888 188.4C-0.992278 192.47 -1.14288 199.554 2.92616 203.925C5.03604 206.336 8.05004 207.391 11.0641 207.391C13.7768 207.391 16.4895 206.487 18.5994 204.528L196.884 39.4887L375.168 204.528C377.278 206.487 379.991 207.391 382.704 207.391C385.718 207.391 388.581 206.185 390.842 203.925C394.911 199.403 394.76 192.47 390.239 188.4H389.787Z" fill="#0C0C0C"/>
</svg>
