<svg width="391" height="407" viewBox="0 0 391 407" fill="none" xmlns="http://www.w3.org/2000/svg">
<path d="M350.469 0H85.8845C63.5847 0 45.3531 18.2335 45.3531 40.5355V83.3313H15.8208C7.08174 83.3313 0 90.4136 0 99.1536C0 107.894 7.08174 114.976 15.8208 114.976H45.3531V188.512H15.8208C7.08174 188.512 0 195.595 0 204.335C0 213.075 7.08174 220.157 15.8208 220.157H45.3531V293.694H15.8208C7.08174 293.694 0 300.776 0 309.516C0 318.256 7.08174 325.338 15.8208 325.338H45.3531V366.175C45.3531 388.477 63.5847 406.711 85.8845 406.711H350.469C372.768 406.711 391 388.477 391 366.175V40.8369C391 18.5349 372.768 0.301443 350.469 0.301443V0ZM369.001 366.024C369.001 376.271 360.714 384.559 350.469 384.559H85.8845C75.6387 384.559 67.3514 376.271 67.3514 366.024V325.188H71.8717C80.6108 325.188 87.6926 318.105 87.6926 309.365C87.6926 300.625 80.6108 293.543 71.8717 293.543H67.3514V220.007H71.8717C80.6108 220.007 87.6926 212.924 87.6926 204.184C87.6926 195.444 80.6108 188.362 71.8717 188.362H67.3514V114.825H71.8717C80.6108 114.825 87.6926 107.743 87.6926 99.0029C87.6926 90.2629 80.6108 83.1806 71.8717 83.1806H67.3514V40.3848C67.3514 30.1379 75.6387 21.85 85.8845 21.85H350.469C360.714 21.85 369.001 30.1379 369.001 40.3848V365.723V366.024Z" fill="#0C0C0C"/>
<path d="M320.183 130.346H128.827C122.8 130.346 117.827 135.319 117.827 141.347C117.827 147.374 122.8 152.347 128.827 152.347H320.183C326.21 152.347 331.182 147.374 331.182 141.347C331.182 135.319 326.21 130.346 320.183 130.346Z" fill="#0C0C0C"/>
<path d="M271.515 193.335H128.676C122.649 193.335 117.677 198.307 117.677 204.335C117.677 210.363 122.649 215.335 128.676 215.335H271.515C277.542 215.335 282.514 210.363 282.514 204.335C282.514 198.307 277.542 193.335 271.515 193.335Z" fill="#0C0C0C"/>
<path d="M203.712 256.172H128.827C122.8 256.172 117.827 261.145 117.827 267.172C117.827 273.2 122.8 278.173 128.827 278.173H203.712C209.739 278.173 214.711 273.2 214.711 267.172C214.711 261.145 209.739 256.172 203.712 256.172Z" fill="#0C0C0C"/>
</svg>
