<svg width="392" height="407" viewBox="0 0 392 407" fill="none" xmlns="http://www.w3.org/2000/svg">
<path d="M338.957 45.9929H317.094V15.8336C317.094 7.08737 310.007 0 301.262 0C292.516 0 285.429 7.08737 285.429 15.8336V45.9929H211.848V15.8336C211.848 7.08737 204.761 0 196.016 0C187.271 0 180.184 7.08737 180.184 15.8336V45.9929H106.603V15.8336C106.603 7.08737 99.5158 0 90.7705 0C82.0251 0 74.9384 7.08737 74.9384 15.8336V45.9929H53.3766C23.9742 45.9929 0 69.9696 0 99.3749V353.618C0 383.023 23.9742 407 53.3766 407H338.505C367.907 407 391.881 383.023 391.881 353.618V99.3749C391.881 69.9696 367.907 45.9929 338.505 45.9929H338.957ZM370.32 353.618C370.32 370.96 356.297 384.984 338.957 384.984H53.829C36.4891 384.984 22.4664 370.96 22.4664 353.618V99.3749C22.4664 82.0333 36.4891 68.0092 53.829 68.0092H75.3908V71.9299C75.3908 80.6761 82.4775 87.7636 91.2228 87.7636C99.9681 87.7636 107.055 80.6761 107.055 71.9299V68.0092H180.636V71.9299C180.636 80.6761 187.723 87.7636 196.468 87.7636C205.214 87.7636 212.3 80.6761 212.3 71.9299V68.0092H285.882V71.9299C285.882 80.6761 292.969 87.7636 301.714 87.7636C310.459 87.7636 317.546 80.6761 317.546 71.9299V68.0092H339.409C356.749 68.0092 370.772 82.0333 370.772 99.3749V353.618H370.32Z" fill="#0C0C0C"/>
<path d="M301.262 152.455H91.072C85.0407 152.455 80.065 157.432 80.065 163.463C80.065 169.495 85.0407 174.472 91.072 174.472H301.262C307.293 174.472 312.269 169.495 312.269 163.463C312.269 157.432 307.293 152.455 301.262 152.455Z" fill="#0C0C0C"/>
<path d="M247.885 215.489H91.072C85.0407 215.489 80.065 220.465 80.065 226.497C80.065 232.528 85.0407 237.505 91.072 237.505H247.885C253.916 237.505 258.892 232.528 258.892 226.497C258.892 220.465 253.916 215.489 247.885 215.489Z" fill="#0C0C0C"/>
<path d="M173.399 278.371H91.072C85.0407 278.371 80.065 283.347 80.065 289.379C80.065 295.411 85.0407 300.387 91.072 300.387H173.399C179.43 300.387 184.406 295.411 184.406 289.379C184.406 283.347 179.43 278.371 173.399 278.371Z" fill="#0C0C0C"/>
</svg>
