<svg width="391" height="407" viewBox="0 0 391 407" fill="none" xmlns="http://www.w3.org/2000/svg">
<path d="M385.123 188.194C385.123 188.194 385.123 188.194 385.123 188.044C384.67 186.837 384.218 185.782 383.615 184.726L335.817 78.565C335.817 78.565 333.103 74.1918 332.651 73.7394C299.931 41.0165 255.903 21.5638 210.216 18.6986V16.2858C210.216 7.23804 204.034 0 196.495 0C188.956 0 182.774 7.23804 182.774 16.2858V18.5477C136.182 20.6589 90.7971 40.2625 57.4744 73.7394C56.8712 74.3425 54.4586 78.2634 54.3078 78.565L6.51009 184.726C5.90696 185.782 5.45452 186.988 5.00218 188.194C1.08186 197.694 -0.576624 207.647 0.177285 217.901C2.43901 250.624 28.675 276.862 61.3946 279.124C62.9024 279.124 64.4102 279.275 66.0688 279.275C82.8056 279.275 98.6376 273.093 111.002 261.481C124.27 249.116 131.96 231.473 131.96 213.226C131.96 204.48 130.302 196.036 126.985 188.044C126.532 186.837 125.929 185.781 125.477 184.575L79.79 83.2396C108.288 57.6042 145.078 42.3738 183.075 40.4134V380.46H146.737C139.349 380.46 133.468 386.341 133.468 393.73C133.468 401.119 139.349 407 146.737 407H246.856C254.244 407 260.125 401.119 260.125 393.73C260.125 386.341 254.244 380.46 246.856 380.46H210.518V40.5644C247.459 43.1279 283.044 58.2074 310.787 83.2396L265.101 184.575C264.497 185.631 264.045 186.837 263.593 188.044C263.593 188.044 263.593 188.043 263.593 188.194C260.276 196.186 258.617 204.631 258.617 213.377C258.617 231.624 266.307 249.116 279.576 261.632C291.94 273.243 307.772 279.426 324.509 279.426C326.016 279.426 327.524 279.426 329.183 279.275C361.902 277.013 388.289 250.775 390.4 218.052C391.154 207.798 389.495 197.694 385.575 188.194H385.123ZM65.7672 106.613L103.614 190.607H27.9211L65.7672 106.613ZM95.7728 245.497C86.7259 253.942 75.1157 258.013 62.7516 257.259C41.039 255.751 23.3976 238.259 22.0406 216.544C22.0406 215.187 22.1913 213.98 22.1913 212.623H109.645C109.645 212.623 109.645 213.226 109.645 213.528C109.645 225.893 104.669 237.203 95.7728 245.648V245.497ZM362.053 190.456H286.361L324.207 106.462L362.053 190.456ZM327.223 257.259C314.859 258.013 303.098 253.942 294.202 245.497C285.155 237.052 280.33 225.743 280.33 213.377C280.33 213.076 280.33 212.774 280.33 212.473H367.783C367.783 213.83 368.085 215.036 367.934 216.393C366.426 238.108 348.935 255.751 327.223 257.108V257.259Z" fill="#0C0C0C"/>
</svg>
