<svg width="229" height="410" viewBox="0 0 229 410" fill="none" xmlns="http://www.w3.org/2000/svg">
<path d="M226.849 194C231.376 186.911 226.849 176.805 217.795 176.654L151.396 176.352C151.396 176.352 202.1 15.2575 202.1 14.805C205.571 3.64297 190.783 -5.4073 182.935 3.79381C182.935 3.79381 2.75431 214.665 2.4525 215.118C-3.43281 222.207 1.99978 233.369 11.0541 233.369C26.4465 233.369 70.6618 233.671 77.3016 233.671C77.3016 233.671 26.7483 395.369 26.5974 395.52C24.4847 402.307 29.6155 409.698 36.708 410C40.028 410 43.3479 408.643 45.6115 406.078C45.6115 406.078 226.094 194.905 226.094 194.755C226.245 194.453 226.547 194.151 226.698 193.85L226.849 194ZM102.956 226.129C104.012 222.81 103.408 219.039 101.296 216.174C99.1829 213.308 95.863 211.648 92.2412 211.648L34.8972 211.347L164.827 59.3021L125.591 184.045C124.535 187.364 125.139 191.134 127.251 194C129.364 196.866 132.684 198.526 136.306 198.526L193.65 198.827L63.871 350.57L102.805 226.129H102.956Z" fill="#0C0C0C"/>
</svg>
