<svg width="1788" height="432" viewBox="0 0 1788 432" fill="none" xmlns="http://www.w3.org/2000/svg">
<g clip-path="url(#clip0_1_5)">
<path d="M273.74 393.245L176.196 237.833V160.49H188.548C195.369 160.49 200.9 154.965 200.9 148.151C200.9 141.337 195.369 135.812 188.548 135.812H144.213H139.381H89.3324C82.5113 135.812 76.9804 141.337 76.9804 148.151C76.9804 154.965 82.5113 160.49 89.3324 160.49H101.684V237.833L4.14084 393.245C-2.29232 402.944 -1.23139 416.141 7.32362 424.687C12.1669 429.525 18.5001 431.962 24.8451 432.003H253.035C259.38 431.962 265.717 429.525 270.557 424.687C279.112 416.141 280.173 402.942 273.74 393.245ZM70.4591 334.042L126.388 244.932L126.391 160.49H151.492V244.932L207.424 334.042H70.4591Z" fill="#3971FF"/>
<path d="M138.94 32.1527C147.828 32.1527 155.034 24.955 155.034 16.0763C155.034 7.19762 147.828 0 138.94 0C130.052 0 122.847 7.19762 122.847 16.0763C122.847 24.955 130.052 32.1527 138.94 32.1527Z" fill="#3971FF"/>
<path d="M78.6939 101.695C91.4448 101.695 101.782 91.3695 101.782 78.6318C101.782 65.8942 91.4448 55.5684 78.6939 55.5684C65.9429 55.5684 55.6062 65.8942 55.6062 78.6318C55.6062 91.3695 65.9429 101.695 78.6939 101.695Z" fill="#3971FF"/>
<path d="M199.234 101.695C211.985 101.695 222.322 91.3695 222.322 78.6318C222.322 65.8942 211.985 55.5684 199.234 55.5684C186.483 55.5684 176.146 65.8942 176.146 78.6318C176.146 91.3695 186.483 101.695 199.234 101.695Z" fill="#3971FF"/>
<path d="M1780.76 257.75C1775.94 249.107 1769.28 242.445 1760.77 237.772C1752.26 232.954 1742.75 230.547 1732.26 230.547C1723.18 230.547 1714.95 232.461 1707.58 236.286C1700.34 239.971 1694.39 245.425 1689.7 252.653V194.986H1674.6V343.19H1689.07V321.086C1693.61 328.599 1699.56 334.335 1706.94 338.302C1714.46 342.268 1722.9 344.252 1732.26 344.252C1742.76 344.252 1752.26 341.842 1760.77 337.027C1769.28 332.207 1775.95 325.481 1780.77 316.835C1785.59 308.192 1788 298.346 1788 287.289C1788 276.239 1785.59 266.393 1780.76 257.75ZM1767.36 310.036C1763.82 316.694 1758.85 321.867 1752.47 325.551C1746.09 329.095 1738.99 330.865 1731.19 330.865C1723.25 330.865 1716.09 329.095 1709.7 325.551C1703.46 321.867 1698.5 316.697 1694.81 310.036C1691.26 303.378 1689.49 295.794 1689.49 287.292C1689.49 278.79 1691.26 271.21 1694.81 264.552C1698.5 257.893 1703.46 252.791 1709.7 249.248C1716.09 245.563 1723.25 243.722 1731.19 243.722C1738.99 243.722 1746.09 245.563 1752.47 249.248C1758.85 252.791 1763.82 257.891 1767.36 264.552C1771.05 271.21 1772.89 278.793 1772.89 287.292C1772.89 295.794 1771.05 303.375 1767.36 310.036Z" fill="#0C0C0C"/>
<path d="M1651.94 229.287V343.19H1637.47V322.786C1633.5 329.588 1628.04 334.899 1621.09 338.724C1614.14 342.409 1606.2 344.253 1597.26 344.253C1582.65 344.253 1571.09 340.213 1562.58 332.139C1554.21 323.919 1550.03 311.947 1550.03 296.22V229.287H1565.13V294.729C1565.13 306.49 1568.04 315.417 1573.86 321.509C1579.67 327.601 1587.97 330.651 1598.75 330.651C1610.52 330.651 1619.81 327.108 1626.62 320.021C1633.43 312.796 1636.84 302.808 1636.84 290.055V229.287H1651.94Z" fill="#0C0C0C"/>
<path d="M1511.84 260.724H1418.66V194.986H1402.91V343.19H1418.66V274.539H1511.84V343.19H1527.38V194.986H1511.84V260.724Z" fill="#0C0C0C"/>
<path d="M639.428 295.551H553.16C554.712 302.614 558.386 308.186 564.184 312.279C569.976 316.374 577.183 318.42 585.802 318.42C591.736 318.42 596.999 317.54 601.596 315.772C606.183 314.008 610.462 311.219 614.418 307.408L632.013 326.465C621.271 338.748 605.587 344.887 584.956 344.887C572.095 344.887 560.719 342.382 550.83 337.368C540.938 332.36 533.308 325.408 527.936 316.512C522.567 307.62 519.884 297.529 519.884 286.233C519.884 275.082 522.532 265.027 527.83 256.059C533.132 247.096 540.406 240.109 549.663 235.097C558.918 230.089 569.271 227.582 580.715 227.582C591.88 227.582 601.981 229.983 611.029 234.78C620.072 239.583 627.17 246.464 632.33 255.427C637.488 264.393 640.065 274.801 640.065 286.661C640.062 287.081 639.854 290.046 639.428 295.551ZM562.059 258.921C556.972 263.157 553.863 268.947 552.734 276.286H608.905C607.773 269.088 604.667 263.336 599.58 259.03C594.492 254.726 588.274 252.571 580.927 252.571C573.433 252.568 567.149 254.688 562.059 258.921Z" fill="#0C0C0C"/>
<path d="M672.704 341.393C663.658 339.065 656.452 336.138 651.086 332.609L662.11 308.894C667.197 312.141 673.342 314.789 680.551 316.835C687.757 318.881 694.822 319.906 701.749 319.906C715.738 319.906 722.732 316.448 722.732 309.531C722.732 306.287 720.822 303.956 717.007 302.544C713.193 301.135 707.327 299.934 699.415 298.944C690.09 297.535 682.385 295.909 676.31 294.074C670.236 292.242 664.972 288.992 660.52 284.336C656.067 279.677 653.843 273.045 653.843 264.431C653.843 257.233 655.926 250.848 660.097 245.27C664.261 239.695 670.341 235.353 678.326 232.249C686.308 229.146 695.739 227.59 706.624 227.59C714.677 227.59 722.694 228.471 730.682 230.235C738.664 232.003 745.27 234.437 750.499 237.543L739.475 261.046C729.442 255.401 718.492 252.574 706.624 252.574C699.554 252.574 694.258 253.563 690.725 255.542C687.193 257.521 685.427 260.06 685.427 263.163C685.427 266.692 687.334 269.167 691.148 270.573C694.966 271.985 701.038 273.327 709.378 274.598C718.703 276.154 726.335 277.813 732.272 279.574C738.205 281.342 743.363 284.547 747.745 289.206C752.124 293.866 754.313 300.362 754.313 308.685C754.313 315.749 752.194 322.026 747.957 327.53C743.716 333.035 737.532 337.306 729.406 340.342C721.278 343.375 711.635 344.895 700.473 344.895C691.004 344.889 681.747 343.724 672.704 341.393Z" fill="#0C0C0C"/>
<path d="M885.727 295.551H799.457C801.009 302.614 804.682 308.186 810.481 312.279C816.273 316.374 823.479 318.42 832.099 318.42C838.032 318.42 843.296 317.54 847.892 315.772C852.48 314.008 856.759 311.219 860.715 307.408L878.309 326.465C867.568 338.748 851.883 344.887 831.253 344.887C818.392 344.887 807.016 342.382 797.127 337.368C787.234 332.36 779.605 325.408 774.233 316.512C768.864 307.62 766.18 297.529 766.18 286.233C766.18 275.082 768.828 265.027 774.127 256.059C779.429 247.096 786.702 240.109 795.96 235.097C805.214 230.089 815.568 227.582 827.012 227.582C838.177 227.582 848.277 229.983 857.326 234.78C866.369 239.583 873.466 246.464 878.627 255.427C883.785 264.393 886.365 274.801 886.365 286.661C886.362 287.081 886.153 290.046 885.727 295.551ZM808.359 258.921C803.272 263.157 800.162 268.947 799.034 276.286H855.204C854.073 269.088 850.966 263.336 845.879 259.03C840.792 254.726 834.573 252.571 827.226 252.571C819.732 252.568 813.449 254.688 808.359 258.921Z" fill="#0C0C0C"/>
<path d="M1161.62 337.371C1151.94 332.362 1144.38 325.411 1138.94 316.515C1133.5 307.623 1130.78 297.532 1130.78 286.235C1130.78 274.944 1133.5 264.851 1138.94 255.956C1144.38 247.06 1151.94 240.111 1161.62 235.1C1171.3 230.092 1182.21 227.584 1194.37 227.584C1206.38 227.584 1216.87 230.092 1225.84 235.1C1234.82 240.111 1241.35 247.275 1245.45 256.59L1219.81 270.356C1213.87 259.91 1205.32 254.688 1194.16 254.688C1185.54 254.688 1178.4 257.515 1172.75 263.157C1167.1 268.803 1164.27 276.497 1164.27 286.235C1164.27 295.976 1167.1 303.671 1172.75 309.317C1178.4 314.962 1185.54 317.786 1194.16 317.786C1205.46 317.786 1214.01 312.566 1219.81 302.118L1245.45 316.092C1241.35 325.129 1234.82 332.183 1225.84 337.268C1216.87 342.35 1206.38 344.889 1194.37 344.889C1182.22 344.889 1171.3 342.385 1161.62 337.371Z" fill="#0C0C0C"/>
<path d="M473.041 295.551C482.789 291.317 490.316 285.211 495.615 277.237C500.913 269.261 503.564 259.767 503.564 248.757C503.564 237.745 500.946 228.222 495.72 220.172C490.492 212.125 483.033 205.916 473.356 201.538C463.675 197.164 452.266 194.974 439.124 194.974H409.239H374.901V343.196H409.239V301.907H439.124H440.82L469.435 343.196H506.318L473.041 295.551ZM460.745 267.814C455.373 272.332 447.529 274.589 437.217 274.589H409.239V222.922H437.217C447.529 222.922 455.373 225.148 460.745 229.596C466.111 234.04 468.797 240.431 468.797 248.757C468.8 256.948 466.114 263.298 460.745 267.814Z" fill="#0C0C0C"/>
<path d="M1097.39 231.818C1091.46 234.313 1086.62 237.854 1082.84 242.437V229.275H1081.39H1049.81H1048.5V343.193H1082.84H1082.87V289.409C1082.87 278.823 1085.56 270.881 1090.93 265.588C1096.3 260.292 1103.71 257.647 1113.19 257.647C1114.46 257.647 1116.93 257.788 1120.6 258.07V227.584C1111.84 227.584 1104.1 228.994 1097.39 231.818Z" fill="#0C0C0C"/>
<path d="M1367.23 240.288C1358.54 231.818 1347.12 227.585 1332.99 227.585C1325.64 227.585 1318.86 228.747 1312.65 231.078C1306.42 233.406 1301.13 236.762 1296.75 241.136V194.974H1296.74H1263.68H1262.4V343.196H1263.68H1296.74H1296.74V286.87C1296.74 276.706 1299.21 269.052 1304.16 263.897C1309.11 258.745 1315.75 256.17 1324.09 256.17C1331.58 256.17 1337.3 258.393 1341.26 262.84C1345.21 267.288 1347.19 274.029 1347.19 283.062V343.198H1380.26V277.977C1380.26 261.325 1375.92 248.757 1367.23 240.288Z" fill="#0C0C0C"/>
<path d="M991.511 229.275H991.015V241.347C982.677 232.17 971.233 227.584 956.677 227.584C946.08 227.584 936.434 230.018 927.744 234.889C919.054 239.759 912.239 246.608 907.29 255.427C902.346 264.249 899.872 274.522 899.872 286.235C899.872 297.955 902.346 308.222 907.29 317.046C912.241 325.869 919.054 332.712 927.744 337.585C936.434 342.456 946.08 344.892 956.677 344.892C971.75 344.892 983.356 340.318 991.511 331.191V337.215V343.198H1025.85V337.215V229.275H991.511ZM983.28 309.211C977.84 314.927 970.881 317.786 962.402 317.786C953.923 317.786 946.964 314.927 941.524 309.211C936.084 303.492 933.363 295.835 933.363 286.235C933.363 276.638 936.087 268.979 941.524 263.263C946.964 257.544 953.923 254.688 962.402 254.688C970.881 254.688 977.84 257.544 983.28 263.263C988.722 268.979 991.438 276.638 991.438 286.235C991.438 295.835 988.719 303.492 983.28 309.211Z" fill="#0C0C0C"/>
</g>
<defs>
<clipPath id="clip0_1_5">
<rect width="894" height="216" fill="white" transform="scale(2)"/>
</clipPath>
</defs>
</svg>
