<svg width="195" height="221" viewBox="0 0 195 221" fill="none" xmlns="http://www.w3.org/2000/svg">
<g clip-path="url(#clip0_346_15)">
<path d="M194.678 198.58C194.678 198.58 194.663 198.55 194.647 198.527L162.214 140.805C163.034 139.115 164.36 137.701 166.062 136.787L174.264 132.4C184.452 126.945 188.438 114.545 183.34 104.158L179.232 95.7985C177.997 93.2785 177.99 90.3821 179.209 87.8544L183.271 79.4724C188.316 69.062 184.26 56.6772 174.05 51.2761L165.824 46.9276C163.341 45.6138 161.639 43.2782 161.148 40.5123L159.515 31.339C157.492 19.9452 146.951 12.3084 135.514 13.9602L126.315 15.2894C123.54 15.6889 120.788 14.8053 118.772 12.8539L112.072 6.39256C103.748 -1.63607 90.7465 -1.59766 82.4676 6.46939L75.8061 12.9691C73.7977 14.9283 71.0457 15.8272 68.2784 15.443L59.0642 14.16C47.627 12.5696 37.125 20.2602 35.1626 31.6616L33.5834 40.8427C33.1081 43.6086 31.414 45.9595 28.938 47.281L20.7357 51.6679C10.548 57.1228 6.56184 69.523 11.6595 79.9103L15.7683 88.2693C17.0102 90.7893 17.0179 93.6857 15.7913 96.2134L11.7285 104.595C6.68449 115.006 10.7396 127.391 20.9504 132.792L29.1756 137.14C30.7394 137.97 31.9966 139.207 32.8322 140.697L0.352625 198.527C0.352625 198.527 0.337293 198.557 0.321962 198.58C-0.90455 200.847 1.59447 203.352 3.92484 202.253L25.2355 192.265C26.9373 191.466 28.9227 192.588 29.1297 194.462L31.667 217.98C31.9506 220.584 35.3925 221.306 36.6957 219.04L64.5912 169.393L68.6846 168.801C71.4596 168.402 74.2116 169.286 76.2277 171.237L82.9275 177.698C87.0746 181.693 92.3793 183.691 97.6916 183.691C103.035 183.691 108.378 181.663 112.532 177.614L119.194 171.114C121.202 169.155 123.947 168.256 126.729 168.64L130.263 169.132L158.304 219.04C159.607 221.314 163.049 220.584 163.333 217.98L165.87 194.462C166.07 192.588 168.055 191.466 169.765 192.265L191.075 202.253C193.406 203.344 195.905 200.839 194.678 198.58ZM110.647 162.302L103.985 168.801C100.474 172.22 94.9627 172.236 91.4364 168.832L84.7366 162.371C80.7198 158.499 75.4918 156.401 70.0261 156.401C69.0066 156.401 67.9717 156.478 66.9369 156.624L57.738 157.953C52.8856 158.645 48.4242 155.418 47.5657 150.585L45.9329 141.412C44.7753 134.889 40.7508 129.373 34.9019 126.277L26.6766 121.928C22.3455 119.639 20.6284 114.391 22.7671 109.973L26.8299 101.591C29.7199 95.6295 29.6969 88.7994 26.7763 82.8528L22.6675 74.4938C20.5057 70.0915 22.1922 64.8364 26.5156 62.5239L34.7179 58.1369C40.5515 55.0177 44.5454 49.4783 45.6646 42.9478L47.2437 33.7668C48.0793 28.9342 52.5254 25.669 57.3777 26.3451L66.5919 27.6281C73.1461 28.5424 79.6236 26.4142 84.361 21.7891L91.0225 15.2894C94.5334 11.8705 100.045 11.8551 103.571 15.2586L110.271 21.72C115.039 26.3143 121.524 28.4118 128.071 27.4668L137.27 26.1376C142.114 25.4385 146.583 28.673 147.442 33.5055L149.075 42.6789C150.232 49.2094 154.257 54.718 160.106 57.8143L168.331 62.1628C172.662 64.4523 174.379 69.6997 172.241 74.1174L168.178 82.4994C165.288 88.4614 165.311 95.2915 168.231 101.238L172.34 109.597C174.502 113.999 172.815 119.262 168.492 121.567L160.29 125.954C154.456 129.073 150.462 134.613 149.335 141.143L147.756 150.324C146.921 155.157 142.475 158.422 137.622 157.746L128.416 156.463C121.869 155.556 115.384 157.677 110.647 162.302Z" fill="#0C0C0C"/>
<path d="M155.384 92.0417C155.384 60.0501 129.42 34.0281 97.5 34.0281C65.58 34.0281 39.6163 60.0578 39.6163 92.0417C39.6163 124.026 65.58 150.055 97.5 150.055C129.42 150.055 155.384 124.033 155.384 92.0417ZM97.5 137.763C72.3489 137.763 51.8814 117.249 51.8814 92.0417C51.8814 66.8341 72.3489 46.3207 97.5 46.3207C122.651 46.3207 143.119 66.8341 143.119 92.0417C143.119 117.249 122.651 137.763 97.5 137.763Z" fill="#0C0C0C"/>
</g>
<defs>
<clipPath id="clip0_346_15">
<rect width="195" height="220" fill="white" transform="translate(0 0.399902)"/>
</clipPath>
</defs>
</svg>
