<svg width="194" height="201" viewBox="0 0 194 201" fill="none" xmlns="http://www.w3.org/2000/svg">
<path d="M173.611 0.594238H43.1262C32.1287 0.594238 23.1375 9.58204 23.1375 20.5754V41.6707H8.57317C4.26333 41.6707 0.770844 45.1619 0.770844 49.4701C0.770844 53.7783 4.26333 57.2694 8.57317 57.2694H23.1375V93.5177H8.57317C4.26333 93.5177 0.770844 97.0089 0.770844 101.317C0.770844 105.625 4.26333 109.116 8.57317 109.116H23.1375V145.365H8.57317C4.26333 145.365 0.770844 148.856 0.770844 153.164C0.770844 157.472 4.26333 160.963 8.57317 160.963H23.1375V181.093C23.1375 192.086 32.1287 201.074 43.1262 201.074H173.611C184.608 201.074 193.599 192.086 193.599 181.093V20.5754C193.599 9.58204 184.608 0.594238 173.611 0.594238ZM101.161 137.714H64.2296C61.2573 137.714 58.8052 135.263 58.8052 132.292C58.8052 129.32 61.2573 126.869 64.2296 126.869H101.161C104.133 126.869 106.585 129.32 106.585 132.292C106.585 135.263 104.133 137.714 101.161 137.714ZM134.673 106.739H64.2296C61.2573 106.739 58.8052 104.288 58.8052 101.317C58.8052 98.3459 61.2573 95.8947 64.2296 95.8947H134.673C137.646 95.8947 140.098 98.3459 140.098 101.317C140.098 104.288 137.646 106.739 134.673 106.739ZM158.675 75.6907H64.3039C61.3316 75.6907 58.8795 73.2395 58.8795 70.2683C58.8795 67.2971 61.3316 64.8459 64.3039 64.8459H158.675C161.647 64.8459 164.099 67.2971 164.099 70.2683C164.099 73.2395 161.647 75.6907 158.675 75.6907Z" fill="#0C0C0C"/>
</svg>
