<svg width="390" height="407" viewBox="0 0 390 407" fill="none" xmlns="http://www.w3.org/2000/svg">
<path d="M387.029 343.792C328.857 283.052 326.597 254.716 321.322 186.44C320.87 181.014 320.418 175.438 319.966 169.409C314.842 107.162 281.234 78.6757 253.957 65.7138C248.381 63.0009 242.955 61.0416 237.681 59.3836C239.037 55.0128 239.64 50.6417 239.64 45.9694C239.64 20.6484 218.993 0 193.675 0C168.357 0 147.71 20.6484 147.71 45.9694C147.71 50.7924 148.464 55.6155 149.971 60.137C145.45 61.6442 140.778 63.453 135.955 65.7138C108.677 78.6757 75.0704 107.162 69.9465 169.409C64.069 241.453 53.3688 259.389 13.2814 326.158C9.66445 332.337 5.74614 338.818 1.52641 345.751C-0.432753 349.218 -0.583458 353.438 1.52641 356.904C3.48557 360.371 7.10247 362.481 11.1715 362.481H125.858C137.914 389.008 164.288 406.642 193.826 406.642C223.364 406.642 249.737 389.008 261.794 362.481H379.042C383.412 362.481 387.481 359.919 389.139 355.849C390.797 351.78 390.043 347.108 387.029 343.942V343.792ZM169.864 46.1202C169.864 32.8569 180.564 22.1558 193.826 22.1558C207.088 22.1558 217.788 32.8569 217.788 46.1202C217.788 48.9839 217.185 51.6969 216.13 54.4099C204.676 52.7519 196.689 52.9026 196.086 52.9026C195.785 52.9026 195.484 53.0532 195.182 53.0532C194.881 53.0532 194.579 52.9026 194.278 52.9026C193.675 52.9026 184.633 52.7519 171.823 54.862C170.768 52.149 170.014 49.1346 170.014 46.1202H169.864ZM193.826 384.486C176.495 384.486 160.671 376.046 151.025 362.33H236.626C226.83 375.895 211.006 384.486 193.826 384.486ZM196.388 340.325H30.6125C31.2154 339.27 31.8181 338.366 32.4209 337.311C72.5084 270.693 85.9211 248.235 92.2507 171.067C100.238 72.9482 189.606 74.6062 193.524 74.7569C194.127 74.7569 194.579 74.6063 195.182 74.4556C195.785 74.4556 196.237 74.7569 196.84 74.7569C200.607 74.7569 290.126 72.7975 298.113 171.067C298.566 176.945 299.018 182.522 299.47 187.948C304.292 250.798 307.005 285.313 354.176 340.325H196.388Z" fill="#0C0C0C"/>
</svg>
