<svg width="391" height="407" viewBox="0 0 391 407" fill="none" xmlns="http://www.w3.org/2000/svg">
<path d="M142.126 231.688C158.555 239.527 176.19 243.597 194.579 243.597C226.683 243.597 256.979 231.236 279.89 208.776C294.058 194.757 304.759 177.422 310.788 158.428C314.556 146.671 316.365 134.31 316.365 121.798C316.365 54.7189 261.802 0 194.579 0C127.355 0 72.7924 54.5682 72.7924 121.798C72.7924 168.377 99.9232 211.489 141.976 231.688H142.126ZM194.73 22.0082C249.744 22.0082 294.51 66.7781 294.51 121.798C294.51 132.049 293.003 142.149 289.988 151.796C285.165 167.322 276.423 181.492 264.666 192.948C245.976 211.338 221.107 221.589 194.73 221.589C179.657 221.589 165.187 218.272 151.773 211.941C117.257 195.511 95.1 160.087 95.1 121.949C95.1 66.9288 139.865 22.1589 194.88 22.1589L194.73 22.0082Z" fill="#0C0C0C"/>
<path d="M371.531 153.002C367.913 151.796 342.591 145.314 323.148 192.496C313.351 216.162 308.527 227.468 306.116 232.593C302.348 233.045 298.579 234.1 295.414 235.306C281.246 240.884 269.339 250.832 256.829 258.972C233.315 274.047 198.799 296.507 196.086 347.306C195.634 347.306 195.333 347.005 194.73 347.005C192.017 296.356 157.5 274.047 133.987 258.822C121.326 250.682 109.419 240.733 95.4013 235.156C91.4824 233.648 87.8651 232.744 84.6999 232.442C82.2883 227.317 77.465 216.011 67.6678 192.345C48.2242 145.013 22.7517 151.645 19.285 152.851C0.896481 159.031 -1.8166 177.573 0.896463 188.727C1.49937 191.592 6.62386 216.162 14.6123 243.296C32.2472 302.989 45.8127 313.691 50.3345 317.158C64.6534 328.464 79.5751 340.825 90.7288 350.322C80.6302 354.391 73.3955 364.34 73.3955 375.947V379.414C73.3955 394.639 85.755 407 100.978 407H185.535C189.153 407 192.167 405.191 194.127 402.478C196.086 405.191 199.251 407 202.718 407H289.837C305.061 407 317.42 394.639 317.42 379.414V375.947C317.42 364.34 310.185 354.542 300.087 350.322C311.24 340.825 326.012 328.313 340.481 317.158C345.003 313.691 358.568 302.989 376.203 243.296C384.192 216.162 389.316 191.592 389.919 188.727C392.632 177.573 389.919 159.031 371.531 152.851V153.002ZM35.5632 237.417C27.424 209.982 22.2995 184.507 22.2995 184.205C22.2995 183.904 22.2995 184.054 22.2995 183.753C21.6966 181.341 21.0936 175.914 25.7661 173.955C28.7806 173.955 37.975 178.326 47.32 200.787C54.4041 217.971 59.9807 231.236 63.5981 239.225C62.9952 239.828 62.3924 240.432 61.7895 241.035C55.1576 248.722 54.5546 256.259 55.1575 261.234C56.6648 274.348 68.2708 283.242 69.6273 284.146L112.584 315.048C117.558 318.666 124.341 317.46 127.958 312.485C131.575 307.511 130.37 300.728 125.396 297.11L82.5897 266.208C79.2738 263.646 75.2041 259.123 78.5201 255.204C81.9868 251.134 91.4826 257.314 94.6478 259.123C104.144 264.55 113.036 271.333 122.23 277.212C144.99 291.985 170.463 308.717 172.573 348.06H121.929C116.202 343.086 89.3723 319.57 63.8997 299.522C60.1315 296.658 49.8822 284.599 35.8647 236.964L35.5632 237.417ZM95.1 379.565V376.098C95.1 373.083 97.6622 370.521 100.677 370.521H183.576V385.143H100.677C97.6622 385.143 95.1 382.58 95.1 379.565ZM295.414 379.565C295.414 382.58 292.852 385.143 289.837 385.143H205.733V370.521H289.837C292.852 370.521 295.414 373.083 295.414 376.098V379.565ZM368.516 183.753C368.516 183.753 368.516 184.054 368.516 184.356C368.516 184.657 363.241 210.133 355.252 237.567C341.235 285.201 330.985 297.261 327.217 300.125C301.745 320.023 274.915 343.538 269.188 348.663H218.544C220.805 309.32 246.127 292.588 268.887 277.815C272.805 275.252 276.875 272.69 280.794 269.977C289.687 263.796 308.377 250.833 312.597 255.807C315.913 259.726 311.843 264.399 308.527 266.811L265.721 297.713C260.747 301.331 259.692 308.114 263.159 313.089C266.776 318.063 273.559 319.118 278.533 315.651L321.49 284.749C322.846 283.845 334.302 274.951 335.809 261.837C336.412 256.862 335.809 249.174 329.177 241.637C328.574 241.034 327.971 240.431 327.368 239.979C330.985 231.839 336.562 218.725 343.646 201.39C352.991 178.779 362.186 174.407 365.2 174.558C369.873 176.517 369.119 181.944 368.667 184.205L368.516 183.753Z" fill="#0C0C0C"/>
<path d="M162.474 179.532H228.191C230.452 179.532 232.562 178.628 234.22 176.819C237.084 173.804 237.536 169.131 235.275 165.664L207.391 118.784V97.0772H209.501C212.214 97.0772 214.475 94.8162 214.475 91.9521C214.475 89.088 212.214 86.8267 209.501 86.8267H181.014C178.301 86.8267 176.04 89.088 176.04 91.9521C176.04 94.8162 178.301 97.0772 181.014 97.0772H183.124V118.784L155.239 165.664C152.979 169.131 153.431 173.955 156.295 176.97C157.953 178.628 160.063 179.532 162.324 179.683L162.474 179.532ZM212.515 146.972H177.999L193.072 121.648V96.9263H197.593V121.648L212.666 146.972H212.515Z" fill="#0C0C0C"/>
<path d="M177.999 79.8927C183.124 79.8927 187.193 75.8227 187.193 70.6975C187.193 65.5723 183.124 61.5023 177.999 61.5023C172.874 61.5023 168.805 65.5723 168.805 70.6975C168.805 75.8227 172.874 79.8927 177.999 79.8927Z" fill="#0C0C0C"/>
<path d="M212.666 79.8927C217.79 79.8927 221.86 75.8227 221.86 70.6975C221.86 65.5723 217.79 61.5023 212.666 61.5023C207.541 61.5023 203.472 65.5723 203.472 70.6975C203.472 75.8227 207.541 79.8927 212.666 79.8927Z" fill="#0C0C0C"/>
<path d="M195.332 57.7338C198.648 57.7338 201.361 55.0203 201.361 51.704C201.361 48.3877 198.648 45.6745 195.332 45.6745C192.017 45.6745 189.304 48.3877 189.304 51.704C189.304 55.0203 192.017 57.7338 195.332 57.7338Z" fill="#0C0C0C"/>
</svg>
