<svg width="391" height="391" viewBox="0 0 391 391" fill="none" xmlns="http://www.w3.org/2000/svg">
<path d="M93.6453 390.993C87.4707 390.993 81.4468 389.186 76.1758 385.421C66.0857 378.342 61.116 366.293 63.2243 353.943L79.1878 256.947C79.7902 253.634 78.736 250.32 76.477 248.061L9.15936 179.381C0.725827 170.645 -2.13555 158.144 1.62942 146.396C5.39439 135.1 14.8821 127.118 26.3276 125.311L119.398 111.153C122.259 110.701 124.669 108.743 126.024 106.032L167.589 17.9229C172.86 6.92804 183.402 0 195.299 0C207.197 0 217.889 6.92804 223.01 17.9229L264.575 106.032C265.93 108.894 268.34 110.852 271.201 111.153L364.271 125.311C375.717 127.118 385.205 135.1 388.97 146.396C392.885 157.994 390.024 170.645 381.44 179.381L314.122 248.061C311.863 250.32 310.809 253.634 311.411 256.947L327.375 353.943C329.332 366.293 324.363 378.342 314.423 385.421C304.935 392.198 292.586 392.801 282.346 387.228L199.064 341.442C196.655 340.086 193.643 340.086 191.233 341.442L107.952 387.228C103.434 389.789 98.3139 390.993 93.3441 390.993H93.6453ZM195.45 21.9895C193.793 21.9895 189.878 22.4414 187.619 27.2611L146.054 115.521C141.536 125.009 132.952 131.486 122.861 133.143L29.7914 147.3C24.9722 148.053 23.165 151.969 22.7133 153.626C22.2615 155.132 21.0567 160.102 24.9722 164.169L92.2899 232.849C99.3681 240.078 102.681 250.621 101.025 260.713L85.0612 357.557C84.1576 363.582 87.9225 366.745 88.9767 367.498C90.4827 368.552 93.7959 370.209 97.7115 367.95L180.993 322.163C190.029 317.193 201.022 317.193 210.058 322.163L293.339 367.95C297.255 370.058 300.417 368.552 302.074 367.498C303.279 366.594 307.044 363.431 305.99 357.557L290.026 260.562C288.37 250.32 291.683 239.928 298.761 232.698L366.079 164.018C370.145 159.952 368.789 154.981 368.338 153.475C367.735 151.819 365.928 147.903 361.259 147.15L268.189 132.992C258.099 131.486 249.364 124.859 244.997 115.37L203.432 27.2611C201.173 22.4414 197.107 21.9895 195.601 21.9895H195.45Z" fill="#0C0C0C"/>
</svg>
