<svg width="389" height="389" viewBox="0 0 389 389" fill="none" xmlns="http://www.w3.org/2000/svg">
<path d="M213.241 12.2173L257.128 105.129C260.144 111.615 266.026 116.14 272.964 117.045L370.994 131.977C388.187 134.541 394.974 156.713 382.607 169.383L311.573 241.782C306.596 246.759 304.333 253.999 305.54 261.239L322.281 363.352C325.146 381.3 307.199 394.875 291.967 386.429L204.192 338.163C198.159 334.845 190.769 334.845 184.737 338.163L96.9617 386.429C81.5785 394.875 63.6314 381.3 66.6477 363.352L83.3883 261.239C84.5948 254.15 82.3326 246.91 77.3557 241.782L6.32137 169.383C-6.04552 156.713 0.741197 134.692 17.9342 131.977L115.964 117.045C122.751 115.989 128.633 111.464 131.8 105.129L175.688 12.2173C183.379 -4.07243 205.549 -4.07243 213.241 12.2173Z" fill="#0C0C0C"/>
</svg>
