<svg width="391" height="407" viewBox="0 0 391 407" fill="none" xmlns="http://www.w3.org/2000/svg">
<path d="M180.921 384.967H40.5903C30.3296 384.967 22.0304 376.667 22.0304 366.406V40.5944C22.0304 30.3326 30.3296 22.0326 40.5903 22.0326H305.559C315.82 22.0326 324.119 30.3326 324.119 40.5944V166.754C324.119 172.79 329.098 177.77 335.134 177.77C341.17 177.77 346.149 172.79 346.149 166.754V40.5944C346.149 18.26 327.891 0 305.559 0H40.5903C18.2581 0 0 18.26 0 40.5944V366.406C0 388.74 18.2581 407 40.5903 407H180.921C186.957 407 191.936 402.02 191.936 395.984C191.936 389.947 186.957 384.967 180.921 384.967Z" fill="#0C0C0C"/>
<path d="M286.094 96.2796C286.094 90.2433 281.114 85.2632 275.079 85.2632H83.444C77.4083 85.2632 72.4288 90.2433 72.4288 96.2796C72.4288 102.316 77.4083 107.296 83.444 107.296H275.079C281.114 107.296 286.094 102.316 286.094 96.2796Z" fill="#0C0C0C"/>
<path d="M237.506 159.359C237.506 153.323 232.527 148.343 226.491 148.343H83.444C77.4083 148.343 72.4288 153.323 72.4288 159.359C72.4288 165.396 77.4083 170.376 83.444 170.376H226.491C232.527 170.376 237.506 165.396 237.506 159.359Z" fill="#0C0C0C"/>
<path d="M83.444 211.272C77.4083 211.272 72.4288 216.252 72.4288 222.288C72.4288 228.325 77.4083 233.305 83.444 233.305H158.438C164.474 233.305 169.453 228.325 169.453 222.288C169.453 216.252 164.474 211.272 158.438 211.272H83.444Z" fill="#0C0C0C"/>
<path d="M280.813 186.674C220.003 186.674 170.66 236.021 170.66 296.837C170.66 338.94 195.256 378.026 233.281 396.286C248.22 403.378 264.214 407 280.813 407C309.784 407 337.247 395.833 357.919 375.46C370.745 362.784 380.402 347.089 385.834 330.037C389.154 319.322 390.965 308.155 390.965 296.837C390.965 236.021 341.623 186.674 280.813 186.674ZM265.572 237.983C265.572 229.381 272.513 222.439 281.114 222.439C289.715 222.439 296.656 229.381 296.656 237.983V297.139C296.656 305.741 289.715 312.682 281.114 312.682C272.513 312.682 265.572 305.741 265.572 297.139V237.983ZM281.114 371.386C270.099 371.386 261.196 362.482 261.196 351.466C261.196 340.449 270.099 331.546 281.114 331.546C292.129 331.546 301.032 340.449 301.032 351.466C301.032 362.482 292.129 371.386 281.114 371.386Z" fill="#0C0C0C"/>
</svg>
