<svg width="391" height="407" viewBox="0 0 391 407" fill="none" xmlns="http://www.w3.org/2000/svg">
<path d="M378.949 407C372.924 407 368.105 402.18 367.954 396.155C367.201 350.514 348.977 307.585 316.444 275.501C283.911 243.417 240.685 225.643 194.898 225.643C194.597 225.643 194.296 225.643 194.145 225.643C148.66 225.793 105.885 243.567 73.5031 275.501C40.9704 307.585 22.5955 350.363 21.993 396.155C21.993 402.18 17.0228 407 10.9982 407C10.9982 407 10.9982 407 10.8476 407C4.82299 407 -0.147279 401.879 0.00333542 395.854C0.756407 344.338 21.3906 296.137 58.1405 259.835C94.8904 223.684 143.539 203.65 195.049 203.65C195.35 203.65 195.651 203.65 195.953 203.65C247.161 203.801 295.509 223.835 332.108 259.835C368.858 295.986 389.492 344.338 390.245 395.854C390.245 401.879 385.425 407 379.401 407C379.401 407 379.401 407 379.25 407H378.949Z" fill="#0C0C0C"/>
<path d="M194.898 189.492C144.593 189.492 103.626 147.014 103.626 94.746C103.626 42.4776 144.593 0 194.898 0C245.203 0 286.171 42.4776 286.171 94.746C286.171 147.014 245.203 189.492 194.898 189.492ZM194.898 22.1425C156.642 22.1425 125.616 54.6786 125.616 94.746C125.616 134.813 156.642 167.349 194.898 167.349C233.154 167.349 264.181 134.813 264.181 94.746C264.181 54.6786 233.154 22.1425 194.898 22.1425Z" fill="#0C0C0C"/>
</svg>
