<svg width="334" height="412" viewBox="0 0 334 412" fill="none" xmlns="http://www.w3.org/2000/svg">
<path d="M329.168 13.0926C326.148 10.9796 322.373 10.5269 318.901 11.8852C269.827 30.2983 220.905 21.0917 169.114 11.4324C116.568 1.62215 62.2098 -8.64087 7.24779 11.8852C2.86895 13.5454 0 17.6204 0 22.2991V400.371C0 406.559 4.9829 411.54 11.1737 411.54C17.3645 411.54 22.3472 406.559 22.3472 400.371V225.145C69.0046 210.203 115.662 218.957 164.886 228.163C195.085 233.899 225.888 239.634 256.993 239.634C280.095 239.634 303.348 236.464 326.752 227.711C331.131 226.05 334 221.975 334 217.297V22.2991C334 18.6769 332.188 15.2056 329.168 13.0926ZM311.653 209.449C264.996 224.39 218.338 215.637 169.114 206.43C138.915 200.695 108.112 194.96 77.0073 194.96C58.888 194.96 40.6176 196.922 22.3472 202.053V30.2983C69.0046 15.3565 115.662 24.1103 164.886 33.3168C212.6 42.2215 261.825 51.579 311.653 37.6937V209.449Z" fill="#0C0C0C"/>
</svg>
