<svg width="114" height="150" viewBox="0 0 114 150" fill="none" xmlns="http://www.w3.org/2000/svg">
<path d="M106.688 63.0723C101.841 54.3869 95.1432 47.6929 86.5905 42.9962C78.0407 38.1549 68.4898 35.7358 57.9407 35.7358C48.8209 35.7358 40.5516 37.6593 33.1418 41.5034C25.8708 45.2059 19.8875 50.6874 15.18 57.9508V0H0V148.932H14.542V126.72C19.1019 134.27 25.0882 140.034 32.501 144.02C40.0555 148.006 48.5344 150 57.9435 150C68.4927 150 78.0436 147.578 86.5934 142.74C95.1461 137.895 101.847 131.136 106.691 122.448C111.537 113.763 113.962 103.868 113.962 92.7572C113.959 81.6527 111.534 71.7577 106.688 63.0723ZM93.2206 115.615C89.656 122.306 84.6679 127.505 78.2534 131.207C71.8388 134.768 64.7125 136.547 56.8745 136.547C48.8917 136.547 41.6916 134.768 35.2771 131.207C29.0043 127.505 24.0191 122.309 20.3127 115.615C16.7481 108.924 14.9673 101.304 14.9673 92.7602C14.9673 84.2164 16.7481 76.599 20.3127 69.9079C24.0191 63.2169 29.0072 58.0894 35.2771 54.5285C41.6916 50.826 48.8917 48.9763 56.8745 48.9763C64.7125 48.9763 71.8388 50.826 78.2534 54.5285C84.6679 58.0894 89.659 63.2139 93.2206 69.9079C96.927 76.599 98.7788 84.2194 98.7788 92.7602C98.7758 101.304 96.924 108.921 93.2206 115.615Z" fill="#0C0C0C"/>
</svg>
