<svg width="318" height="407" viewBox="0 0 318 407" fill="none" xmlns="http://www.w3.org/2000/svg">
<path d="M161.713 195.492L168.193 209.057C168.645 209.961 169.55 210.715 170.454 210.865L184.772 212.976C187.334 213.428 188.238 216.593 186.429 218.402L176.03 228.953C176.03 228.953 174.975 230.761 175.126 231.816L177.537 246.738C177.99 249.301 175.277 251.411 173.167 250.054L160.356 242.97C159.452 242.518 158.397 242.518 157.493 242.97L144.682 250.054C142.422 251.26 139.86 249.301 140.312 246.738L142.723 231.816C142.874 230.761 142.573 229.706 141.819 228.953L131.42 218.402C129.611 216.593 130.666 213.277 133.078 212.976L147.395 210.865C148.45 210.715 149.204 210.112 149.656 209.057L156.136 195.492C157.191 193.08 160.507 193.08 161.562 195.492H161.713Z" fill="#0C0C0C"/>
<path d="M89.0701 195.492L95.5507 209.057C96.0028 209.961 96.907 210.715 97.8113 210.865L112.129 212.976C114.691 213.428 115.595 216.593 113.787 218.402L103.388 228.953C103.388 228.953 102.333 230.761 102.483 231.816L104.895 246.738C105.347 249.301 102.634 251.411 100.524 250.054L87.7137 242.97C86.8094 242.518 85.7545 242.518 84.8502 242.97L72.0397 250.054C69.7791 251.26 67.217 249.301 67.6691 246.738L70.0805 231.816C70.2312 230.761 69.9298 229.706 69.1763 228.953L58.7772 218.402C56.9686 216.593 58.0236 213.277 60.435 212.976L74.7525 210.865C75.8075 210.715 76.5611 210.112 77.0132 209.057L83.4938 195.492C84.5488 193.08 87.8644 193.08 88.9193 195.492H89.0701Z" fill="#0C0C0C"/>
<path d="M234.355 195.492L240.836 209.057C241.288 209.961 242.192 210.715 243.097 210.865L257.414 212.976C259.976 213.428 260.881 216.593 259.072 218.402L248.673 228.953C248.673 228.953 247.618 230.761 247.769 231.816L250.18 246.738C250.632 249.301 247.919 251.411 245.809 250.054L232.999 242.97C232.095 242.518 231.04 242.518 230.136 242.97L217.325 250.054C215.064 251.26 212.502 249.301 212.954 246.738L215.366 231.816C215.517 230.761 215.215 229.706 214.462 228.953L204.063 218.402C202.254 216.593 203.309 213.277 205.72 212.976L220.038 210.865C221.093 210.715 221.846 210.112 222.299 209.057L228.779 195.492C229.834 193.08 233.15 193.08 234.205 195.492H234.355Z" fill="#0C0C0C"/>
<path d="M318 126.61C318 125.102 317.699 123.746 317.096 122.389C316.493 121.033 315.739 119.827 314.684 118.772L196.678 3.16512C196.678 3.16512 194.417 1.3565 193.061 0.904319C192.156 0.602867 190.348 0 188.841 0H40.5412C18.236 0 0 18.2376 0 40.5451V365.963C0 388.27 18.236 406.508 40.5412 406.508H277.459C299.764 406.508 318 388.27 318 365.963V126.459V126.61ZM269.019 115.607H218.38C208.132 115.607 199.843 107.317 199.843 97.0673V37.2293L279.87 115.607H269.019ZM295.996 366.113C295.996 376.363 287.707 384.653 277.459 384.653H40.5412C30.2929 384.653 22.0038 376.363 22.0038 366.113V40.696C22.0038 30.4466 30.2929 22.1567 40.5412 22.1567H177.839V97.0673C177.839 119.375 196.075 137.613 218.38 137.613H295.845V366.113H295.996Z" fill="#0C0C0C"/>
</svg>
