<svg width="391" height="322" viewBox="0 0 391 322" fill="none" xmlns="http://www.w3.org/2000/svg">
<path d="M341.805 0H48.5064C21.843 0 0 21.6945 0 48.5113V199.318C0 225.984 21.6923 247.829 48.5064 247.829H211.952L314.237 320.144C314.237 320.144 315.141 320.596 315.593 320.747C321.468 323.76 328.849 321.199 330.958 314.57C331.26 313.515 331.712 312.31 331.712 311.105V247.829H341.805C368.468 247.829 390.311 226.135 390.311 199.318V48.5113C390.311 21.8452 368.619 0 341.805 0ZM368.167 199.167C368.167 213.781 356.266 225.532 341.805 225.532H320.715C314.689 225.532 309.718 230.504 309.718 236.53V289.561C309.718 289.561 222.045 227.642 221.894 227.491C220.99 226.888 220.237 226.286 219.032 225.984C217.978 225.683 216.622 225.532 215.567 225.532H48.6571C34.0449 225.532 22.2949 213.63 22.2949 199.167V48.3607C22.2949 33.7471 34.1955 21.9959 48.6571 21.9959H341.805C356.417 21.9959 368.167 33.8977 368.167 48.3607V199.167Z" fill="#0C0C0C"/>
<path d="M198.696 86.3258L207.433 105.007C208.035 106.363 209.24 107.267 210.596 107.418L230.33 110.431C233.795 110.883 235.151 115.403 232.59 117.964L218.279 132.427C217.224 133.481 216.773 134.837 217.074 136.344L220.388 156.833C220.99 160.449 217.375 163.16 214.212 161.503L196.587 151.861C195.382 151.259 193.875 151.259 192.67 151.861L175.045 161.503C172.032 163.16 168.417 160.449 168.869 156.833L172.183 136.344C172.484 134.988 172.032 133.481 170.978 132.427L156.667 117.964C154.106 115.403 155.612 111.033 158.926 110.431L178.66 107.418C180.016 107.267 181.221 106.363 181.824 105.007L190.561 86.3258C192.067 83.0113 196.587 83.0113 198.093 86.3258H198.696Z" fill="#0C0C0C"/>
<path d="M98.6699 86.3258L107.407 105.007C108.01 106.363 109.215 107.267 110.571 107.418L130.304 110.431C133.769 110.883 135.125 115.403 132.564 117.964L118.253 132.427C117.199 133.481 116.747 134.837 117.048 136.344L120.362 156.833C120.965 160.449 117.349 163.16 114.186 161.503L96.5609 151.861C95.3558 151.259 93.8493 151.259 92.6442 151.861L75.0192 161.503C72.0064 163.16 68.391 160.449 68.8429 156.833L72.157 136.344C72.4583 134.988 72.0064 133.481 70.9519 132.427L56.641 117.964C54.0801 115.403 55.5865 111.033 58.9006 110.431L78.6346 107.418C79.9904 107.267 81.1955 106.363 81.7981 105.007L90.5352 86.3258C92.0417 83.0113 96.5609 83.0113 98.0673 86.3258H98.6699Z" fill="#0C0C0C"/>
<path d="M298.571 86.3258L307.308 105.007C307.91 106.363 309.115 107.267 310.471 107.418L330.205 110.431C333.67 110.883 335.026 115.403 332.465 117.964L318.154 132.427C317.099 133.481 316.647 134.837 316.949 136.344L320.263 156.833C320.865 160.449 317.25 163.16 314.087 161.503L296.462 151.861C295.256 151.259 293.75 151.259 292.545 151.861L274.92 161.503C271.907 163.16 268.292 160.449 268.744 156.833L272.058 136.344C272.359 134.988 271.907 133.481 270.853 132.427L256.542 117.964C253.981 115.403 255.487 111.033 258.801 110.431L278.535 107.418C279.891 107.267 281.096 106.363 281.699 105.007L290.436 86.3258C291.942 83.0113 296.462 83.0113 297.968 86.3258H298.571Z" fill="#0C0C0C"/>
</svg>
