<svg width="391" height="407" viewBox="0 0 391 407" fill="none" xmlns="http://www.w3.org/2000/svg">
<path d="M390.223 75.292C389.169 70.4721 384.5 66.4052 379.38 66.4052C362.21 66.4052 342.481 69.5683 320.793 75.5932V10.8257C320.793 3.14395 312.661 -1.9773 305.432 0.733905C246.092 22.8754 211.001 74.087 195.187 103.308C179.373 74.087 144.432 22.8754 84.7919 0.733905C77.5627 -1.9773 69.8818 3.14395 69.5806 10.8257V75.5932C48.0437 69.4177 28.3142 66.2546 10.9943 66.4052C5.12065 66.4052 0 71.5264 0 77.4007V327.283C0 333.76 5.72308 338.279 11.898 338.279C85.9968 338.279 188.108 404.552 189.163 405.305C192.627 407.565 197.747 407.565 201.211 405.305C202.266 404.703 304.377 338.279 378.476 338.279C384.651 338.279 390.223 333.76 390.374 327.283C390.374 327.283 390.374 77.5513 390.374 77.4007C390.374 76.6476 390.374 75.8945 390.073 75.292H390.223ZM298.955 27.5448V268.239C254.526 287.067 224.405 321.861 206.332 349.425V130.57C211.001 119.575 240.068 56.7655 298.955 27.3941V27.5448ZM184.343 130.872V349.726C166.421 322.162 136.3 287.218 91.7198 268.54V27.846C150.457 57.2173 179.524 120.027 184.343 131.022V130.872ZM22.2899 316.74V88.9986C36.447 90.0529 52.4113 93.3666 69.8818 98.6384C69.8818 98.6384 69.8818 275.77 69.8818 275.921C70.0324 284.356 78.3158 286.314 84.6413 289.025C91.5692 292.038 98.1959 295.502 104.521 299.418C116.57 306.949 127.414 315.986 137.354 325.928C146.089 334.814 154.071 344.605 161.3 354.847C163.559 358.161 165.819 361.474 168.078 364.939C168.53 365.692 169.283 367.65 170.036 368.102C160.698 362.981 149.704 357.257 137.504 351.383C93.0753 330.296 54.5198 318.547 22.2899 316.589V316.74ZM220.79 368.252C237.206 341.291 267.629 303.033 314.016 285.862C317.932 284.356 320.793 280.138 320.944 275.62V98.4879C338.415 93.2161 354.228 89.9024 368.536 88.848V316.589C336.306 318.698 297.751 330.296 253.321 351.533C241.122 357.408 230.279 363.131 220.79 368.252Z" fill="#0C0C0C"/>
</svg>
