<svg width="391" height="408" viewBox="0 0 391 408" fill="none" xmlns="http://www.w3.org/2000/svg">
<path d="M0.48854 77.7902C0.48854 86.9849 0.48854 286.857 0.48854 307.206C0.48854 314.894 -2.37508 332.831 5.76372 336.901C8.92881 338.559 12.6967 338.71 16.314 338.861C46.3069 340.82 75.6971 349.261 103.429 360.717C132.669 372.926 161.607 387.849 188.284 404.882C192.353 407.444 197.176 408.499 201.698 405.786C202.753 405.183 304.94 338.71 379.093 338.71C379.395 338.71 379.696 338.71 379.998 338.71C383.766 338.71 387.081 336.75 389.191 333.886C390.397 332.078 391 329.967 391 327.706V77.6394C391 74.9262 389.945 72.0623 387.986 70.1027C386.026 68.1432 383.464 66.7866 380.6 66.6358C380.45 66.6358 380.299 66.6358 379.998 66.6358C362.665 66.6358 343.072 69.6506 321.368 75.6799C321.368 75.6799 321.368 10.8644 321.368 10.7137C321.217 7.24684 319.559 3.93068 316.696 1.97114C313.681 -0.139124 309.914 -0.440536 306.598 0.614599C246.913 22.6217 211.645 74.0218 195.82 103.415C179.844 74.0218 144.575 22.6217 84.7401 0.614599C81.4243 -0.591269 77.5057 0.0116416 74.642 2.12191C71.7784 4.23218 70.1205 7.54838 70.1205 11.0152V75.6799C48.417 69.4999 28.8236 66.4851 11.491 66.6358C8.62733 66.6358 5.9144 67.8417 3.95506 69.8012C1.845 71.7608 0.639291 74.7755 0.639291 77.7902H0.48854ZM70.1205 98.7421C70.1205 98.7421 70.1205 276.005 70.1205 276.306C70.1205 280.677 73.1349 284.898 77.355 286.405C123.475 303.438 153.769 341.725 170.348 368.555C134.779 348.809 74.9435 320.471 22.6442 317.004V89.0952C36.8117 90.1503 52.7878 93.4665 70.2712 98.7421H70.1205ZM299.363 27.8973V268.619C254.901 287.31 224.758 322.431 206.671 350.015V131.15C211.645 119.694 240.734 57.1396 299.363 27.8973ZM321.368 275.703C321.368 269.372 321.368 263.042 321.368 256.56C321.368 204.859 321.368 153.006 321.368 101.305V98.5914C338.851 93.3157 354.677 89.9996 368.995 88.9444V316.854C316.696 320.32 256.861 348.809 221.291 368.404C237.87 341.423 268.164 303.137 314.435 286.104C318.655 284.446 321.368 280.225 321.519 275.552L321.368 275.703Z" fill="#0C0C0C"/>
</svg>
