<svg width="241" height="190" viewBox="0 0 241 190" fill="none" xmlns="http://www.w3.org/2000/svg">
<path d="M160.564 123.438C159.8 122.776 158.656 122.442 157.122 122.442H153.016V130.043H157.122C158.651 130.043 159.8 129.709 160.564 129.046C161.329 128.383 161.714 127.448 161.714 126.245C161.714 125.042 161.329 124.107 160.564 123.438ZM156.073 138.29H153.016V146.448H141.741V114.011H157.836C160.927 114.011 163.616 114.506 165.909 115.492C168.202 116.483 169.97 117.903 171.209 119.757C172.453 121.612 173.072 123.772 173.072 126.245C173.072 128.561 172.531 130.583 171.449 132.315C170.366 134.047 168.804 135.422 166.768 136.441L173.786 146.453H161.747L156.062 138.295L156.073 138.29Z" fill="#0C0C0C"/>
<path d="M203.432 130.689C202.143 129.33 200.62 128.35 198.869 127.748C197.117 127.147 194.963 126.612 192.42 126.15C190.445 125.777 189.028 125.432 188.168 125.109C187.309 124.786 186.88 124.296 186.88 123.65C186.88 122.291 188.33 121.612 191.226 121.612C194.121 121.612 197.262 122.414 200.542 124.023L203.934 116.099C202.244 115.174 200.297 114.467 198.082 113.988C195.867 113.509 193.613 113.27 191.326 113.27C187.979 113.27 185.139 113.749 182.802 114.707C180.464 115.665 178.701 116.979 177.524 118.644C176.347 120.309 175.756 122.163 175.756 124.207C175.756 126.557 176.392 128.417 177.664 129.792C178.936 131.168 180.431 132.153 182.155 132.76C183.873 133.362 186.026 133.924 188.604 134.453C190.612 134.854 192.051 135.227 192.927 135.567C193.803 135.906 194.244 136.419 194.244 137.098C194.244 137.683 193.909 138.128 193.24 138.418C192.57 138.713 191.454 138.858 189.892 138.858C188.079 138.858 186.182 138.591 184.208 138.045C182.233 137.505 180.447 136.786 178.857 135.89L175.226 143.858C176.916 144.877 179.069 145.691 181.697 146.292C184.325 146.893 187.025 147.194 189.792 147.194C193.134 147.194 195.979 146.71 198.316 145.735C200.654 144.761 202.417 143.452 203.594 141.798C204.771 140.144 205.362 138.301 205.362 136.263C205.362 133.913 204.715 132.064 203.427 130.7L203.432 130.689Z" fill="#0C0C0C"/>
<path d="M216.448 145.028C213.613 143.591 211.393 141.581 209.786 139.003C208.18 136.424 207.376 133.495 207.376 130.221C207.376 126.947 208.18 124.017 209.786 121.439C211.393 118.861 213.613 116.851 216.448 115.414C219.282 113.977 222.467 113.259 225.998 113.259C229.251 113.259 232.146 113.816 234.69 114.929C237.24 116.043 239.337 117.647 240.994 119.746L233.876 125.911C231.806 123.377 229.368 122.113 226.568 122.113C224.213 122.113 222.316 122.848 220.883 124.313C219.449 125.783 218.735 127.748 218.735 130.221C218.735 132.693 219.449 134.665 220.883 136.129C222.316 137.594 224.208 138.329 226.568 138.329C229.368 138.329 231.806 137.065 233.876 134.531L240.994 140.695C239.337 142.795 237.24 144.404 234.69 145.512C232.141 146.626 229.245 147.183 225.998 147.183C222.467 147.183 219.282 146.465 216.448 145.028Z" fill="#0C0C0C"/>
<path d="M190.11 95.1219C190.11 42.7212 147.555 0.243774 95.0577 0.243774C42.5609 0.243774 0 42.7212 0 95.1219C0 147.523 42.5553 190 95.0522 190C123.013 190 148.146 177.938 165.535 158.76H149.585C134.4 171.768 115.27 178.863 95.0466 178.863C72.6364 178.863 51.5707 170.153 35.7213 154.333C19.8774 138.518 11.1465 117.485 11.1465 95.1163C11.1465 72.7472 19.8718 51.7201 35.7213 35.8996C51.5651 20.0848 72.6364 11.3699 95.0466 11.3699C117.457 11.3699 138.522 20.0792 154.372 35.8996C170.216 51.7145 178.947 72.7472 178.947 95.1163C178.947 97.0709 178.874 99.0143 178.74 100.947H189.92C190.037 99.0199 190.099 97.0765 190.099 95.1163L190.11 95.1219Z" fill="#0C0C0C"/>
<path d="M168.023 155.92H152.743C151.711 156.895 150.662 157.841 149.591 158.754H165.541C166.383 157.825 167.214 156.883 168.023 155.92Z" fill="#0C0C0C"/>
<path d="M76.921 120.47L91.7328 96.8872V74.5403H98.3827V96.8872L113.195 120.47H76.921ZM130.757 136.135L104.921 95.005V74.5347H108.196C110.003 74.5347 111.471 73.0702 111.471 71.2659C111.471 69.4617 110.003 67.9972 108.196 67.9972H81.9196C80.112 67.9972 78.6448 69.4617 78.6448 71.2659C78.6448 73.0702 80.112 74.5347 81.9196 74.5347H85.1944V95.005L59.3588 136.135C57.6572 138.702 57.9362 142.193 60.2012 144.454C61.4843 145.735 63.158 146.381 64.8428 146.392H125.278C126.958 146.381 128.637 145.735 129.92 144.454C132.185 142.193 132.464 138.702 130.762 136.135H130.757Z" fill="#0C0C0C"/>
<path d="M95.0522 40.5773C97.4061 40.5773 99.3144 38.6725 99.3144 36.3229C99.3144 33.9732 97.4061 32.0684 95.0522 32.0684C92.6982 32.0684 90.7899 33.9732 90.7899 36.3229C90.7899 38.6725 92.6982 40.5773 95.0522 40.5773Z" fill="#0C0C0C"/>
<path d="M79.0967 58.9816C82.4736 58.9816 85.2111 56.2491 85.2111 52.8783C85.2111 49.5076 82.4736 46.7751 79.0967 46.7751C75.7198 46.7751 72.9823 49.5076 72.9823 52.8783C72.9823 56.2491 75.7198 58.9816 79.0967 58.9816Z" fill="#0C0C0C"/>
<path d="M111.024 58.9816C114.401 58.9816 117.139 56.2491 117.139 52.8783C117.139 49.5076 114.401 46.7751 111.024 46.7751C107.647 46.7751 104.91 49.5076 104.91 52.8783C104.91 56.2491 107.647 58.9816 111.024 58.9816Z" fill="#0C0C0C"/>
</svg>
