<svg width="68" height="106" viewBox="0 0 68 106" fill="none" xmlns="http://www.w3.org/2000/svg">
<path d="M17.7275 81.729L31.2674 60.0848V39.5717H37.3439V60.0828L50.8838 81.727H17.7275V81.729ZM66.9357 96.1103L43.3227 58.3585V39.5713H46.3137C47.9653 39.5713 49.3046 38.2289 49.3046 36.5733C49.3046 34.9177 47.9653 33.5752 46.3137 33.5752H35.5806H34.4119H22.2953C20.6437 33.5752 19.3044 34.9177 19.3044 36.5733C19.3044 38.2289 20.6437 39.5713 22.2953 39.5713H25.2863V58.3585L1.6733 96.1103C0.116595 98.4662 0.372755 101.672 2.44372 103.748C3.61638 104.923 5.14867 105.514 6.68601 105.525H61.925C63.4607 105.515 64.995 104.923 66.1672 103.748C68.2363 101.672 68.4944 98.4662 66.9357 96.1103Z" fill="#0C0C0C"/>
<path d="M34.3043 8.39653C36.4553 8.39653 38.199 6.64867 38.199 4.49257C38.199 2.33648 36.4553 0.588623 34.3043 0.588623C32.1534 0.588623 30.4097 2.33648 30.4097 4.49257C30.4097 6.64867 32.1534 8.39653 34.3043 8.39653Z" fill="#0C0C0C"/>
<path d="M19.7199 25.2904C22.8064 25.2904 25.3085 22.7824 25.3085 19.6885C25.3085 16.5947 22.8064 14.0867 19.7199 14.0867C16.6334 14.0867 14.1313 16.5947 14.1313 19.6885C14.1313 22.7824 16.6334 25.2904 19.7199 25.2904Z" fill="#0C0C0C"/>
<path d="M48.9006 25.2904C51.9871 25.2904 54.4892 22.7824 54.4892 19.6885C54.4892 16.5947 51.9871 14.0867 48.9006 14.0867C45.8141 14.0867 43.312 16.5947 43.312 19.6885C43.312 22.7824 45.8141 25.2904 48.9006 25.2904Z" fill="#0C0C0C"/>
</svg>
