<svg width="618" height="518" viewBox="0 0 618 518" fill="none" xmlns="http://www.w3.org/2000/svg">
<g clip-path="url(#clip0_1_50)">
<path d="M519.019 259C519.019 115.958 402.833 0 259.51 0C116.186 0 0 115.958 0 259C0 402.042 116.186 518 259.51 518C339.552 518 411.119 481.825 458.723 424.972H417.009C374.293 465.404 318.612 487.598 259.51 487.598C198.329 487.598 140.81 463.82 97.5485 420.643C54.2869 377.467 30.4621 320.061 30.4621 259C30.4621 197.939 54.2869 140.533 97.5485 97.3581C140.81 54.1815 198.329 30.4035 259.51 30.4035C320.691 30.4035 378.209 54.1815 421.471 97.3581C464.733 140.533 488.557 197.941 488.557 259C488.557 268.202 487.979 277.313 486.909 286.313H517.564C518.509 277.334 519.019 268.228 519.019 259Z" fill="#414B57"/>
<path d="M207.243 322.507L249.935 254.557V190.159H269.094V254.551L311.787 322.501H207.243V322.507ZM362.399 367.656L287.946 249.138V190.158H297.377C302.584 190.158 306.807 185.943 306.807 180.745C306.807 175.548 302.584 171.333 297.377 171.333H263.535H259.849H221.645C216.438 171.333 212.215 175.548 212.215 180.745C212.215 185.943 216.438 190.158 221.645 190.158H231.076V249.138L156.623 367.656C151.714 375.052 152.522 385.115 159.052 391.633C162.749 395.324 167.581 397.179 172.428 397.213H346.6C351.442 397.18 356.28 395.324 359.976 391.633C366.5 385.115 367.314 375.052 362.399 367.656Z" fill="#414B57"/>
<path d="M259.51 92.2874C266.292 92.2874 271.79 86.8001 271.79 80.0313C271.79 73.2625 266.292 67.7753 259.51 67.7753C252.728 67.7753 247.23 73.2625 247.23 80.0313C247.23 86.8001 252.728 92.2874 259.51 92.2874Z" fill="#414B57"/>
<path d="M213.525 145.324C223.256 145.324 231.146 137.45 231.146 127.737C231.146 118.024 223.256 110.151 213.525 110.151C203.793 110.151 195.903 118.024 195.903 127.737C195.903 137.45 203.793 145.324 213.525 145.324Z" fill="#414B57"/>
<path d="M305.533 145.324C315.265 145.324 323.154 137.45 323.154 127.737C323.154 118.024 315.265 110.151 305.533 110.151C295.801 110.151 287.912 118.024 287.912 127.737C287.912 137.45 295.801 145.324 305.533 145.324Z" fill="#414B57"/>
<path d="M436.592 335.017C433.703 332.629 429.489 331.435 423.943 331.435H408.901V359.185H423.943C429.488 359.185 433.703 357.973 436.592 355.545C439.481 353.12 440.923 349.707 440.923 345.308C440.923 340.836 439.481 337.405 436.592 335.017ZM441.266 396.032L425.881 373.854H424.967H408.9V396.032H390.441V316.423H424.966C432.032 316.423 438.166 317.599 443.369 319.947C448.572 322.298 452.582 325.635 455.392 329.957C458.203 334.276 459.607 339.395 459.607 345.309C459.607 351.224 458.183 356.323 455.336 360.606C452.484 364.891 448.441 368.169 443.198 370.445L461.091 396.033H441.266V396.032Z" fill="#414B57"/>
<path d="M482.115 394.838C476.227 393.134 471.497 390.914 467.927 388.186L474.195 374.31C477.613 376.812 481.674 378.823 486.385 380.338C491.095 381.857 495.807 382.613 500.517 382.613C505.757 382.613 509.633 381.835 512.141 380.28C514.645 378.727 515.901 376.662 515.901 374.084C515.901 372.189 515.159 370.615 513.676 369.363C512.196 368.112 510.296 367.107 507.982 366.348C505.664 365.592 502.529 364.757 498.578 363.847C492.499 362.408 487.524 360.967 483.653 359.525C479.777 358.086 476.452 355.772 473.679 352.589C470.907 349.404 469.52 345.159 469.52 339.851C469.52 335.228 470.776 331.037 473.28 327.285C475.788 323.531 479.568 320.557 484.622 318.356C489.67 316.158 495.842 315.058 503.136 315.058C508.228 315.058 513.202 315.664 518.066 316.877C522.926 318.091 527.182 319.834 530.827 322.108L525.128 336.097C517.76 331.928 510.392 329.842 503.025 329.842C497.855 329.842 494.039 330.675 491.572 332.344C489.1 334.012 487.867 336.209 487.867 338.94C487.867 341.668 489.29 343.697 492.142 345.023C494.989 346.351 499.338 347.658 505.185 348.947C511.264 350.389 516.24 351.83 520.115 353.269C523.991 354.711 527.311 356.985 530.085 360.092C532.858 363.202 534.244 367.41 534.244 372.717C534.244 377.265 532.974 381.417 530.428 385.17C527.883 388.924 524.067 391.898 518.975 394.097C513.884 396.295 507.695 397.397 500.4 397.397C494.097 397.397 488 396.543 482.115 394.838Z" fill="#414B57"/>
<path d="M563.018 392.108C556.448 388.584 551.283 383.692 547.522 377.438C543.761 371.182 541.879 364.113 541.879 356.228C541.879 348.342 543.762 341.272 547.522 335.017C551.281 328.762 556.448 323.872 563.018 320.345C569.588 316.82 576.979 315.058 585.182 315.058C592.096 315.058 598.346 316.27 603.929 318.699C609.511 321.125 614.204 324.613 618.001 329.162L606.15 340.079C600.758 333.864 594.071 330.755 586.096 330.755C581.158 330.755 576.753 331.835 572.876 333.996C569.004 336.155 565.981 339.169 563.816 343.036C561.651 346.902 560.57 351.301 560.57 356.23C560.57 361.158 561.651 365.554 563.816 369.421C565.981 373.29 569.004 376.303 572.876 378.464C576.752 380.625 581.157 381.706 586.096 381.706C594.071 381.706 600.758 378.559 606.15 372.265L618.001 383.185C614.204 387.81 609.493 391.336 603.874 393.762C598.249 396.186 591.981 397.402 585.072 397.402C576.938 397.397 569.588 395.634 563.018 392.108Z" fill="#414B57"/>
</g>
<defs>
<clipPath id="clip0_1_50">
<rect width="309" height="259" fill="white" transform="scale(2)"/>
</clipPath>
</defs>
</svg>
