<svg width="71" height="80" viewBox="0 0 71 80" fill="none" xmlns="http://www.w3.org/2000/svg">
<path d="M46.3771 18.6848C43.4744 16.2853 39.2395 15.0856 33.6661 15.0856H18.5509V42.9711H33.6661C39.2382 42.9711 43.4744 41.753 46.3771 39.3131C49.2798 36.8769 50.7287 33.4468 50.7287 29.0265C50.7287 24.5327 49.2798 21.0842 46.3771 18.6848ZM51.0738 79.9988L35.6135 57.7124H34.6951H18.5496V79.9988H0V0H34.6938C41.7947 0 47.9587 1.18137 53.187 3.54163C58.4153 5.90434 62.4452 9.25724 65.2693 13.6003C68.0935 17.9409 69.5043 23.0842 69.5043 29.0277C69.5043 34.9713 68.0738 40.095 65.2129 44.3988C62.347 48.7051 58.2839 51.9992 53.0151 54.2859L70.9962 80H51.0738V79.9988Z" fill="#F2A900"/>
</svg>
