<svg width="499" height="419" viewBox="0 0 499 419" fill="none" xmlns="http://www.w3.org/2000/svg">
<mask id="mask0_40_1723" style="mask-type:luminance" maskUnits="userSpaceOnUse" x="0" y="0" width="500" height="419">
<path d="M499.151 0H0V418.412H499.151V0Z" fill="white"/>
</mask>
<g mask="url(#mask0_40_1723)">
<path d="M419.275 209.206C419.275 93.5997 325.382 0 209.637 0C93.8922 0 0 93.7504 0 209.206C0 324.661 93.8922 418.412 209.637 418.412C274.292 418.412 332.164 389.171 370.595 343.2H336.836C302.324 375.907 257.412 393.844 209.637 393.844C161.862 393.844 113.786 374.702 78.8212 339.733C43.8565 304.916 24.5657 258.493 24.5657 209.206C24.5657 159.919 43.8565 113.496 78.8212 78.6784C113.786 43.8609 160.204 24.5678 209.637 24.5678C259.07 24.5678 305.489 43.7102 340.453 78.6784C375.418 113.496 394.709 159.919 394.709 209.206C394.709 216.591 394.257 223.977 393.352 231.212H418.069C418.822 223.977 419.275 216.591 419.275 209.206Z" fill="#0C0C0C"/>
<path d="M167.439 260.603L201.951 205.739V153.739H217.474V205.739L251.987 260.603H167.589H167.439ZM292.678 297.079L232.545 201.368V153.739H240.231C244.451 153.739 247.918 150.272 247.918 146.203C247.918 142.133 244.451 138.667 240.231 138.667H179.043C174.823 138.667 171.357 142.133 171.357 146.203C171.357 150.272 174.823 153.739 179.043 153.739H186.729V201.368L126.596 297.079C122.678 303.108 123.281 311.247 128.555 316.522C131.57 319.537 135.488 321.044 139.407 321.044H280.169C284.088 321.044 288.006 319.537 291.021 316.522C296.295 311.247 296.898 303.108 292.98 297.079H292.678Z" fill="#0C0C0C"/>
<path d="M209.637 74.6085C215.063 74.6085 219.584 70.2374 219.584 64.6606C219.584 59.0838 215.214 54.7127 209.637 54.7127C204.061 54.7127 199.69 59.0838 199.69 64.6606C199.69 70.2374 204.061 74.6085 209.637 74.6085Z" fill="#0C0C0C"/>
<path d="M172.412 117.414C180.249 117.414 186.579 111.084 186.579 103.246C186.579 95.4082 180.249 89.0777 172.412 89.0777C164.575 89.0777 158.245 95.4082 158.245 103.246C158.245 111.084 164.575 117.414 172.412 117.414Z" fill="#0C0C0C"/>
<path d="M246.712 117.414C254.549 117.414 260.879 111.084 260.879 103.246C260.879 95.4082 254.549 89.0777 246.712 89.0777C238.875 89.0777 232.545 95.4082 232.545 103.246C232.545 111.084 238.875 117.414 246.712 117.414Z" fill="#0C0C0C"/>
<path d="M352.661 270.701C350.4 268.742 346.934 267.838 342.413 267.838H330.205V290.296H342.413C346.934 290.296 350.249 289.391 352.661 287.281C354.921 285.322 356.127 282.609 356.127 278.991C356.127 275.374 354.921 272.661 352.661 270.701ZM356.429 319.988L344.07 302.052H330.356V319.988H315.435V255.629H343.317C349.044 255.629 354.017 256.533 358.237 258.493C362.457 260.452 365.622 263.015 367.882 266.632C370.143 270.249 371.349 274.319 371.349 278.991C371.349 283.664 370.143 287.884 367.882 291.351C365.622 294.817 362.306 297.53 358.086 299.339L372.554 319.988H356.579H356.429Z" fill="#0C0C0C"/>
<path d="M389.434 318.933C384.611 317.577 380.844 315.768 377.98 313.508L383.104 302.354C385.817 304.313 389.133 305.971 392.9 307.177C396.668 308.383 400.587 308.986 404.354 308.986C408.574 308.986 411.739 308.383 413.698 307.177C415.657 305.971 416.712 304.313 416.712 302.203C416.712 300.696 416.11 299.339 414.904 298.435C413.698 297.38 412.191 296.626 410.232 296.023C408.423 295.42 405.861 294.667 402.696 294.064C397.723 292.858 393.805 291.803 390.64 290.598C387.475 289.392 384.762 287.583 382.652 285.02C380.391 282.458 379.336 278.991 379.336 274.771C379.336 271.003 380.391 267.687 382.351 264.673C384.31 261.658 387.475 259.247 391.544 257.438C395.613 255.629 400.587 254.725 406.464 254.725C410.533 254.725 414.603 255.177 418.521 256.232C422.439 257.287 425.906 258.644 428.769 260.453L424.097 271.757C418.22 268.441 412.191 266.632 406.314 266.632C402.094 266.632 399.079 267.235 397.12 268.591C395.161 269.948 394.106 271.757 394.106 273.867C394.106 275.977 395.312 277.786 397.572 278.841C399.833 279.896 403.45 280.951 408.122 282.006C413.095 283.212 417.014 284.267 420.179 285.473C423.344 286.679 426.056 288.487 428.166 291.05C430.427 293.612 431.482 296.928 431.482 301.299C431.482 304.916 430.427 308.383 428.468 311.397C426.358 314.412 423.344 316.823 419.274 318.632C415.205 320.441 410.232 321.345 404.204 321.345C399.079 321.345 394.257 320.592 389.434 319.235V318.933Z" fill="#0C0C0C"/>
<path d="M454.691 316.823C449.417 313.959 445.197 310.04 442.182 304.916C439.168 299.791 437.661 294.215 437.661 287.733C437.661 281.252 439.168 275.675 442.182 270.551C445.197 265.426 449.417 261.507 454.691 258.643C459.966 255.779 465.995 254.423 472.626 254.423C478.202 254.423 483.326 255.327 487.697 257.438C492.218 259.397 495.986 262.261 499 265.878L489.355 274.771C484.984 269.797 479.558 267.235 473.229 267.235C469.31 267.235 465.693 268.139 462.528 269.797C459.363 271.606 456.952 274.017 455.143 277.032C453.335 280.197 452.581 283.664 452.581 287.733C452.581 291.803 453.486 295.27 455.143 298.435C456.952 301.6 459.363 304.012 462.528 305.67C465.693 307.478 469.159 308.232 473.229 308.232C479.709 308.232 485.135 305.67 489.355 300.545L499 309.438C495.986 313.206 492.067 316.069 487.546 318.029C483.025 319.988 477.901 321.044 472.324 321.044C465.693 321.044 459.815 319.687 454.541 316.823H454.691Z" fill="#0C0C0C"/>
</g>
</svg>
