<svg width="160" height="160" viewBox="0 0 160 160" fill="none" xmlns="http://www.w3.org/2000/svg">
<path d="M62.7275 99.729L76.2674 78.0848V57.5717H82.3439V78.0828L95.8838 99.727H62.7275V99.729ZM111.936 114.11L88.3227 76.3585V57.5713H91.3137C92.9653 57.5713 94.3046 56.2289 94.3046 54.5733C94.3046 52.9177 92.9653 51.5752 91.3137 51.5752H80.5806H79.4119H67.2953C65.6437 51.5752 64.3044 52.9177 64.3044 54.5733C64.3044 56.2289 65.6437 57.5713 67.2953 57.5713H70.2863V76.3585L46.6733 114.11C45.1166 116.466 45.3728 119.672 47.4437 121.748C48.6164 122.923 50.1487 123.514 51.686 123.525H106.925C108.461 123.515 109.995 122.923 111.167 121.748C113.236 119.672 113.494 116.466 111.936 114.11Z" fill="#0C0C0C"/>
<path d="M79.3043 26.3965C81.4553 26.3965 83.199 24.6487 83.199 22.4926C83.199 20.3365 81.4553 18.5886 79.3043 18.5886C77.1534 18.5886 75.4097 20.3365 75.4097 22.4926C75.4097 24.6487 77.1534 26.3965 79.3043 26.3965Z" fill="#0C0C0C"/>
<path d="M64.7199 43.2904C67.8064 43.2904 70.3085 40.7824 70.3085 37.6885C70.3085 34.5947 67.8064 32.0867 64.7199 32.0867C61.6334 32.0867 59.1313 34.5947 59.1313 37.6885C59.1313 40.7824 61.6334 43.2904 64.7199 43.2904Z" fill="#0C0C0C"/>
<path d="M93.9006 43.2904C96.9871 43.2904 99.4892 40.7824 99.4892 37.6885C99.4892 34.5947 96.9871 32.0867 93.9006 32.0867C90.8141 32.0867 88.312 34.5947 88.312 37.6885C88.312 40.7824 90.8141 43.2904 93.9006 43.2904Z" fill="#0C0C0C"/>
<circle cx="80" cy="80" r="76.5" stroke="#0C0C0C" stroke-width="7"/>
</svg>
