<svg width="347" height="314" viewBox="0 0 347 314" fill="none" xmlns="http://www.w3.org/2000/svg">
<path d="M334.369 254.852H116.086C110.651 234.934 92.3855 220.147 70.7987 220.147C49.2119 220.147 30.9461 234.934 25.5117 254.852H12.2276C5.4345 254.852 9.16447e-05 260.284 9.16447e-05 267.074C9.16447e-05 273.864 5.4345 279.296 12.2276 279.296H25.5117C30.9461 299.213 49.2119 314 70.7987 314C92.3855 314 110.651 299.213 116.086 279.296H334.369C341.162 279.296 346.597 273.864 346.597 267.074C346.597 260.284 341.162 254.852 334.369 254.852ZM70.7987 294.535C55.7031 294.535 43.4756 282.313 43.4756 267.224C43.4756 252.136 55.7031 239.914 70.7987 239.914C85.8944 239.914 98.122 252.136 98.122 267.224C98.122 282.313 85.8944 294.535 70.7987 294.535Z" fill="#0C0C0C"/>
<path d="M334.369 145.91H311.424C305.989 125.992 287.724 111.205 266.137 111.205C244.55 111.205 226.284 125.992 220.85 145.91H12.2276C5.4345 145.91 9.16447e-05 151.342 9.16447e-05 158.132C9.16447e-05 164.922 5.4345 170.354 12.2276 170.354H220.85C226.284 190.271 244.55 205.058 266.137 205.058C287.724 205.058 305.989 190.271 311.424 170.354H334.369C341.162 170.354 346.597 164.922 346.597 158.132C346.597 151.342 341.162 145.91 334.369 145.91ZM266.137 185.443C251.041 185.443 238.814 173.221 238.814 158.132C238.814 143.043 251.041 130.821 266.137 130.821C281.232 130.821 293.46 143.043 293.46 158.132C293.46 173.221 281.232 185.443 266.137 185.443Z" fill="#0C0C0C"/>
<path d="M12.2275 61.261H98.8766C104.915 80.1221 122.728 93.853 143.56 93.853C164.392 93.853 182.205 80.1221 188.243 61.261H334.52C341.313 61.261 346.748 55.829 346.748 49.039C346.748 42.249 341.313 36.8169 334.52 36.8169H189.451C184.771 15.8434 166.052 0 143.56 0C121.067 0 102.349 15.8434 97.6689 36.8169H12.2275C5.43441 36.8169 0 42.249 0 49.039C0 55.829 5.43441 61.261 12.2275 61.261ZM143.409 19.4647C158.505 19.4647 170.732 31.6867 170.732 46.7756C170.732 61.8646 158.505 74.0866 143.409 74.0866C128.313 74.0866 116.086 61.8646 116.086 46.7756C116.086 31.6867 128.313 19.4647 143.409 19.4647Z" fill="#0C0C0C"/>
</svg>
