<svg width="400" height="407" viewBox="0 0 400 407" fill="none" xmlns="http://www.w3.org/2000/svg">
<path d="M269.498 114.864C275.527 114.864 280.501 109.89 280.501 103.86V40.5493C280.501 18.0889 262.263 0 239.955 0H40.5453C18.0871 0 0 18.2397 0 40.5493V366.451C0 388.911 18.2378 407 40.5453 407H239.955C262.413 407 280.501 388.76 280.501 366.451V302.989C280.501 296.959 275.527 291.985 269.498 291.985C263.469 291.985 258.495 296.959 258.495 302.989V366.451C258.495 376.701 250.205 384.992 239.955 384.992H40.5453C30.2959 384.992 22.0059 376.701 22.0059 366.451V40.5493C22.0059 30.2989 30.2959 22.008 40.5453 22.008H239.955C250.205 22.008 258.495 30.2989 258.495 40.5493V103.86C258.495 109.89 263.469 114.864 269.498 114.864Z" fill="#0C0C0C"/>
<path d="M396.71 211.037C398.67 207.72 399.875 203.952 399.875 200.183C399.875 195.058 397.916 189.933 394.6 186.164L332.501 117.879C324.814 109.437 311.851 108.834 303.26 116.522C294.819 124.21 294.217 137.324 301.904 145.766L332.501 179.532H170.923C159.468 179.532 150.274 188.727 150.274 200.183C150.274 211.64 159.468 220.835 170.923 220.835H332.501L301.904 254.601C294.217 263.042 294.819 276.157 303.26 283.844C307.179 287.462 312.153 289.271 317.127 289.271C322.704 289.271 328.281 287.01 332.35 282.488C332.35 282.488 394.299 214.353 394.299 214.202C395.052 213.298 395.806 212.393 396.409 211.338L396.71 211.037Z" fill="#0C0C0C"/>
</svg>
