<svg width="195" height="200" viewBox="0 0 195 200" fill="none" xmlns="http://www.w3.org/2000/svg">
<g clip-path="url(#clip0_346_12)">
<path d="M160.37 129.989C147.505 129.989 136.256 137.067 130.293 147.534L66.7904 112.758C68.3745 108.789 69.253 104.459 69.253 99.9299C69.253 95.9274 68.5675 92.0849 67.3162 88.5093L131.085 53.5871C137.221 63.3266 148.05 69.8108 160.37 69.8108C179.465 69.8108 194.993 54.2408 194.993 35.1087C194.993 15.9765 179.465 0.399902 160.37 0.399902C141.275 0.399902 125.747 15.9698 125.747 35.1087C125.747 38.0906 126.126 40.9924 126.832 43.7542L62.2978 79.0967C55.9748 70.6846 45.9246 65.2278 34.6298 65.2278C15.5345 65.2278 0 80.7977 0 99.9299C0 119.062 15.5345 134.632 34.6232 134.632C45.3789 134.632 55.0097 129.689 61.366 121.951L126.472 157.607C126 159.895 125.747 162.263 125.747 164.691C125.747 183.83 141.281 199.4 160.37 199.4C179.459 199.4 194.993 183.83 194.993 164.691C194.993 145.552 179.459 129.989 160.37 129.989ZM160.37 11.0734C173.588 11.0734 184.344 21.8536 184.344 35.1087C184.344 48.3638 173.588 59.1373 160.37 59.1373C147.152 59.1373 136.396 48.3571 136.396 35.1087C136.396 21.8602 147.152 11.0734 160.37 11.0734ZM34.6232 123.965C21.4049 123.965 10.6492 113.185 10.6492 99.9366C10.6492 86.6882 21.4049 75.9013 34.6232 75.9013C47.8415 75.9013 58.5972 86.6815 58.5972 99.9366C58.5972 113.192 47.8415 123.965 34.6232 123.965ZM160.37 188.726C147.152 188.726 136.396 177.946 136.396 164.691C136.396 151.436 147.152 140.663 160.37 140.663C173.588 140.663 184.344 151.443 184.344 164.691C184.344 177.94 173.588 188.726 160.37 188.726Z" fill="#0C0C0C"/>
</g>
<defs>
<clipPath id="clip0_346_12">
<rect width="195" height="199" fill="white" transform="translate(0 0.399902)"/>
</clipPath>
</defs>
</svg>
