<svg width="48" height="48" viewBox="0 0 48 48" fill="none" xmlns="http://www.w3.org/2000/svg">
  <path d="M24 4c-8.84 0-16 7.16-16 16s7.16 16 16 16 16-7.16 16-16S32.84 4 24 4zm0 24c-4.42 0-8-3.58-8-8s3.58-8 8-8 8 3.58 8 8-3.58 8-8 8z" fill="black"/>
  <path d="M30 24c2.21 0 4-1.79 4-4s-1.79-4-4-4h-3c-1.1 0-2 0.9-2 2v4c0 1.1 0.9 2 2 2h3z" fill="black"/>
  <path d="M24 20c1.1 0 2-0.9 2-2s-0.9-2-2-2c-1.1 0-2 0.9-2 2s0.9 2 2 2z" fill="black"/>
  <path d="M21 17h-2c-0.55 0-1 0.45-1 1v5l3 2v-7c0-0.55-0.45-1-1-1z" fill="black"/>
</svg> 