<svg width="194" height="201" viewBox="0 0 194 201" fill="none" xmlns="http://www.w3.org/2000/svg">
<path d="M66.1338 65.7372V53.5554H63.9046V65.7372L56.5482 78.2162H73.5646L66.1338 65.7372Z" fill="#0C0C0C"/>
<path d="M187.181 66.6286C186.364 65.8858 182.425 62.6175 175.143 62.9889C166.523 63.3603 156.864 68.6342 146.312 78.6619C130.633 93.592 124.02 99.4601 121.493 101.688C120.824 101.466 120.156 101.243 119.412 101.02C122.608 96.1175 125.283 90.7694 126.992 85.1985C128.998 78.8847 129.964 72.3481 129.964 65.663C130.038 29.786 100.91 0.594238 65.0192 0.594238C29.1286 0.594238 0 29.786 0 65.5887C0 88.6896 12.6323 110.082 32.3981 121.67C21.6235 130.36 12.3351 143.805 6.91061 165.049C2.82369 167.426 0.0743077 171.734 0.0743077 176.785V187.555C0.0743077 195.058 6.16754 201.149 13.6726 201.149H68.7346C76.2397 201.149 82.3329 195.058 82.3329 187.555V176.785C82.3329 175.151 81.9614 173.591 81.4412 172.105C89.4664 170.248 102.47 167.203 118.075 163.34C141.482 157.547 183.391 99.8315 188.444 92.775C192.383 87.6497 197.138 75.8392 187.255 66.7029L187.181 66.6286ZM179.825 74.6508C179.825 74.6508 179.75 74.6508 179.676 74.6508H179.825ZM73.5646 36.0998C76.0911 36.0998 78.0974 38.1053 78.0974 40.6308C78.0974 43.1563 76.0911 45.1619 73.5646 45.1619C71.0381 45.1619 69.0318 43.1563 69.0318 40.6308C69.0318 38.1053 71.0381 36.0998 73.5646 36.0998ZM65.0192 28.3004C66.654 28.3004 67.9915 29.6375 67.9915 31.2716C67.9915 32.9058 66.654 34.2428 65.0192 34.2428C63.3844 34.2428 62.0469 32.9058 62.0469 31.2716C62.0469 29.6375 63.3844 28.3004 65.0192 28.3004ZM56.4738 36.0998C59.0003 36.0998 61.0066 38.1053 61.0066 40.6308C61.0066 43.1563 59.0003 45.1619 56.4738 45.1619C53.9474 45.1619 51.9411 43.1563 51.9411 40.6308C51.9411 38.1053 53.9474 36.0998 56.4738 36.0998ZM45.3277 87.3526L59.0746 64.2517V53.5554H58.0343C56.6968 53.5554 55.5821 52.4412 55.5821 51.0299C55.5821 49.6186 56.6968 48.5044 58.0343 48.5044H72.0784C73.416 48.5044 74.5306 49.6186 74.5306 51.0299C74.5306 52.4412 73.416 53.5554 72.0784 53.5554H71.0381V64.2517L84.7851 87.3526C85.8997 89.061 85.6768 91.4379 84.2649 92.8492C83.4475 93.6663 82.4072 94.112 81.2926 94.1863H48.8945C47.7798 94.1863 46.7395 93.7406 45.9221 92.8492C44.5103 91.3636 44.2874 89.061 45.402 87.2783L45.3277 87.3526ZM71.4097 187.407C71.4097 188.892 70.1464 190.155 68.6603 190.155H13.6726C12.1865 190.155 10.9232 188.892 10.9232 187.407V176.636C10.9232 175.151 12.1865 173.888 13.6726 173.888H68.7346C70.2208 173.888 71.484 175.151 71.484 176.636V187.407H71.4097ZM179.825 86.0898C179.825 86.0898 179.676 86.2384 179.676 86.3126C179.527 86.4612 168.307 102.134 154.56 118.253C131.079 145.662 119.933 151.678 115.4 152.793C89.7637 159.106 70.8895 163.34 70.6666 163.34C69.9978 163.266 69.4034 163.118 68.7346 163.118H18.7255C30.912 122.784 59.0003 118.401 81.8128 114.91C91.6214 113.425 101.579 110.602 111.536 110.751C111.536 110.751 111.684 110.899 111.759 110.751C116.514 110.899 119.858 112.013 120.75 115.059C121.493 117.659 120.973 119.07 120.453 119.887C118.818 122.71 114.137 124.344 112.725 124.641L74.5306 132.514C71.5583 133.109 69.7006 136.006 70.2951 138.902C70.8895 141.799 73.7875 143.731 76.6855 143.136L114.88 135.263C115.92 135.04 125.283 132.886 129.667 125.458C132.045 121.521 132.491 116.841 131.004 111.939C130.707 110.899 130.261 109.859 129.667 108.745C133.234 105.625 140.144 99.2373 153.668 86.4612C171.354 69.6741 179.156 74.2794 179.75 74.6508C184.506 79.1076 180.419 84.9013 179.602 86.0155L179.825 86.0898Z" fill="#0C0C0C"/>
</svg>
