<svg width="1508" height="402" viewBox="0 0 1508 402" fill="none" xmlns="http://www.w3.org/2000/svg">
<g clip-path="url(#clip0_138_7)">
<path d="M1370.23 235.763H1363.84V267.109L1344.52 299.494H1389.4L1370.23 267.109V235.763Z" fill="#0C0C0C"/>
<path d="M1366.96 119.144C1289.24 119.144 1225.93 182.43 1225.93 260.126C1225.93 287.164 1233.66 313.607 1248.22 336.188C1262.49 358.324 1282.4 376.002 1306.03 387.293C1325.05 396.355 1345.56 401.109 1366.82 401.109C1403.97 401.109 1439.04 386.847 1465.64 360.701C1482.14 344.508 1494.48 324.452 1501.31 302.466C1505.62 288.798 1507.85 274.537 1507.85 260.126C1507.85 182.43 1444.54 119.144 1366.82 119.144H1366.96ZM1388.81 191.641C1395.2 191.641 1400.4 196.84 1400.4 203.228C1400.4 209.616 1395.2 214.816 1388.81 214.816C1382.42 214.816 1377.22 209.616 1377.22 203.228C1377.22 196.84 1382.42 191.641 1388.81 191.641ZM1366.96 171.585C1371.13 171.585 1374.54 175.002 1374.54 179.162C1374.54 183.321 1371.13 186.738 1366.96 186.738C1362.8 186.738 1359.38 183.321 1359.38 179.162C1359.38 175.002 1362.8 171.585 1366.96 171.585ZM1345.12 191.641C1351.51 191.641 1356.71 196.84 1356.71 203.228C1356.71 209.616 1351.51 214.816 1345.12 214.816C1338.73 214.816 1333.53 209.616 1333.53 203.228C1333.53 196.84 1338.73 191.641 1345.12 191.641ZM1415.71 336.634C1413.78 338.714 1411.1 339.902 1408.43 339.902H1325.65C1322.83 339.902 1320.3 338.714 1318.37 336.634C1314.95 332.92 1314.35 327.275 1317.03 322.967L1352.25 263.84V235.911H1349.13C1345.86 235.911 1343.33 233.237 1343.33 229.82C1343.33 226.403 1346.01 223.729 1349.13 223.729H1385.1C1388.36 223.729 1390.89 226.403 1390.89 229.82C1390.89 233.237 1388.22 235.911 1385.1 235.911H1381.97V263.84L1417.2 322.967C1419.87 327.275 1419.28 333.069 1415.86 336.634H1415.71Z" fill="#0C0C0C"/>
<path d="M1122.94 172.031C1122.94 193.275 1146.72 209.765 1188.33 217.341C1194.87 218.53 1201.7 219.421 1208.69 220.016C1211.96 206.794 1217.01 194.315 1223.25 182.579C1209.73 182.133 1196.65 180.796 1184.17 178.568C1154.74 173.22 1135.42 164.306 1122.79 154.353V171.882C1122.79 171.882 1122.79 171.882 1122.79 172.031H1122.94Z" fill="#0C0C0C"/>
<path d="M1122.94 233.683C1122.94 254.927 1146.72 271.417 1188.33 278.993C1193.83 280.033 1199.47 280.776 1205.12 281.37C1204.23 274.24 1203.64 267.109 1203.64 259.978C1203.64 254.184 1203.93 248.539 1204.53 242.894C1197.54 242.151 1190.71 241.26 1184.17 240.071C1154.74 234.723 1135.42 225.809 1122.79 215.856V233.534C1122.79 233.534 1122.79 233.534 1122.79 233.683H1122.94Z" fill="#0C0C0C"/>
<path d="M1122.94 110.528C1122.94 131.772 1146.72 148.262 1188.33 155.838C1202.15 158.364 1217.01 159.552 1232.47 159.552C1234.4 159.552 1236.48 159.552 1238.41 159.552C1253.12 140.834 1271.85 125.235 1293.25 114.39C1274.97 118.847 1254.02 121.224 1232.47 121.224C1215.67 121.224 1199.47 119.887 1184.17 117.064C1154.74 111.716 1135.42 102.803 1122.79 92.8491V110.379C1122.79 110.379 1122.79 110.379 1122.79 110.528H1122.94Z" fill="#0C0C0C"/>
<path d="M1188.48 94.3349C1202.3 96.8604 1217.16 98.0489 1232.62 98.0489C1259.66 98.0489 1285.37 94.0378 1304.99 86.7584C1318.52 81.7074 1328.62 75.3194 1334.86 67.8915C1339.17 62.6919 1341.7 56.7496 1342.15 50.6587C1342.15 50.5101 1342.15 50.3615 1342.15 50.0644C1342.15 49.6187 1342.15 49.1731 1342.15 48.876C1342.15 16.6387 1287.01 -0.148438 1232.62 -0.148438C1178.22 -0.148438 1123.23 16.6387 1123.09 48.7274C1123.09 48.7274 1123.09 48.7274 1123.09 48.876C1123.09 70.1199 1146.86 86.6099 1188.48 94.1864V94.3349Z" fill="#0C0C0C"/>
<path d="M1210.17 304.991C1201.26 304.248 1192.64 303.208 1184.32 301.723C1183.42 301.574 1182.68 301.426 1181.94 301.277C1153.85 295.929 1135.27 287.164 1123.09 277.508V301.277C1123.09 301.277 1123.09 301.723 1123.09 302.02C1123.09 323.264 1146.86 339.754 1188.48 347.33C1202 349.856 1216.57 351.044 1231.72 351.044C1231.13 350.004 1230.39 349.113 1229.79 348.073C1221.17 334.703 1214.63 320.144 1210.32 304.991H1210.17Z" fill="#0C0C0C"/>
<path d="M883.221 1.18848H622.252C600.257 1.18848 582.275 19.1641 582.275 41.1508V83.3415H553.146C544.527 83.3415 537.542 90.3237 537.542 98.9401C537.542 107.557 544.527 114.539 553.146 114.539H582.275V187.035H553.146C544.527 187.035 537.542 194.018 537.542 202.634C537.542 211.251 544.527 218.233 553.146 218.233H582.275V290.729H553.146C544.527 290.729 537.542 297.712 537.542 306.328C537.542 314.945 544.527 321.927 553.146 321.927H582.275V362.186C582.275 384.173 600.257 402.149 622.252 402.149H883.221C905.216 402.149 923.199 384.173 923.199 362.186V41.1508C923.199 19.1641 905.216 1.18848 883.221 1.18848ZM738.321 275.428H664.459C658.515 275.428 653.61 270.526 653.61 264.583C653.61 258.641 658.515 253.738 664.459 253.738H738.321C744.266 253.738 749.17 258.641 749.17 264.583C749.17 270.526 744.266 275.428 738.321 275.428ZM805.347 213.479H664.459C658.515 213.479 653.61 208.577 653.61 202.634C653.61 196.692 658.515 191.789 664.459 191.789H805.347C811.291 191.789 816.195 196.692 816.195 202.634C816.195 208.577 811.291 213.479 805.347 213.479ZM853.349 151.381H664.608C658.663 151.381 653.759 146.479 653.759 140.537C653.759 134.594 658.663 129.692 664.608 129.692H853.349C859.294 129.692 864.198 134.594 864.198 140.537C864.198 146.479 859.294 151.381 853.349 151.381Z" fill="#0C0C0C"/>
<path d="M132.268 131.474V107.111H127.809V131.474L113.096 156.432H147.129L132.268 131.474Z" fill="#0C0C0C"/>
<path d="M374.362 133.257C372.727 131.772 364.851 125.235 350.286 125.978C333.047 126.721 313.727 137.268 292.624 157.324C261.266 187.184 248.039 198.92 242.986 203.377C241.649 202.931 240.311 202.486 238.825 202.04C245.215 192.235 250.565 181.539 253.984 170.397C257.996 157.769 259.928 144.696 259.928 131.326C260.077 59.5721 201.82 1.18848 130.038 1.18848C58.2572 1.18848 0 59.5721 0 131.177C0 177.379 25.2646 220.164 64.7963 243.339C43.2471 260.721 24.6701 287.61 13.8212 330.098C5.64738 334.851 0.148615 343.468 0.148615 353.57V375.111C0.148615 390.115 12.3351 402.297 27.3452 402.297H137.469C152.479 402.297 164.666 390.115 164.666 375.111V353.57C164.666 350.302 163.923 347.182 162.882 344.211C178.933 340.497 204.941 334.406 236.15 326.681C282.964 315.093 366.783 199.663 376.889 185.55C384.765 175.299 394.277 151.678 374.511 133.406L374.362 133.257ZM359.649 149.302C359.649 149.302 359.501 149.302 359.352 149.302H359.649ZM147.129 72.1996C152.182 72.1996 156.195 76.2107 156.195 81.2617C156.195 86.3127 152.182 90.3237 147.129 90.3237C142.076 90.3237 138.064 86.3127 138.064 81.2617C138.064 76.2107 142.076 72.1996 147.129 72.1996ZM130.038 56.6009C133.308 56.6009 135.983 59.275 135.983 62.5433C135.983 65.8115 133.308 68.4856 130.038 68.4856C126.769 68.4856 124.094 65.8115 124.094 62.5433C124.094 59.275 126.769 56.6009 130.038 56.6009ZM112.948 72.1996C118.001 72.1996 122.013 76.2107 122.013 81.2617C122.013 86.3127 118.001 90.3237 112.948 90.3237C107.895 90.3237 103.882 86.3127 103.882 81.2617C103.882 76.2107 107.895 72.1996 112.948 72.1996ZM90.6554 174.705L118.149 128.503V107.111H116.069C113.394 107.111 111.164 104.882 111.164 102.06C111.164 99.2373 113.394 97.0089 116.069 97.0089H144.157C146.832 97.0089 149.061 99.2373 149.061 102.06C149.061 104.882 146.832 107.111 144.157 107.111H142.076V128.503L169.57 174.705C171.799 178.122 171.354 182.876 168.53 185.698C166.895 187.333 164.814 188.224 162.585 188.373H97.7889C95.5597 188.373 93.479 187.481 91.8443 185.698C89.0206 182.727 88.5748 178.122 90.804 174.557L90.6554 174.705ZM142.819 374.814C142.819 377.785 140.293 380.31 137.321 380.31H27.3452C24.3729 380.31 21.8465 377.785 21.8465 374.814V353.273C21.8465 350.302 24.3729 347.776 27.3452 347.776H137.469C140.442 347.776 142.968 350.302 142.968 353.273V374.814H142.819ZM359.649 172.18C359.649 172.18 359.352 172.477 359.352 172.625C359.055 172.922 336.614 204.268 309.12 236.506C262.157 291.324 239.865 303.357 230.8 305.585C179.527 318.213 141.779 326.681 141.333 326.681C139.996 326.532 138.807 326.235 137.469 326.235H37.4511C61.824 245.568 118.001 236.803 163.626 229.82C183.243 226.849 203.157 221.204 223.072 221.501C223.072 221.501 223.369 221.798 223.517 221.501C233.029 221.798 239.717 224.027 241.5 230.118C242.986 235.317 241.946 238.14 240.905 239.774C237.636 245.419 228.273 248.687 225.449 249.282L149.061 265.029C143.117 266.217 139.401 272.011 140.59 277.805C141.779 283.599 147.575 287.461 153.371 286.273L229.759 270.526C231.84 270.08 250.565 265.772 259.334 250.916C264.089 243.042 264.981 233.683 262.009 223.878C261.414 221.798 260.523 219.718 259.334 217.49C266.467 211.251 280.289 198.475 307.337 172.922C342.707 139.348 358.312 148.559 359.501 149.302C369.012 158.215 360.838 169.803 359.203 172.031L359.649 172.18Z" fill="#0C0C0C"/>
</g>
<defs>
<clipPath id="clip0_138_7">
<rect width="754" height="201" fill="white" transform="scale(2)"/>
</clipPath>
</defs>
</svg>
