<svg width="193" height="201" viewBox="0 0 193 201" fill="none" xmlns="http://www.w3.org/2000/svg">
<path d="M124.117 117.881H120.922V133.554L111.262 149.747H133.702L124.117 133.554V117.881Z" fill="#0C0C0C"/>
<path d="M122.482 59.572C83.6191 59.572 51.964 91.215 51.964 130.063C51.964 143.582 55.828 156.804 63.1102 168.094C70.2437 179.162 80.2009 188.001 92.0158 193.646C101.527 198.177 111.782 200.554 122.408 200.554C140.985 200.554 158.521 193.423 171.822 180.35C180.07 172.254 186.238 162.226 189.656 151.233C191.811 144.399 192.926 137.268 192.926 130.063C192.926 91.215 161.271 59.572 122.408 59.572H122.482ZM133.405 95.8204C136.6 95.8204 139.201 98.4201 139.201 101.614C139.201 104.808 136.6 107.408 133.405 107.408C130.21 107.408 127.609 104.808 127.609 101.614C127.609 98.4201 130.21 95.8204 133.405 95.8204ZM122.482 85.7926C124.563 85.7926 126.272 87.5011 126.272 89.5809C126.272 91.6607 124.563 93.3691 122.482 93.3691C120.401 93.3691 118.692 91.6607 118.692 89.5809C118.692 87.5011 120.401 85.7926 122.482 85.7926ZM111.559 95.8204C114.754 95.8204 117.355 98.4201 117.355 101.614C117.355 104.808 114.754 107.408 111.559 107.408C108.364 107.408 105.763 104.808 105.763 101.614C105.763 98.4201 108.364 95.8204 111.559 95.8204ZM146.855 168.317C145.889 169.357 144.551 169.951 143.214 169.951H101.824C100.413 169.951 99.1494 169.357 98.1834 168.317C96.4743 166.46 96.1771 163.637 97.5146 161.483L115.126 131.92V117.956H113.565C111.93 117.956 110.667 116.619 110.667 114.91C110.667 113.202 112.005 111.865 113.565 111.865H131.548C133.182 111.865 134.446 113.202 134.446 114.91C134.446 116.619 133.108 117.956 131.548 117.956H129.987V131.92L147.598 161.483C148.936 163.637 148.638 166.534 146.929 168.317H146.855Z" fill="#0C0C0C"/>
<path d="M0.468783 86.0155C0.468783 96.6375 12.358 104.882 33.1642 108.671C36.4337 109.265 39.8519 109.711 43.3443 110.008C44.9791 103.397 47.5055 97.1574 50.6265 91.2893C43.8645 91.0665 37.3254 90.398 31.0836 89.2838C16.3706 86.6098 6.71067 82.153 0.394516 77.1763V85.9412C0.394516 85.9412 0.394516 85.9412 0.394516 86.0155H0.468783Z" fill="#0C0C0C"/>
<path d="M0.468783 116.842C0.468783 127.463 12.358 135.708 33.1642 139.497C35.9136 140.017 38.7372 140.388 41.5609 140.685C41.1151 137.12 40.8179 133.554 40.8179 129.989C40.8179 127.092 40.9665 124.269 41.2637 121.447C37.7713 121.075 34.3531 120.63 31.0836 120.036C16.3706 117.361 6.71067 112.905 0.394516 107.928V116.767C0.394516 116.767 0.394516 116.767 0.394516 116.842H0.468783Z" fill="#0C0C0C"/>
<path d="M0.468783 55.2638C0.468783 65.8858 12.358 74.1308 33.1642 77.919C40.0748 79.1818 47.5056 79.776 55.2336 79.776C56.1996 79.776 57.2399 79.776 58.2059 79.776C65.5623 70.4168 74.9251 62.6175 85.6254 57.1951C76.4855 59.4235 66.0082 60.6119 55.2336 60.6119C46.8368 60.6119 38.7373 59.9434 31.0836 58.5321C16.3706 55.858 6.71067 51.4013 0.394516 46.4246V55.1895C0.394516 55.1895 0.394516 55.1895 0.394516 55.2638H0.468783Z" fill="#0C0C0C"/>
<path d="M33.2385 47.1675C40.1491 48.4302 47.5799 49.0245 55.3079 49.0245C68.8319 49.0245 81.6871 47.0189 91.4957 43.3792C98.2577 40.8537 103.311 37.6597 106.432 33.9457C108.586 31.346 109.85 28.3748 110.073 25.3293C110.073 25.2551 110.073 25.1808 110.073 25.0322C110.073 24.8094 110.073 24.5865 110.073 24.438C110.073 8.31935 82.5045 -0.0742188 55.3079 -0.0742188C28.1113 -0.0742188 0.617414 8.31935 0.543106 24.3637C0.543106 24.3637 0.543106 24.3637 0.543106 24.438C0.543106 35.0599 12.4323 43.3049 33.2385 47.0932V47.1675Z" fill="#0C0C0C"/>
<path d="M44.0874 152.496C39.6289 152.124 35.3191 151.604 31.1579 150.861C30.712 150.787 30.3405 150.713 29.9689 150.639C15.9248 147.965 6.63634 143.582 0.543106 138.754V150.639C0.543106 150.639 0.543106 150.861 0.543106 151.01C0.543106 161.632 12.4323 169.877 33.2385 173.665C40.0005 174.928 47.2826 175.522 54.862 175.522C54.5648 175.002 54.1932 174.557 53.896 174.037C49.5862 167.351 46.3167 160.072 44.1617 152.496H44.0874Z" fill="#0C0C0C"/>
</svg>
