<svg width="391" height="407" viewBox="0 0 391 407" fill="none" xmlns="http://www.w3.org/2000/svg">
<path d="M390.223 126.066C390.223 123.502 389.167 121.24 387.659 119.431C387.508 119.129 387.207 118.978 387.056 118.677L268.994 3.16683C267.034 1.35727 264.622 0.150797 261.757 0C261.606 0 261.455 0 261.304 0H112.935C90.6196 0 72.375 18.2464 72.375 40.5643V201.766C30.307 215.639 0 255.148 0 301.744C0 359.951 47.1945 407 105.245 407C107.507 407 109.769 406.849 112.031 406.698C112.332 406.698 112.634 406.698 112.935 406.698H349.964C372.279 406.698 390.524 388.452 390.524 366.134V126.669C390.524 126.669 390.524 126.217 390.524 126.066H390.223ZM272.01 37.2468L352.075 115.661H290.556C280.303 115.661 272.01 107.367 272.01 97.113V37.2468ZM64.9868 277.466C64.9868 277.466 95.897 246.552 96.0477 246.402C100.873 241.576 109.166 241.576 113.991 246.402L144.901 277.315C149.726 282.14 149.726 290.283 144.901 295.109C140.076 299.934 131.934 299.934 127.109 295.109L117.61 285.609V351.808C117.61 358.745 111.88 364.475 104.944 364.475C98.008 364.475 92.2782 358.745 92.2782 351.808V285.609L82.779 295.109C77.954 299.934 69.8118 299.934 64.9868 295.109C60.1618 290.283 60.1618 282.14 64.9868 277.315V277.466ZM368.208 366.134C368.208 376.388 359.915 384.682 349.662 384.682H169.629C194.357 365.38 210.189 335.522 210.189 301.744C210.189 243.536 162.995 196.488 104.944 196.488C101.325 196.488 97.7064 196.639 94.0876 197.091V40.5643C94.0876 30.3101 102.381 22.0164 112.634 22.0164H249.996V96.9621C249.996 119.28 268.24 137.526 290.556 137.526H368.058V366.134H368.208Z" fill="#0C0C0C"/>
</svg>
