<svg width="318" height="407" viewBox="0 0 318 407" fill="none" xmlns="http://www.w3.org/2000/svg">
<path d="M318 126.61C318 125.102 317.699 123.746 317.096 122.389C316.493 121.033 315.739 119.827 314.684 118.772L196.678 3.16512C195.472 1.95931 194.116 1.20577 193.061 0.904319C192.156 0.452141 190.649 0.150726 188.841 0H40.5413C18.2361 0 0 18.2376 0 40.5451V365.963C0 388.27 18.2361 406.508 40.5413 406.508H277.459C299.764 406.508 318 388.27 318 365.963V126.459V126.61ZM269.019 115.607H218.38C208.132 115.607 199.843 107.317 199.843 97.0673V37.2293L279.87 115.607H269.019ZM295.996 366.113C295.996 376.363 287.707 384.653 277.459 384.653H40.5413C30.2929 384.653 22.0038 376.363 22.0038 366.113V40.696C22.0038 30.4466 30.2929 22.1567 40.5413 22.1567H177.839V97.0673C177.839 119.375 196.075 137.613 218.38 137.613H295.846V366.113H295.996Z" fill="#0C0C0C"/>
<path d="M214.462 246.286L176.181 208.002C170.303 202.123 160.055 202.123 154.026 208.002L115.746 246.286C109.717 252.315 109.717 262.263 115.746 268.292C121.774 274.321 131.721 274.321 137.75 268.292L149.505 256.535V338.38C149.505 346.971 156.438 353.904 165.028 353.904C173.619 353.904 180.552 346.971 180.552 338.38V256.535L192.307 268.292C198.336 274.321 208.282 274.321 214.311 268.292C220.339 262.263 220.339 252.315 214.311 246.286H214.462Z" fill="#0C0C0C"/>
</svg>
