<svg width="390" height="407" viewBox="0 0 390 407" fill="none" xmlns="http://www.w3.org/2000/svg">
<path d="M260.15 111.483C260.15 111.483 259.096 111.483 258.644 111.483C250.359 52.5776 203.059 6.47795 142.955 0.602508C138.737 0.150551 134.368 0 130 0C58.2965 0 0 58.3025 0 130.013V283.98C0 287.897 2.56083 291.814 5.87485 293.622C9.18887 295.429 13.7079 295.279 16.8713 293.17L82.5492 250.836C97.6129 256.712 113.43 259.875 129.849 259.875C130.452 259.875 130.904 259.875 131.506 259.875C140.545 322.848 194.623 371.358 260 371.358C276.419 371.358 292.236 368.194 307.3 362.319L372.978 404.652C376.292 406.761 380.661 406.912 384.125 404.954C387.439 403.146 390 399.229 390 395.312V241.345C390 169.635 331.703 111.332 260 111.332L260.15 111.483ZM130 237.88C114.635 237.88 99.8725 234.716 85.8632 228.54C82.6998 227.184 78.3313 227.485 75.4692 229.293L21.9929 263.792V130.013C21.9929 70.5054 70.4981 21.9953 130 21.9953C133.615 21.9953 137.23 22.1459 140.846 22.5979C190.405 27.5694 229.421 65.2325 236.802 113.743C208.934 118.865 183.476 132.875 164.195 154.117C143.105 177.167 131.356 206.996 130.151 238.181L130 237.88ZM368.158 375.275C368.158 375.275 314.681 340.926 314.681 340.776C313.476 340.022 311.819 339.57 310.313 339.269C309.258 339.269 308.204 339.269 307.149 339.269C306.246 339.269 305.191 339.57 304.287 339.872C290.429 346.048 275.515 349.212 260.15 349.212C200.649 349.212 152.144 300.702 152.144 241.194C152.144 214.228 162.086 188.466 180.313 168.429C198.389 148.694 222.793 136.34 249.305 133.629C252.92 133.327 256.535 133.026 260.15 133.026C319.652 133.026 368.158 181.536 368.158 241.044V374.823V375.275Z" fill="#0C0C0C"/>
<path d="M297.509 205.038H213.001C206.976 205.038 202.004 210.009 202.004 216.035C202.004 222.062 206.976 227.033 213.001 227.033H297.509C303.534 227.033 308.505 222.062 308.505 216.035C308.505 210.009 303.534 205.038 297.509 205.038Z" fill="#0C0C0C"/>
<path d="M297.509 257.013H257.138C251.112 257.013 246.141 261.984 246.141 268.011C246.141 274.037 251.112 279.008 257.138 279.008H297.509C303.534 279.008 308.505 274.037 308.505 268.011C308.505 261.984 303.534 257.013 297.509 257.013Z" fill="#0C0C0C"/>
<path d="M92.6418 115.55H177.149C183.175 115.55 188.146 110.579 188.146 104.553C188.146 98.5265 183.175 93.555 177.149 93.555H92.6418C86.6163 93.555 81.6453 98.5265 81.6453 104.553C81.6453 110.579 86.6163 115.55 92.6418 115.55Z" fill="#0C0C0C"/>
<path d="M133.013 145.53H92.6418C86.6163 145.53 81.6453 150.502 81.6453 156.528C81.6453 162.554 86.6163 167.525 92.6418 167.525H133.013C139.038 167.525 144.009 162.554 144.009 156.528C144.009 150.502 139.038 145.53 133.013 145.53Z" fill="#0C0C0C"/>
</svg>
