<svg width="345" height="411" viewBox="0 0 345 411" fill="none" xmlns="http://www.w3.org/2000/svg">
<path d="M179.695 132.975C165.501 132.975 153.873 144.446 153.873 158.785V411H205.517V158.785C205.517 144.597 194.04 132.975 179.695 132.975Z" fill="#0C0C0C"/>
<path d="M102.834 216.443C88.6395 216.443 77.0121 227.914 77.0121 242.253V411H128.656V242.253C128.656 228.065 117.179 216.443 102.834 216.443Z" fill="#0C0C0C"/>
<path d="M25.8217 299.911C11.6273 299.911 0 311.382 0 325.721V411H51.6434V325.721C51.6434 311.533 40.1671 299.911 25.8217 299.911Z" fill="#0C0C0C"/>
<path d="M337.494 70.4873L275.129 8.15057C270.146 3.16967 263.653 0 256.405 0C249.459 0 242.513 3.01873 237.68 8.15057L175.316 70.4873C165.349 80.4492 165.349 96.7503 175.316 106.561C185.282 116.523 201.59 116.523 211.406 106.561L230.432 87.5432V411H282.076V87.5432L301.102 106.561C311.068 116.523 327.377 116.523 337.192 106.561C347.007 96.5994 347.158 80.2982 337.192 70.4873H337.494Z" fill="#0C0C0C"/>
</svg>
