<svg width="376" height="409" viewBox="0 0 376 409" fill="none" xmlns="http://www.w3.org/2000/svg">
<path d="M367.993 69.9764L305.982 7.99301C301.003 3.01624 294.515 0 287.424 0C280.484 0 273.543 3.01624 268.866 7.99301L206.855 69.9764C196.897 79.93 196.897 96.0668 206.855 105.87C216.813 115.823 232.957 115.823 242.764 105.87L261.775 86.8673V388.49H236.578V157.749C236.578 143.572 225.111 132.111 210.929 132.111C196.746 132.111 185.279 143.572 185.279 157.749V388.49H160.082V240.846C160.082 226.669 148.616 215.208 134.433 215.208C120.25 215.208 108.784 226.669 108.784 240.846V388.49H83.5869V324.093C83.5869 309.917 72.1201 298.455 57.9375 298.455C43.7549 298.455 32.2881 309.917 32.2881 324.093V388.49H10.2598C4.67725 388.49 0 393.014 0 398.745C0 404.476 4.52637 409 10.2598 409C93.5449 409 176.981 409 260.266 409C285.312 409 310.358 409 335.253 409C340.835 409 345.513 404.476 345.513 398.745C345.513 393.014 340.986 388.49 335.253 388.49H313.224V87.0181L332.235 106.02C342.193 115.974 358.337 115.974 368.144 106.02C378.102 96.0668 378.102 79.93 368.144 70.1272L367.993 69.9764Z" fill="#0C0C0C"/>
</svg>
