<svg width="409" height="409" viewBox="0 0 409 409" fill="none" xmlns="http://www.w3.org/2000/svg">
<path d="M275.381 156.623L220.788 100.697C220.788 100.697 220.486 100.245 220.335 100.094C211.588 91.2001 197.412 91.2001 188.665 100.094L133.619 156.472C124.872 165.366 124.872 179.988 133.619 188.882C142.366 197.776 156.542 197.776 165.289 188.882L182.18 171.546V291.991C182.18 304.653 192.284 314.904 204.5 314.904C216.866 314.904 226.82 304.653 226.82 291.991V171.546L243.711 188.882C252.458 197.776 266.634 197.776 275.381 188.882C284.128 179.988 284.128 165.366 275.381 156.472V156.623Z" fill="#0C0C0C"/>
<path d="M204.5 408.817C91.6932 408.817 0 317.165 0 204.408C0 91.6522 91.6932 0 204.5 0C317.307 0 409 91.6522 409 204.408C409 317.165 317.307 408.817 204.5 408.817ZM204.5 23.0638C104.512 23.0638 23.0741 104.465 23.0741 204.408C23.0741 304.351 104.512 385.753 204.5 385.753C304.488 385.753 385.926 304.351 385.926 204.408C385.926 104.465 304.488 23.0638 204.5 23.0638Z" fill="#0C0C0C"/>
</svg>
