<svg width="325" height="325" viewBox="0 0 325 325" fill="none" xmlns="http://www.w3.org/2000/svg">
<g clip-path="url(#clip0_346_2)">
<path d="M162.5 0C72.8949 0 0 72.8949 0 162.5C0 252.105 72.8949 325 162.5 325C252.105 325 325 252.105 325 162.5C325 72.8949 252.105 0 162.5 0ZM74.1353 283.653C74.1509 283.49 74.1665 283.318 74.1665 283.146C74.5175 259.836 83.8634 237.977 100.48 221.594C117.003 205.298 138.854 196.279 162.048 196.162C162.196 196.17 162.352 196.178 162.5 196.178C185.857 196.178 207.888 205.212 224.52 221.61C241.137 237.993 250.482 259.852 250.834 283.162C250.834 283.326 250.849 283.49 250.865 283.646C226.065 301.783 195.515 312.51 162.5 312.51C129.485 312.51 98.9432 301.783 74.1353 283.646V283.653ZM262.769 273.98C260.367 250.787 250.085 229.294 233.281 212.724C214.41 194.126 189.461 183.829 162.984 183.704C162.82 183.688 162.664 183.688 162.5 183.688C135.835 183.688 110.7 193.994 91.7193 212.717C74.9076 229.294 64.6255 250.787 62.2306 273.988C31.7121 246.504 12.4898 206.71 12.4898 162.508C12.482 79.7834 79.7834 12.482 162.5 12.482C245.217 12.482 312.518 79.7834 312.518 162.5C312.518 206.71 293.296 246.504 262.769 273.98Z" fill="#0C0C0C"/>
<path d="M162.5 71.99C134.657 71.99 112.01 94.6448 112.01 122.48C112.01 150.315 134.657 172.969 162.5 172.969C190.343 172.969 212.99 150.315 212.99 122.48C212.99 94.6448 190.343 71.99 162.5 71.99ZM162.5 160.487C141.538 160.487 124.492 143.434 124.492 122.48C124.492 101.526 141.546 84.472 162.5 84.472C183.454 84.472 200.508 101.526 200.508 122.48C200.508 143.434 183.454 160.487 162.5 160.487Z" fill="#0C0C0C"/>
</g>
<defs>
<clipPath id="clip0_346_2">
<rect width="325" height="325" fill="white"/>
</clipPath>
</defs>
</svg>
