<svg width="377" height="393" viewBox="0 0 377 393" fill="none" xmlns="http://www.w3.org/2000/svg">
<path d="M373.433 230.21L363.941 211.074C359.12 201.431 359.12 190.131 363.941 180.488L373.282 161.201C381.568 144.326 374.789 123.834 358.216 115.095L339.233 105.151C329.742 100.179 323.113 90.9878 321.154 80.4407L317.388 59.3465C314.073 40.8138 296.748 28.3077 278.066 30.8691L256.823 33.8828C246.127 35.3895 235.43 31.9241 227.596 24.5411L212.229 9.77499C198.669 -3.33356 177.276 -3.18289 163.717 9.77499L148.35 24.6915C140.666 32.2251 129.819 35.6907 119.273 34.1839L98.0299 31.1708C79.3483 28.6093 62.0226 41.2658 58.8588 59.7985L55.243 80.8927C53.4351 91.4398 46.8061 100.631 37.3147 105.754L18.4824 115.849C1.91005 124.739 -4.71887 145.08 3.56732 162.106L13.0588 181.241C17.8799 190.884 17.8799 202.184 13.0588 211.828L3.71801 231.114C-4.56818 247.989 2.21143 268.481 18.7838 277.22L37.7667 287.164C47.2582 292.136 53.8871 301.327 55.8457 311.874L59.6121 332.969C62.9266 351.502 80.2523 364.007 98.9338 361.446L120.177 358.433C130.873 356.926 141.57 360.391 149.404 367.774L164.771 382.54C178.331 395.648 199.724 395.498 213.283 382.54L228.65 367.623C236.334 360.09 247.181 356.624 257.727 358.131L278.97 361.145C297.652 363.706 314.977 351.05 318.141 332.517L321.757 311.422C323.565 300.875 330.194 291.684 339.685 286.561L358.518 276.466C375.09 267.577 381.719 247.236 373.433 230.21ZM298.405 134.984L175.92 272.549C172.154 276.918 165.977 279.48 160.252 279.48C154.979 279.48 150.007 277.069 146.09 273.604C143.83 271.645 95.1674 224.484 93.3595 222.827C85.2239 214.992 84.9226 201.883 92.7568 193.596C100.591 185.309 113.698 185.158 121.984 192.993L159.348 229.004L267.671 107.411C275.204 98.9736 288.311 98.0693 296.748 105.754C305.185 113.287 305.938 126.396 298.405 134.833V134.984Z" fill="#0C0C0C"/>
</svg>
