<svg width="400" height="415" viewBox="0 0 400 415" fill="none" xmlns="http://www.w3.org/2000/svg">
<path d="M200.217 415C188.757 415 177.296 410.627 168.399 402.03L153.017 387.25C147.739 382.123 140.35 379.71 132.961 380.766L111.699 383.782C86.9679 387.402 64.3482 370.963 59.9751 346.38L56.2051 325.267C54.8479 318.027 50.324 311.844 43.8397 308.376L24.8391 298.422C2.8226 286.809 -5.92368 260.115 4.93377 237.644L14.2832 218.34C17.6008 211.704 17.45 204.013 14.2832 197.377L4.783 178.224C-6.22525 155.903 2.37022 129.21 24.3867 117.446L43.2365 107.342C49.7208 103.873 54.2447 97.6894 55.6019 90.2995L59.2211 69.1858C63.4434 44.6033 86.0631 28.0139 110.794 31.4826L132.056 34.499C139.446 35.5547 146.684 33.1413 151.962 28.0137L167.343 13.0834C185.137 -4.26015 213.337 -4.41111 231.282 12.9324L246.663 27.7122C251.941 32.8399 259.33 35.2528 266.719 34.1971L287.982 31.1811C312.712 27.5616 335.332 43.9999 339.705 68.5824L343.475 89.6966C344.832 96.9357 349.356 103.119 355.841 106.588L374.841 116.541C396.858 128.154 405.604 154.848 394.747 177.319L385.397 196.623C382.08 203.259 382.23 210.95 385.397 217.586L394.897 236.739C405.906 259.06 397.31 285.754 375.294 297.517L356.444 307.621C349.96 311.09 345.436 317.273 344.078 324.663L340.459 345.777C336.237 370.359 313.617 386.949 288.886 383.48L267.624 380.464C260.235 379.408 252.996 381.821 247.719 386.949L232.337 401.879C223.44 410.626 211.829 415 200.368 415H200.217ZM136.43 358.445C148.192 358.445 159.502 362.97 168.097 371.264L183.479 386.044C192.828 395.093 207.455 394.942 216.654 386.044L232.036 371.113C242.29 361.16 256.163 356.635 270.338 358.596L291.601 361.613C304.419 363.422 316.181 354.826 318.443 342.007L322.062 320.893C324.475 306.867 333.07 294.953 345.737 288.166L364.587 278.062C376.048 271.879 380.572 258.004 374.841 246.391L365.341 227.238C359.007 214.419 359.007 199.79 365.341 186.82L374.69 167.516C380.421 155.903 375.746 142.028 364.285 135.996L345.285 126.042C332.618 119.406 324.022 107.493 321.459 93.467L317.689 72.3528C315.427 59.5337 303.514 51.0885 290.696 52.8982L269.433 55.9142C255.258 57.8748 241.385 53.5011 230.98 43.5474L215.599 28.768C206.249 19.7193 191.622 19.8701 182.423 28.768L167.042 43.6984C156.787 53.652 142.914 58.1767 128.739 56.2161L107.476 53.1997C94.6586 51.3899 82.8963 59.9861 80.6344 72.8052L77.0152 93.9194C74.6025 107.945 66.0069 119.859 53.3399 126.646L34.4902 136.75C23.0295 142.783 18.5056 156.808 24.236 168.421L33.7362 187.574C40.0697 200.393 40.0697 215.022 33.7362 227.992L24.3867 247.296C18.6564 258.909 23.3311 272.783 34.7918 278.816L53.7923 288.77C66.4594 295.405 75.0548 307.32 77.6184 321.345L81.3883 342.459C83.6503 355.278 95.5634 363.724 108.381 361.914L129.644 358.898C131.906 358.596 134.168 358.445 136.279 358.445H136.43Z" fill="#0C0C0C"/>
<path d="M308.188 116.994C299.744 109.453 286.624 110.207 279.084 118.652L170.661 240.359L133.263 204.314C125.12 196.472 112 196.623 104.008 204.917C96.1665 213.061 96.3173 226.182 104.611 234.175C120.596 249.558 136.43 264.941 152.414 280.173C158.295 285.904 164.478 291.484 173.375 290.73C178.502 290.278 183.78 287.864 187.249 283.943L309.847 146.251C317.387 137.806 316.633 124.685 308.188 117.144V116.994Z" fill="#0C0C0C"/>
</svg>
