<svg width="390" height="210" viewBox="0 0 390 210" fill="none" xmlns="http://www.w3.org/2000/svg">
<path d="M387.74 97.6605C336.352 34.6635 267.937 0 195 0C122.063 0 53.6475 34.6635 2.26034 97.6605C1.65756 98.4141 0 100.675 0 104.744C0 107.909 1.65756 110.622 2.26034 111.526C53.6475 174.523 122.063 209.186 195 209.186C267.937 209.186 336.352 174.523 387.74 111.526C389.247 109.717 390 107.155 390 104.593C390 101.73 388.795 99.0169 387.74 97.6605ZM114.076 170.303C81.5262 156.438 51.3872 134.283 25.4676 104.593C51.99 74.1497 82.8825 51.5431 116.488 37.8284C100.815 56.0644 91.1709 79.5752 91.1709 105.497C91.1709 130.063 99.7604 152.519 114.076 170.303ZM194.849 138.202C176.766 138.202 162.148 123.583 162.148 105.497C162.148 87.4122 176.766 72.7933 194.849 72.7933C212.933 72.7933 227.55 87.4122 227.55 105.497C227.55 123.583 212.933 138.202 194.849 138.202ZM275.622 170.303C289.938 152.519 298.528 129.913 298.528 105.497C298.528 79.5752 288.883 55.9137 273.211 37.8284C306.816 51.5431 337.859 74.1497 364.382 104.593C338.462 134.283 308.323 156.588 275.622 170.303Z" fill="#0C0C0C"/>
</svg>
