<svg width="413" height="418" viewBox="0 0 413 418" fill="none" xmlns="http://www.w3.org/2000/svg">
<path d="M169.263 200.483H243.872C246.434 200.483 248.846 199.428 250.654 197.468C253.82 194.152 254.272 188.876 251.86 184.957L220.208 131.595V106.573H222.921C225.936 106.573 228.347 104.01 228.347 100.995C228.347 97.9805 225.936 95.4179 222.921 95.4179H190.515C187.501 95.4179 185.089 97.9805 185.089 100.995C185.089 104.01 187.501 106.573 190.515 106.573H193.228V131.595L161.576 184.957C159.165 188.876 159.617 194.152 162.782 197.468C164.591 199.428 167.002 200.483 169.565 200.483H169.263ZM226.689 163.854H186.747L203.93 134.761V106.573H209.356V134.761L226.539 163.854H226.689Z" fill="#0C0C0C"/>
<path d="M313.959 269.974H248.544C242.515 269.974 237.692 274.798 237.541 280.827C236.185 296.806 222.62 309.468 206.492 309.468C190.365 309.468 176.649 296.806 175.443 280.526C175.443 280.375 175.443 280.224 175.443 280.073C174.991 274.345 170.469 269.823 164.591 269.823H99.1766C93.1476 269.823 88.1737 274.798 88.1737 280.827C88.1737 286.857 93.1476 291.831 99.1766 291.831H155.246C161.275 314.593 182.226 331.476 206.643 331.476C231.06 331.476 251.86 314.744 258.04 291.831H314.109C320.138 291.831 325.112 286.857 325.112 280.827C325.112 274.798 320.138 269.823 314.109 269.823L313.959 269.974Z" fill="#0C0C0C"/>
<path d="M385.402 181.038H323.605C330.99 164.758 334.909 146.82 334.909 128.43C335.06 57.5824 277.483 0 206.643 0C135.803 0 78.2259 57.5824 78.2259 128.43C78.2259 146.82 82.2954 164.758 89.6809 181.038H27.5825C12.3594 181.038 0 193.398 0 208.623V390.415C0 405.639 12.3594 418 27.5825 418H385.251C400.474 418 412.834 405.639 412.834 390.415V208.623C412.834 193.398 400.474 181.038 385.251 181.038H385.402ZM206.643 22.0079C265.275 22.0079 313.054 69.7923 313.054 128.43C313.054 157.221 301.75 184.203 281.251 204.252C261.205 223.848 234.828 234.701 206.794 234.701C190.666 234.701 175.292 231.234 160.973 224.3C124.197 206.663 100.533 168.979 100.533 128.279C100.533 69.6415 148.313 21.8572 206.944 21.8572L206.643 22.0079ZM390.828 390.415C390.828 393.429 388.266 395.992 385.251 395.992H27.5825C24.568 395.992 22.0057 393.429 22.0057 390.415V208.623C22.0057 205.608 24.568 203.046 27.5825 203.046H102.643C115.003 220.23 131.432 234.701 151.176 244.198C168.51 252.488 187.199 256.709 206.492 256.709C240.405 256.709 272.208 243.595 296.474 219.929C301.75 214.653 306.573 208.925 310.793 203.046H385.251C388.266 203.046 390.828 205.608 390.828 208.623V390.415Z" fill="#0C0C0C"/>
<path d="M206.643 61.3509C209.973 61.3509 212.672 58.6513 212.672 55.3213C212.672 51.9913 209.973 49.2917 206.643 49.2917C203.313 49.2917 200.614 51.9913 200.614 55.3213C200.614 58.6513 203.313 61.3509 206.643 61.3509Z" fill="#0C0C0C"/>
<path d="M186.747 85.6199C191.42 85.6199 195.339 81.8514 195.339 77.0278C195.339 72.2041 191.571 68.4356 186.747 68.4356C181.924 68.4356 178.156 72.2041 178.156 77.0278C178.156 81.8514 181.924 85.6199 186.747 85.6199Z" fill="#0C0C0C"/>
<path d="M226.388 85.6199C231.06 85.6199 234.979 81.8514 234.979 77.0278C234.979 72.2041 231.211 68.4356 226.388 68.4356C221.565 68.4356 217.797 72.2041 217.797 77.0278C217.797 81.8514 221.565 85.6199 226.388 85.6199Z" fill="#0C0C0C"/>
</svg>
