<svg width="467" height="418" viewBox="0 0 467 418" fill="none" xmlns="http://www.w3.org/2000/svg">
<path d="M95.0264 354.389L70.9309 319.899C78.0089 316.887 83.4304 312.369 87.1953 306.645C90.9602 300.922 92.9181 293.994 92.9181 286.012C92.9181 278.029 90.9602 271.101 87.1953 265.378C83.4304 259.504 78.0091 255.136 71.0816 251.973C64.1542 248.81 55.8714 247.304 46.3838 247.304H0V354.389H24.8483V324.568H47.5886L68.2202 354.389H94.8759H95.0264ZM62.0457 299.868C58.1302 303.181 52.5581 304.838 45.0282 304.838H24.8483V267.486H45.0282C52.4075 267.486 58.1302 269.143 62.0457 272.306C65.9612 275.469 67.919 280.138 67.919 286.162C67.919 292.187 65.9612 296.705 62.0457 299.868Z" fill="#0C0C0C"/>
<path d="M163.548 333.153C160.235 335.261 154.964 336.316 147.886 336.316C141.561 336.316 135.236 335.261 128.911 333.304C122.586 331.195 117.164 328.484 112.496 325.171L104.062 343.846C108.881 347.461 115.206 350.473 123.188 352.732C131.019 354.992 139.302 356.196 147.735 356.196C157.524 356.196 165.807 354.69 172.734 351.829C179.511 348.817 184.631 344.901 188.095 339.78C191.559 334.659 193.215 329.086 193.215 323.062C193.215 315.983 191.408 310.26 187.643 306.043C183.878 301.826 179.511 298.813 174.24 296.856C168.969 294.898 162.343 292.94 154.211 290.982C146.38 289.174 140.507 287.518 136.742 285.71C132.977 283.903 131.019 281.192 131.019 277.577C131.019 273.963 132.676 270.95 135.989 268.691C139.302 266.432 144.422 265.378 151.35 265.378C161.289 265.378 171.078 268.239 181.017 273.812L188.698 254.985C183.728 251.973 178.156 249.563 171.529 247.907C165.054 246.25 158.277 245.497 151.5 245.497C141.711 245.497 133.429 247.003 126.652 249.865C119.875 252.877 114.754 256.793 111.441 261.914C108.128 267.034 106.321 272.607 106.321 278.782C106.321 285.861 108.128 291.584 111.893 295.952C115.658 300.169 120.025 303.332 125.296 305.29C130.567 307.248 137.193 309.206 145.326 311.164C150.596 312.369 154.813 313.573 157.976 314.477C161.138 315.531 163.698 316.887 165.656 318.544C167.614 320.2 168.668 322.309 168.668 324.869C168.668 328.333 167.012 331.044 163.548 333.153Z" fill="#0C0C0C"/>
<path d="M245.171 270.8C250.442 267.938 256.315 266.432 262.942 266.432C273.634 266.432 282.67 270.649 289.898 278.933L305.862 264.173C300.741 257.998 294.416 253.329 286.887 250.015C279.357 246.702 270.923 245.045 261.737 245.045C250.743 245.045 240.804 247.455 231.919 252.124C223.033 256.943 216.106 263.42 211.136 271.854C206.016 280.288 203.606 289.777 203.606 300.47C203.606 311.164 206.167 320.652 211.136 329.086C216.257 337.521 223.184 344.148 231.919 348.817C240.804 353.636 250.593 355.895 261.586 355.895C270.923 355.895 279.357 354.239 286.887 350.925C294.416 347.612 300.741 342.943 305.862 336.617L289.898 321.857C282.67 330.291 273.634 334.508 262.942 334.508C256.315 334.508 250.442 333.002 245.171 330.141C239.9 327.279 235.985 323.213 232.973 317.941C230.112 312.67 228.606 306.796 228.606 300.169C228.606 293.542 230.112 287.668 232.973 282.397C235.834 277.125 239.9 273.21 245.171 270.197V270.8Z" fill="#0C0C0C"/>
<path d="M467 235.406V190.674C467 155.732 438.688 127.267 403.75 126.966C403.75 125.008 404.201 123.05 404.201 121.092C404.201 54.3708 349.836 0 283.122 0C228.455 0 182.222 36.448 167.162 86.3005H114.905C82.0751 86.3005 54.8172 112.808 51.5041 148.051C51.5041 148.202 51.5041 148.352 51.5041 148.503C51.5041 148.654 51.5041 148.804 51.5041 148.955V229.833C51.5041 235.858 56.4737 240.828 62.4976 240.828C68.5214 240.828 73.491 235.858 73.491 229.833V190.524C73.491 167.48 92.1651 148.804 115.206 148.804H392.003H403.298C426.339 148.804 445.013 167.48 445.013 190.524V224.261H389.142C362.787 224.261 341.403 245.648 341.403 272.005C341.403 298.362 362.787 319.749 389.142 319.749H445.013V353.486C445.013 376.529 426.339 395.205 403.298 395.205H115.206C98.3395 395.205 82.6775 384.512 76.3524 368.697C74.0935 362.974 67.7685 360.263 62.0458 362.522C56.3231 364.781 53.6123 371.107 55.8713 376.83C65.5095 400.928 89.3038 417.194 115.206 417.194H403.298C438.387 417.194 467 388.578 467 353.486V308.754C467 302.729 462.03 297.759 456.007 297.759H389.142C374.986 297.759 363.39 286.162 363.39 272.005C363.39 257.847 374.986 246.25 389.142 246.25H456.007C462.03 246.25 467 241.28 467 235.255V235.406ZM283.122 21.9893C337.788 21.9893 382.214 66.4197 382.214 121.092C382.214 123.05 381.913 125.008 381.762 126.966H184.481C184.481 125.008 184.029 123.05 184.029 121.092C184.029 66.4197 228.455 21.9893 283.122 21.9893ZM74.8466 141.575C80.1175 122.297 96.3818 108.139 114.755 108.139H162.644C162.193 112.356 161.891 116.724 161.891 120.941C161.891 122.899 162.193 124.857 162.343 126.815H115.056C99.695 126.815 85.8401 132.538 74.8466 141.575Z" fill="#0C0C0C"/>
<path d="M393.358 288.873C402.674 288.873 410.225 281.321 410.225 272.005C410.225 262.688 402.674 255.136 393.358 255.136C384.043 255.136 376.492 262.688 376.492 272.005C376.492 281.321 384.043 288.873 393.358 288.873Z" fill="#0C0C0C"/>
</svg>
