<svg width="386" height="403" viewBox="0 0 386 403" fill="none" xmlns="http://www.w3.org/2000/svg">
<path d="M360.377 152.094H340.783C340.482 68.1333 274.013 0 192.472 0C110.932 0 44.4631 68.1333 44.1617 152.094H25.472C11.4548 152.094 0 163.55 0 177.569V377.446C0 391.465 11.4548 402.921 25.472 402.921H360.528C374.545 402.921 386 391.465 386 377.446V177.569C386 163.55 374.545 152.094 360.528 152.094H360.377ZM367.913 177.569V201.385C365.502 200.631 362.939 200.179 360.377 200.179H333.549C336.563 190.532 338.673 180.433 339.879 170.032H360.377C364.597 170.032 367.913 173.499 367.913 177.569ZM326.465 217.966H360.377C364.597 217.966 367.913 221.433 367.913 225.503V250.375C365.502 249.621 362.939 249.169 360.377 249.169H307.323C315.01 239.522 321.34 229.121 326.465 217.966ZM192.322 17.787C264.216 17.787 322.847 78.2327 322.847 152.546C322.847 171.087 319.23 188.874 312.598 205.304C312.598 205.455 312.598 205.606 312.447 205.907C305.816 221.885 296.019 236.507 283.509 249.169H237.991C233.017 249.169 229.098 253.239 229.098 258.062C229.098 258.665 229.249 259.118 229.399 259.721C229.399 260.022 229.098 260.323 229.098 260.776C227.741 277.96 213.272 291.375 195.939 291.375C178.606 291.375 163.986 277.809 162.78 260.625C162.78 259.871 162.479 259.118 162.177 258.364C162.177 258.364 162.177 258.213 162.177 258.062C162.177 253.088 158.108 249.169 153.285 249.169H101.436C75.964 223.544 61.9469 189.477 61.9469 152.697C61.9469 78.3835 120.427 17.9378 192.472 17.9378L192.322 17.787ZM77.4713 249.018H25.3214C22.6084 249.018 20.1968 249.47 17.7852 250.224V225.352C17.7852 221.132 21.2519 217.816 25.3214 217.816H58.3295C63.454 228.819 69.7844 239.371 77.4713 249.018ZM25.3214 170.032H44.9152C45.9703 180.282 48.0803 190.381 51.2455 200.179H25.3214C22.6084 200.179 20.1968 200.631 17.7852 201.385V177.569C17.7852 173.348 21.2519 170.032 25.3214 170.032ZM367.913 377.446C367.913 381.667 364.447 384.983 360.377 384.983H25.3214C21.1011 384.983 17.7852 381.516 17.7852 377.446V274.493C17.7852 270.272 21.2519 266.956 25.3214 266.956H145.749C149.969 290.923 170.919 309.162 195.788 309.162C220.658 309.162 241.608 290.923 245.828 266.956H360.226C364.447 266.956 367.762 270.423 367.762 274.493V377.446H367.913Z" fill="#0C0C0C"/>
<path d="M143.186 236.356H241.608C244.773 236.356 247.938 235 250.199 232.739C254.269 228.518 254.872 222.036 251.706 217.062L209.806 148.175V115.465H213.724C217.492 115.465 220.507 112.45 220.507 108.531C220.507 104.612 217.492 101.597 213.724 101.597H170.919C167.151 101.597 164.287 104.612 164.287 108.531C164.287 112.45 167.302 115.465 170.919 115.465H174.838V148.175L132.937 217.062C129.772 222.036 130.375 228.518 134.444 232.739C136.705 235.15 139.72 236.356 143.036 236.356H143.186ZM219.452 189.929H165.192L188.252 152.094V115.465H196.391V152.094L219.452 190.08V189.929Z" fill="#0C0C0C"/>
<path d="M166.397 87.8799C166.397 87.8799 166.397 87.8799 166.548 87.8799C166.548 87.8799 166.548 87.8799 166.699 87.8799C172.426 87.8799 176.948 83.2071 176.948 77.6298C176.948 72.0525 172.426 67.3797 166.699 67.3797C166.699 67.3797 166.699 67.3797 166.548 67.3797C166.548 67.3797 166.548 67.3797 166.397 67.3797C160.971 67.3797 156.45 72.0525 156.45 77.6298C156.45 83.2071 160.971 87.8799 166.397 87.8799Z" fill="#0C0C0C"/>
<path d="M192.322 56.828C196.241 56.828 199.406 53.6625 199.406 49.7434C199.406 45.8242 196.241 42.6587 192.322 42.6587C188.403 42.6587 185.238 45.8242 185.238 49.7434C185.238 53.6625 188.403 56.828 192.322 56.828Z" fill="#0C0C0C"/>
<path d="M218.397 87.8799C224.124 87.8799 228.646 83.2071 228.646 77.6298C228.646 72.0525 224.124 67.3797 218.397 67.3797C212.669 67.3797 208.148 72.0525 208.148 77.6298C208.148 83.2071 212.82 87.8799 218.397 87.8799Z" fill="#0C0C0C"/>
</svg>
