<svg width="390" height="407" viewBox="0 0 390 407" fill="none" xmlns="http://www.w3.org/2000/svg">
<path d="M362.528 151.985H353.04C360.721 137.524 364.938 121.106 364.938 103.783C364.938 46.5444 318.398 0 261.165 0C217.035 0 178.478 28.017 163.868 68.8375C157.091 67.4819 150.012 66.7287 142.782 66.7287C91.8748 66.7287 49.4014 103.633 40.6658 152.135H27.5624C12.3504 152.135 0 164.487 0 179.701V379.435C0 394.648 12.3504 407 27.5624 407H362.378C377.59 407 389.94 394.648 389.94 379.435V179.701C389.94 164.487 377.59 152.135 362.378 152.135L362.528 151.985ZM341.292 173.977H362.528C365.541 173.977 368.101 176.537 368.101 179.55V200.487C366.294 200.186 364.486 199.885 362.528 199.885H300.174C314.784 194.01 327.736 184.822 338.129 173.374C339.183 173.675 340.237 173.977 341.292 173.977ZM240.079 248.839C234.054 248.839 229.084 253.81 229.084 259.835C229.084 260.438 229.385 260.89 229.385 261.342C229.385 261.643 229.084 261.944 229.084 262.245C227.879 278.363 214.173 291.016 198.058 291.016C184.804 291.016 173.357 282.58 168.989 270.681C196.401 263.601 219.144 245.676 232.85 221.877H362.528C365.541 221.877 368.101 224.437 368.101 227.45V249.442C366.294 249.141 364.486 248.839 362.528 248.839H240.079ZM276.678 128.487H246.103L259.508 105.892V83.7498H263.274V105.892L276.678 128.487ZM261.316 21.8412C306.349 21.8412 343.099 58.5947 343.099 103.633C343.099 148.671 306.349 185.424 261.316 185.424C256.044 185.424 250.923 184.671 245.802 183.768C246.405 179.399 246.706 174.88 246.706 170.362C246.706 166.144 246.405 162.077 245.953 158.01H290.836C292.944 158.01 294.903 157.106 296.409 155.6C298.969 152.889 299.421 148.52 297.463 145.357L272.461 103.181V83.7498H274.268C276.829 83.7498 278.787 81.641 278.787 78.9297C278.787 76.2184 276.678 74.1096 274.268 74.1096H248.513C245.953 74.1096 243.995 76.2184 243.995 78.9297C243.995 81.641 246.103 83.7498 248.513 83.7498H250.321V103.181L236.615 126.077C225.921 103.633 207.546 85.5574 184.804 75.4652C196.552 43.6825 226.825 21.8412 261.316 21.8412ZM142.933 88.57C187.967 88.57 224.716 125.323 224.716 170.362C224.716 209.073 197.455 241.91 160.253 249.894C158.898 249.291 157.241 248.839 155.584 248.839H120.19C85.3984 238.747 60.9988 206.663 60.9988 170.362C60.9988 125.323 97.7487 88.57 142.782 88.57H142.933ZM75.4578 248.839H27.7129C25.755 248.839 23.9477 248.99 22.1403 249.442V227.45C22.1403 224.437 24.7007 221.877 27.7129 221.877H53.0162C58.8902 232.12 66.421 241.157 75.4578 248.839ZM27.7129 173.977H39.3103C39.6115 182.864 41.1177 191.6 43.5275 199.885H27.5624C25.6044 199.885 23.7971 200.036 21.9898 200.487V179.55C21.9898 176.537 24.5501 173.977 27.5624 173.977H27.7129ZM368.101 379.284C368.101 382.297 365.541 384.858 362.528 384.858H27.7129C24.7007 384.858 22.1403 382.297 22.1403 379.284V276.405C22.1403 273.392 24.7007 270.831 27.7129 270.831H146.246C151.367 294.932 172.755 313.007 198.058 313.007C223.361 313.007 244.748 294.932 249.869 270.831H362.528C365.541 270.831 368.101 273.392 368.101 276.405V379.284Z" fill="#0C0C0C"/>
<path d="M113.412 224.739H172.453C174.562 224.739 176.52 223.835 178.026 222.329C180.586 219.617 181.038 215.249 179.08 212.086L154.078 169.91V150.479H155.885C158.446 150.479 160.404 148.37 160.404 145.658C160.404 142.947 158.295 140.838 155.885 140.838H130.13C127.57 140.838 125.612 142.947 125.612 145.658C125.612 148.37 127.721 150.479 130.13 150.479H131.938V169.91L106.936 212.086C104.978 215.249 105.279 219.617 107.99 222.329C109.496 223.835 111.454 224.739 113.563 224.739H113.412ZM158.295 195.065H127.721L141.125 172.47V150.328H144.891V172.47L158.295 195.065Z" fill="#0C0C0C"/>
<path d="M142.933 113.876C145.262 113.876 147.15 111.92 147.15 109.507C147.15 107.095 145.262 105.139 142.933 105.139C140.604 105.139 138.716 107.095 138.716 109.507C138.716 111.92 140.604 113.876 142.933 113.876Z" fill="#0C0C0C"/>
<path d="M127.269 132.855C130.596 132.855 133.293 130.022 133.293 126.528C133.293 123.034 130.596 120.202 127.269 120.202C123.941 120.202 121.244 123.034 121.244 126.528C121.244 130.022 123.941 132.855 127.269 132.855Z" fill="#0C0C0C"/>
<path d="M158.597 132.855C161.91 132.855 164.621 129.993 164.621 126.528C164.621 123.064 161.91 120.202 158.597 120.202C155.283 120.202 152.572 123.064 152.572 126.528C152.572 129.993 155.283 132.855 158.597 132.855Z" fill="#0C0C0C"/>
<path d="M261.316 47.1469C263.645 47.1469 265.533 45.1912 265.533 42.7787C265.533 40.3662 263.645 38.4104 261.316 38.4104C258.986 38.4104 257.098 40.3662 257.098 42.7787C257.098 45.1912 258.986 47.1469 261.316 47.1469Z" fill="#0C0C0C"/>
<path d="M245.651 66.2768C248.979 66.2768 251.676 63.4444 251.676 59.9504C251.676 56.4564 248.979 53.624 245.651 53.624C242.324 53.624 239.627 56.4564 239.627 59.9504C239.627 63.4444 242.324 66.2768 245.651 66.2768Z" fill="#0C0C0C"/>
<path d="M276.829 66.2768C280.142 66.2768 282.853 63.4149 282.853 59.9504C282.853 56.4859 280.142 53.624 276.829 53.624C273.515 53.624 270.804 56.4859 270.804 59.9504C270.804 63.4149 273.515 66.2768 276.829 66.2768Z" fill="#0C0C0C"/>
</svg>
