<svg width="413" height="419" viewBox="0 0 413 419" fill="none" xmlns="http://www.w3.org/2000/svg">
<path d="M134.5 210.969H193.306C195.417 210.969 197.377 210.064 198.885 208.556C201.449 205.842 201.901 201.469 199.941 198.302L175.061 156.38V137.077H176.871C179.434 137.077 181.394 134.966 181.394 132.402C181.394 129.839 179.283 127.728 176.871 127.728H151.237C148.674 127.728 146.714 129.839 146.714 132.402C146.714 134.966 148.825 137.077 151.237 137.077H153.047V156.38L128.167 198.302C126.207 201.469 126.509 205.842 129.223 208.556C130.731 210.064 132.691 210.969 134.802 210.969H134.5ZM179.132 181.563H148.674L162.094 159.094V137.077H165.863V159.094L179.283 181.563H179.132Z" fill="#0C0C0C"/>
<path d="M313.783 270.535H248.343C242.311 270.535 237.486 275.361 237.335 281.393C235.978 297.378 222.408 310.045 206.274 310.045C190.14 310.045 176.418 297.378 175.212 281.091C175.212 280.94 175.212 280.79 175.212 280.639C174.76 274.908 170.236 270.384 164.356 270.384H98.9149C92.8835 270.384 87.9076 275.361 87.9076 281.393C87.9076 287.425 92.8835 292.401 98.9149 292.401H155.007C161.038 315.172 181.997 332.062 206.425 332.062C230.852 332.062 251.66 315.323 257.842 292.401H313.934C319.966 292.401 324.942 287.425 324.942 281.393C324.942 275.361 319.966 270.384 313.934 270.384L313.783 270.535Z" fill="#0C0C0C"/>
<path d="M385.256 188.952H261.16C261.913 186.841 262.667 184.73 263.271 182.619C268.85 183.674 274.429 184.278 280.158 184.278C304.435 184.278 327.354 174.928 344.694 157.888C362.487 140.395 372.288 117.021 372.288 92.1388C372.288 41.3192 330.973 0 280.158 0C259.953 0 240.804 6.4844 224.67 18.5484C212.004 28.1996 202.052 41.1684 195.719 55.6452C185.616 52.3276 174.911 50.518 163.903 50.518C106.907 50.518 60.4647 96.9644 60.4647 153.967C60.4647 166.031 62.8773 177.793 66.9485 188.952H27.5936C12.3643 188.952 0 201.318 0 216.549V391.175C0 406.406 12.3643 418.772 27.5936 418.772H385.406C400.636 418.772 413 406.406 413 391.175V216.549C413 201.318 400.636 188.952 385.406 188.952H385.256ZM293.277 116.116H267.191L278.801 96.512V77.3604H281.666V96.512L293.277 116.116ZM280.158 21.866C318.91 21.866 350.273 53.3832 350.273 91.988C350.273 110.989 342.885 128.783 329.314 142.054C316.045 155.022 298.705 162.11 280.158 162.11C275.635 162.11 271.262 161.507 267.04 160.753C267.04 158.491 267.342 156.229 267.342 153.816C267.342 149.895 267.04 145.974 266.588 142.204H305.943C307.752 142.204 309.562 141.45 310.919 140.093C313.18 137.68 313.633 133.76 311.823 130.894L289.959 94.0992V77.3604H291.317C293.578 77.3604 295.539 75.4 295.539 72.9872C295.539 70.5744 293.729 68.614 291.317 68.614H268.85C266.588 68.614 264.628 70.5744 264.628 72.9872C264.628 75.4 266.437 77.3604 268.85 77.3604H270.207V94.0992L258.898 113.251C250.152 92.742 234.772 75.7016 215.773 64.5424C226.63 39.0572 251.962 21.866 280.158 21.866ZM163.903 72.5348C208.837 72.5348 245.327 109.028 245.327 153.967C245.327 175.984 236.732 196.643 220.9 212.025C205.52 227.105 185.315 235.399 163.903 235.399C151.539 235.399 139.778 232.684 128.77 227.406C100.574 213.985 82.4793 185.032 82.4793 153.967C82.4793 109.028 118.969 72.5348 163.903 72.5348ZM390.835 391.175C390.835 394.191 388.271 396.755 385.256 396.755H27.4429C24.4272 396.755 21.8638 394.191 21.8638 391.175V216.549C21.8638 213.533 24.4272 210.969 27.4429 210.969H77.805C87.9076 226.351 102.081 239.169 119.271 247.312C133.294 253.947 148.222 257.416 163.903 257.416C191.195 257.416 216.98 246.86 236.431 227.708C241.708 222.581 246.232 216.85 250.303 210.969H385.406C388.422 210.969 390.985 213.533 390.985 216.549V391.175H390.835Z" fill="#0C0C0C"/>
<path d="M163.903 101.187C166.467 101.187 168.578 99.0756 168.578 96.512C168.578 93.9484 166.467 91.8372 163.903 91.8372C161.34 91.8372 159.229 93.9484 159.229 96.512C159.229 99.0756 161.34 101.187 163.903 101.187Z" fill="#0C0C0C"/>
<path d="M148.222 120.188C151.991 120.188 155.007 117.172 155.007 113.402C155.007 109.632 151.991 106.616 148.222 106.616C144.452 106.616 141.436 109.632 141.436 113.402C141.436 117.172 144.452 120.188 148.222 120.188Z" fill="#0C0C0C"/>
<path d="M179.434 120.188C183.204 120.188 186.219 117.172 186.219 113.402C186.219 109.632 183.204 106.616 179.434 106.616C175.664 106.616 172.649 109.632 172.649 113.402C172.649 117.172 175.664 120.188 179.434 120.188Z" fill="#0C0C0C"/>
<path d="M280.158 45.6924C282.42 45.6924 284.38 43.8828 284.38 41.47C284.38 39.0572 282.571 37.2476 280.158 37.2476C277.746 37.2476 275.936 39.0572 275.936 41.47C275.936 43.8828 277.746 45.6924 280.158 45.6924Z" fill="#0C0C0C"/>
<path d="M266.437 62.4312C269.754 62.4312 272.318 59.7168 272.318 56.55C272.318 53.3832 269.603 50.6688 266.437 50.6688C263.27 50.6688 260.556 53.3832 260.556 56.55C260.556 59.7168 263.27 62.4312 266.437 62.4312Z" fill="#0C0C0C"/>
<path d="M293.88 62.4312C297.197 62.4312 299.76 59.7168 299.76 56.55C299.76 53.3832 297.046 50.6688 293.88 50.6688C290.713 50.6688 287.999 53.3832 287.999 56.55C287.999 59.7168 290.713 62.4312 293.88 62.4312Z" fill="#0C0C0C"/>
</svg>
