<svg width="318" height="407" viewBox="0 0 318 407" fill="none" xmlns="http://www.w3.org/2000/svg">
<path d="M51.9952 178.912C51.9952 184.941 56.9688 189.915 62.9972 189.915H254.4C260.428 189.915 265.402 184.941 265.402 178.912C265.402 172.883 260.428 167.909 254.4 167.909H62.9972C56.9688 167.909 51.9952 172.883 51.9952 178.912Z" fill="#0C0C0C"/>
<path d="M205.871 230.912H62.9972C56.9688 230.912 51.9952 235.886 51.9952 241.915C51.9952 247.944 56.9688 252.918 62.9972 252.918H205.871C211.9 252.918 216.873 247.944 216.873 241.915C216.873 235.886 211.9 230.912 205.871 230.912Z" fill="#0C0C0C"/>
<path d="M137.901 293.765H62.9972C56.9688 293.765 51.9952 298.739 51.9952 304.768C51.9952 310.797 56.9688 315.771 62.9972 315.771H137.901C143.929 315.771 148.902 310.797 148.902 304.768C148.902 298.739 143.929 293.765 137.901 293.765Z" fill="#0C0C0C"/>
<path d="M317.699 126.007C317.699 123.445 316.644 121.184 315.136 119.375C314.986 119.073 314.684 118.923 314.534 118.621L196.527 3.16535C194.568 1.35663 192.156 0.150726 189.293 0C189.142 0 188.991 0 188.841 0H40.5413C18.2361 0 0 18.2379 0 40.5453V365.963C0 388.27 18.2361 406.508 40.5413 406.508H277.459C299.764 406.508 318 388.27 318 365.963V126.61C318 126.61 318 126.158 318 126.007H317.699ZM199.692 37.0787L279.719 115.456H218.23C207.981 115.456 199.692 107.166 199.692 96.9169V37.0787ZM295.695 365.963C295.695 376.212 287.406 384.502 277.157 384.502H40.2398C29.9914 384.502 21.7024 376.212 21.7024 365.963V40.5453C21.7024 30.2959 29.9914 22.0061 40.2398 22.0061H177.537V96.9169C177.537 119.224 195.773 137.462 218.079 137.462H295.544V365.963H295.695Z" fill="#0C0C0C"/>
</svg>
