<svg width="24" height="24" viewBox="0 0 24 24" fill="none" xmlns="http://www.w3.org/2000/svg">
  <path d="M12 24C18.6274 24 24 18.6274 24 12C24 5.37258 18.6274 0 12 0C5.37258 0 0 5.37258 0 12C0 18.6274 5.37258 24 12 24Z" fill="#0052FF"/>
  <path fill-rule="evenodd" clip-rule="evenodd" d="M12.0001 4.79999C8.0589 4.79999 4.80005 8.05884 4.80005 12C4.80005 15.9412 8.0589 19.2 12.0001 19.2C15.9412 19.2 19.2001 15.9412 19.2001 12C19.2001 8.05884 15.9412 4.79999 12.0001 4.79999ZM7.20005 12C7.20005 9.34903 9.34908 7.19999 12.0001 7.19999C14.651 7.19999 16.8001 9.34903 16.8001 12C16.8001 14.651 14.651 16.8 12.0001 16.8C9.34908 16.8 7.20005 14.651 7.20005 12Z" fill="white"/>
</svg> 