<?xml version="1.0" encoding="UTF-8" standalone="no"?>
<svg
   width="32"
   height="32"
   viewBox="0 0 1000 1000"
   fill="none"
   version="1.1"
   id="svg6"
   sodipodi:docname="coinbase_wallet-logo.svg"
   inkscape:export-filename="coinbase_wallet-logo.svg"
   inkscape:export-xdpi="3.072"
   inkscape:export-ydpi="3.072"
   xmlns:inkscape="http://www.inkscape.org/namespaces/inkscape"
   xmlns:sodipodi="http://sodipodi.sourceforge.net/DTD/sodipodi-0.dtd"
   xmlns="http://www.w3.org/2000/svg"
   xmlns:svg="http://www.w3.org/2000/svg">
  <defs
     id="defs10" />
  <sodipodi:namedview
     id="namedview8"
     pagecolor="#ffffff"
     bordercolor="#000000"
     borderopacity="0.25"
     inkscape:showpageshadow="2"
     inkscape:pageopacity="0.0"
     inkscape:pagecheckerboard="0"
     inkscape:deskcolor="#d1d1d1"
     showgrid="false" />
  <circle
     cx="500"
     cy="500"
     r="500"
     fill="#0052ff"
     id="circle2" />
  <path
     fill-rule="evenodd"
     clip-rule="evenodd"
     d="M 150,500 C 150,693.3 306.7,850 500,850 693.3,850 850,693.3 850,500 850,306.7 693.3,150 500,150 306.7,150 150,306.7 150,500 Z M 410.556,387.222 c -12.887,0 -23.334,10.447 -23.334,23.334 v 178.888 c 0,12.887 10.447,23.334 23.334,23.334 h 178.888 c 12.887,0 23.334,-10.447 23.334,-23.334 V 410.556 c 0,-12.887 -10.447,-23.334 -23.334,-23.334 z"
     fill="#ffffff"
     id="path4" />
</svg>
