<svg width="1070" height="1070" viewBox="0 0 1070 1070" fill="none" xmlns="http://www.w3.org/2000/svg">
<path d="M463.054 0L329.803 35.7039L437.453 437.454L35.7043 329.807L0 463.055L253.723 530.839L0.00408584 606.937L35.7084 740.185L35.7225 740.182L35.7235 740.186L437.448 632.545L329.81 1034.25L329.811 1034.25L329.799 1034.3L463.05 1070L463.06 1069.96L534.086 804.893L504.135 685.332C489.036 625.059 441.974 577.997 381.7 562.898L253.723 530.839L381.7 498.781C441.974 483.682 489.036 436.62 504.135 376.347L538.191 256.577L463.054 0Z" fill="black"/>
<path d="M538.191 256.577L567.97 378.909C583.157 441.296 632.499 489.618 695.189 503.499L801.771 535.071L1070 463.055L1034.3 329.806L632.542 437.455L740.183 35.735L606.933 0.0310653L538.191 256.577Z" fill="black"/>
<path d="M801.771 535.071L690.687 562.898C630.414 577.997 583.351 625.059 568.252 685.332L534.086 804.893L606.937 1069.97L740.187 1034.26L632.545 632.544L1034.28 740.186L1069.98 606.937L801.771 535.071Z" fill="black"/>
<path d="M249.726 304.593C298.787 291.447 327.902 241.018 314.756 191.958C301.61 142.897 251.181 113.782 202.12 126.928C153.059 140.073 123.943 190.502 137.089 239.563C150.235 288.624 200.664 317.739 249.726 304.593Z" fill="black"/>
<path d="M314.756 817.595C327.902 866.656 298.787 917.084 249.726 930.23C200.664 943.376 150.235 914.261 137.089 865.2C123.943 816.139 153.059 765.71 202.12 752.565C251.181 739.419 301.61 768.534 314.756 817.595Z" fill="black"/>
<path d="M868.625 304.593C917.687 291.447 946.802 241.019 933.656 191.958C920.51 142.897 870.081 113.782 821.02 126.928C771.958 140.073 742.843 190.502 755.989 239.563C769.135 288.624 819.564 317.739 868.625 304.593Z" fill="black"/>
<path d="M933.656 817.594C946.802 866.655 917.687 917.084 868.625 930.229C819.564 943.375 769.135 914.26 755.989 865.2C742.843 816.139 771.958 765.71 821.02 752.564C870.081 739.419 920.51 768.533 933.656 817.594Z" fill="black"/>
</svg>
