<svg width="2810" height="500" xmlns="http://www.w3.org/2000/svg" xmlns:xlink="http://www.w3.org/1999/xlink" xml:space="preserve" overflow="hidden"><defs><clipPath id="clip0"><rect x="760" y="980" width="2810" height="500"/></clipPath><clipPath id="clip1"><rect x="760" y="980" width="2810" height="500"/></clipPath></defs><g clip-path="url(#clip0)" transform="translate(-760 -980)"><g clip-path="url(#clip1)"><path d="M1852.36 1019.78 1820.8 1010.65 1820.8 988 1944.08 988C2024.36 988 2054 1013.51 2054 1073.82 2054 1130.21 2021.61 1159.46 1958.16 1159.46L1908.29 1159.46 1908.29 1249.78 1940.25 1258.92 1940.25 1280 1820 1280 1820 1258.92 1852.36 1249.78ZM1908.29 1018.78 1908.29 1131.58 1967.01 1127.25C1981.6 1120.58 1996.66 1111.8 1996.66 1075.38 1996.66 1047.87 1995.35 1018.68 1941.66 1018.68Z" fill="#000000" fill-rule="evenodd" fill-opacity="1"/><path d="M2510.81 1155.66 2471.14 1155.66 2471.14 1249.78 2502.98 1258.92 2502.98 1280 2383 1280 2383 1258.92 2415.28 1249.78 2415.28 1019.65 2383.4 1010.51 2383.4 988 2511.78 988C2587.87 988 2615.47 1014.92 2615.47 1066.64 2615.47 1106.67 2599.82 1127.45 2563.69 1141.75L2617.98 1247.41 2653 1258.92 2653 1280 2571.48 1280ZM2471.14 1018.98 2471.14 1130.21 2530.41 1126.25C2549.24 1116.94 2558.31 1102.07 2558.31 1071.41 2558.31 1039.26 2547.87 1018.98 2514.42 1018.98Z" fill="#000000" fill-rule="evenodd" fill-opacity="1"/><path d="M2677 1258.92 2708.75 1250.18 2708.75 1019.78 2677.27 1010.65 2677.27 988 2819.16 988C2899.26 988 2946 1036.13 2946 1130.82 2946 1237.91 2897.52 1280 2813.04 1280L2677 1280ZM2765.09 1018.98 2765.09 1249.78 2807.02 1249.78C2835.82 1249.78 2885.44 1245.15 2885.44 1139.72 2885.44 1056.71 2870.49 1018.95 2807.02 1018.95Z" fill="#000000" fill-rule="evenodd" fill-opacity="1"/><path d="M1943.8 1431.76C1943.8 1467.04 1923.21 1480 1889.53 1480 1855.85 1480 1835.27 1460.11 1835.27 1431.76L1835.27 1361 1820 1356.26 1820 1343 1882.35 1343 1882.35 1356.26 1867.28 1361 1867.28 1431.76C1867.28 1449.99 1874.33 1459.94 1894.38 1459.94 1904.2 1459.94 1920.81 1456.89 1920.81 1430.83L1920.81 1361 1905.54 1356.26 1905.54 1343 1959 1343 1959 1356.26 1943.73 1361Z" fill="#000000" fill-rule="evenodd" fill-opacity="1"/><path d="M2051.85 1395.68 2051.85 1460.96 2066.9 1465.56 2066.9 1478.9 2014.37 1478.9 2014.37 1465.56 2029.79 1460.96 2029.79 1368.34 2023.11 1360.1 2014 1357.27 2014 1343 2048.41 1343 2114.72 1426.35 2114.72 1361.17 2099.47 1356.6 2099.47 1343 2152 1343 2152 1356.6 2136.78 1361.17 2136.78 1479 2118.96 1479Z" fill="#000000" fill-rule="evenodd" fill-opacity="1"/><path d="M2266.62 1460.18 2282 1464.75 2282 1478 2219 1478 2219 1464.75 2234.38 1460.18 2234.38 1360.82 2219 1356.25 2219 1343 2282 1343 2282 1356.25 2266.62 1360.82Z" fill="#000000" fill-rule="evenodd" fill-opacity="1"/><path d="M3109.86 1460.18 3125 1464.75 3125 1478 3063 1478 3063 1464.75 3078.11 1460.18 3078.11 1360.82 3063 1356.25 3063 1343 3125 1343 3125 1356.25 3109.86 1360.82Z" fill="#000000" fill-rule="evenodd" fill-opacity="1"/><path d="M2425.2 1478 2395.7 1478 2352.32 1361 2337 1356.26 2337 1343 2403.07 1343 2403.07 1356.26 2387.55 1361 2416.35 1444.22 2445.68 1361 2430.36 1356.26 2430.36 1343 2484 1343 2484 1356.26 2468.68 1361Z" fill="#000000" fill-rule="evenodd" fill-opacity="1"/><path d="M2549.26 1361.18 2534 1356.61 2534 1343 2640.86 1343 2642.06 1384.85 2625 1384.85 2616.72 1360.91 2581.25 1360.91 2581.25 1399.19 2616.55 1399.19 2616.55 1418.47 2581.25 1418.47 2581.25 1461.56 2617.45 1461.56 2628.3 1437.75 2645 1437.75 2642.6 1479 2534 1479 2534 1465.66 2549.26 1461.86Z" fill="#000000" fill-rule="evenodd" fill-opacity="1"/><path d="M2772.8 1422.85 2761.22 1422.85 2761.22 1460.18 2776.48 1464.75 2776.48 1478 2714 1478 2714 1464.75 2729.26 1460.18 2729.26 1361.05 2714 1356.51 2714 1343 2776.11 1343C2814.18 1343 2825.93 1357.61 2825.93 1380.39 2825.93 1395.33 2822.59 1408.94 2803.93 1415.7L2825.9 1459.68 2845 1465.51 2845 1477.93 2798.92 1477.93ZM2761.22 1361.05 2761.22 1408.28 2782.72 1406.46C2789.89 1400.78 2793.87 1392.03 2793.41 1382.94 2793.41 1369.43 2789.8 1361.05 2775.84 1361.05Z" fill="#000000" fill-rule="evenodd" fill-opacity="1"/><path d="M2900.57 1436.05 2919.61 1436.05 2923.68 1455.08C2932.41 1460.29 2942.42 1463.02 2952.61 1462.97 2954.1 1463 2955.58 1462.93 2957.05 1462.77 2962.34 1458.97 2965.49 1452.92 2965.56 1446.46 2965.56 1414.79 2900 1428.9 2900 1382.55 2900 1361.33 2919.65 1341 2952.24 1341 2965.2 1341.28 2977.92 1344.46 2989.45 1350.32L2989.45 1386.05 2971.49 1386.05 2964.99 1363.32C2957.92 1360.54 2950.4 1359.06 2942.79 1358.93 2941.55 1358.9 2940.32 1358.96 2939.09 1359.13 2933.46 1362.51 2930.01 1368.55 2930.01 1375.07 2930.01 1402.15 2995 1392.43 2995 1437.88 2995 1462.4 2972.6 1480 2942.42 1480 2927.63 1479.91 2913.17 1475.65 2900.74 1467.72Z" fill="#000000" fill-rule="evenodd" fill-opacity="1"/><path d="M3233.51 1361.5 3215.96 1361.5 3207.99 1385.57 3191 1385.57 3191 1343 3309 1343 3309 1385.57 3292.38 1385.57 3284.44 1361.5 3265.39 1361.5 3265.39 1461.07 3280.58 1465.67 3280.58 1479 3218.36 1479 3218.36 1465.67 3233.51 1461.07Z" fill="#000000" fill-rule="evenodd" fill-opacity="1"/><path d="M3415.99 1425.94 3380.28 1360.99 3365 1356.25 3365 1343 3430.9 1343 3430.9 1356.25 3415.45 1360.99 3437.88 1404.97 3460.52 1360.99 3445.24 1356.25 3445.24 1343 3499 1343 3499 1356.25 3483.72 1360.99 3447.81 1425.58 3447.81 1460.17 3463.09 1464.75 3463.09 1478 3400.54 1478 3400.54 1464.75 3415.99 1460.17Z" fill="#000000" fill-rule="evenodd" fill-opacity="1"/><path d="M3473.81 1195.39 3453.04 1249.82 3361.21 1249.82 3361.21 1144.76 3413.24 1144.76 3419.94 1174.17 3443.06 1174.17 3443.06 1085.69 3419.94 1085.69 3413.24 1114.07 3361.21 1114.07 3361.21 1018.98 3449.05 1018.98 3465.8 1075.38 3497.43 1075.38 3495.45 988 3273.4 988 3273.4 1010.65 3304.93 1019.78 3304.93 1250.18 3273 1258.92 3273 1280 3499.81 1280 3505 1195.39 3473.81 1195.39Z" fill="#000000" fill-rule="evenodd" fill-opacity="1"/><path d="M2326.15 1179.34C2326.15 1253.32 2290.73 1284 2218.08 1284 2151.24 1284 2102.85 1257.35 2102.85 1187.07L2102.85 1019.75 2071 1010.62 2071 988 2190.44 988 2190.44 1010.62 2158.59 1019.75 2158.59 1187.07C2158.59 1229.14 2178.07 1247.59 2224.66 1247.59 2256.81 1247.59 2286.35 1228.84 2286.35 1183.2L2286.35 1019.75 2254.9 1010.62 2254.9 988 2358 988 2358 1010.62 2326.15 1019.75Z" fill="#000000" fill-rule="evenodd" fill-opacity="1"/><path d="M3217.04 1179.34C3217.04 1253.32 3181.49 1284 3108.62 1284 3041.55 1284 2992.96 1257.35 2992.96 1187.07L2992.96 1019.75 2961 1010.62 2961 988 3080.85 988 3080.85 1010.62 3048.9 1019.75 3048.9 1187.07C3048.9 1229.14 3068.48 1247.59 3115.2 1247.59 3147.46 1247.59 3177.1 1228.84 3177.1 1183.2L3177.1 1019.75 3145.54 1010.62 3145.54 988 3249 988 3249 1010.62 3217.04 1019.75Z" fill="#000000" fill-rule="evenodd" fill-opacity="1"/><path d="M1265.95 1130.4 1434.26 1130.4C1457.48 1130.4 1454.14 1142.01 1450.99 1149.21 1442.39 1169.23 1421.71 1181.84 1397.08 1181.84L1243.99 1181.84ZM996.441 1015.03 947.184 1130.4 1047.57 1130.4 962.677 1329.5 861.922 1329.5 812.632 1445 1233.76 1445 1283.01 1329.5 1180.92 1329.5 1194.7 1297.24 1423.89 1297.24C1571.32 1297.24 1610.64 1233.85 1640.82 1163.09 1657.05 1124.99 1671.17 1085.22 1650.56 1054.13 1632.89 1027.44 1594.35 1015.03 1529.33 1015.03ZM973.854 981 1529.33 981C1578.12 981 1646.31 986.371 1678.9 1035.38 1711.5 1084.39 1686.9 1142.01 1672.21 1176.4 1632.53 1269.38 1575.14 1331.3 1423.89 1331.3L1319.39 1331.3 1256.24 1479 761 1479 839.369 1295.47 940.124 1295.47 996.073 1164.49 895.519 1164.49Z" fill="#000000" fill-rule="evenodd" fill-opacity="1"/><path d="M1529 1032.1 1007.72 1032.1 973.547 1112.25 1074.12 1112.25 973.982 1346.85 873.206 1346.85 839 1427 1221.65 1427 1255.86 1346.85 1153.68 1346.85 1182.6 1279.13 1423.58 1279.13C1561.7 1279.13 1596.44 1220.75 1624.39 1155.56 1652.34 1090.38 1667.33 1032 1529.2 1032M1397.03 1198.98 1216.97 1198.98 1254.05 1112.15 1434.12 1112.15C1465.98 1112.15 1478.83 1128.48 1467.29 1155.56 1455.74 1182.65 1428.93 1198.98 1397 1198.98" fill="#CFB991" fill-rule="evenodd" fill-opacity="1"/><path d="M3536.5 1478C3520.21 1478 3507 1465.02 3507 1449 3507 1432.98 3520.21 1420 3536.5 1420 3552.79 1420 3566 1432.98 3566 1449 3565.98 1465.01 3552.78 1477.98 3536.5 1478ZM3536.5 1426.01C3523.59 1426.01 3513.12 1436.3 3513.12 1449 3513.12 1461.7 3523.59 1471.99 3536.5 1471.99 3549.41 1471.99 3559.88 1461.7 3559.88 1449 3559.88 1436.3 3549.41 1426.01 3536.5 1426.01Z" fill="#000000" fill-rule="evenodd" fill-opacity="1"/><path d="M3532.67 1451.2 3532.67 1462 3527 1462 3527 1435 3538.97 1435C3544.81 1435 3547.99 1438.33 3547.99 1442.4 3548.12 1445.14 3546.57 1447.68 3544.08 1448.8 3545.41 1449.3 3547.4 1450.67 3547.4 1455.47L3547.4 1456.8C3547.31 1458.52 3547.44 1460.25 3547.79 1461.93L3542.29 1461.93C3541.78 1459.95 3541.59 1457.91 3541.72 1455.87L3541.72 1455.47C3541.72 1452.53 3540.99 1451.13 3536.68 1451.13ZM3532.67 1446.53 3537.55 1446.53C3540.86 1446.53 3541.96 1445.3 3541.96 1443.2 3541.96 1441.1 3540.53 1439.87 3537.68 1439.87L3532.67 1439.87Z" fill="#000000" fill-rule="evenodd" fill-opacity="1"/></g></g></svg>