<?xml version="1.0"?>
<svg xmlns="http://www.w3.org/2000/svg" xmlns:xlink="http://www.w3.org/1999/xlink" width="250" height="65.86"
	 viewBox="0 0 250 65.86" style="enable-background:new 0 0 250 65.86;" xml:space="preserve">
			<path style="fill:#2C2A29;" d="M48.3,52.76c0.07,0.64,0.2,1.63,0.96,1.88c0.52,0.16,0.98,0.16,1.16,0.16
				c0.09,0,0.14,0.02,0.14,0.09c0,0.11-0.16,0.16-0.37,0.16c-0.39,0-2.31-0.05-2.97-0.1c-0.41-0.04-0.5-0.09-0.5-0.18
				c0-0.08,0.04-0.11,0.12-0.13c0.09-0.02,0.11-0.32,0.07-0.64l-0.85-9.18h-0.05l-4.36,9.25c-0.37,0.78-0.43,0.95-0.59,0.95
				c-0.12,0-0.21-0.18-0.55-0.82c-0.46-0.87-1.99-3.95-2.08-4.13c-0.16-0.32-2.15-4.59-2.35-5.07h-0.07l-0.71,8.25
				c-0.02,0.29-0.02,0.6-0.02,0.91c0,0.27,0.19,0.5,0.46,0.55c0.3,0.07,0.57,0.09,0.68,0.09c0.07,0,0.14,0.04,0.14,0.09
				c0,0.13-0.11,0.16-0.32,0.16c-0.66,0-1.51-0.05-1.65-0.05c-0.16,0-1.01,0.05-1.49,0.05c-0.18,0-0.3-0.03-0.3-0.16
				c0-0.05,0.09-0.09,0.18-0.09c0.14,0,0.27,0,0.53-0.05c0.59-0.11,0.64-0.8,0.71-1.48l1.28-11.6c0.02-0.19,0.09-0.32,0.2-0.32
				s0.18,0.07,0.27,0.27l5.44,11.19l5.23-11.17c0.07-0.16,0.14-0.28,0.27-0.28c0.12,0,0.18,0.14,0.21,0.48L48.3,52.76z"/>
			<path style="fill:#2C2A29;" d="M53.34,47.99c0-2.35,0-2.77-0.03-3.26c-0.04-0.51-0.13-0.76-0.64-0.84
				c-0.12-0.02-0.39-0.03-0.53-0.03c-0.05,0-0.13-0.07-0.13-0.12c0-0.09,0.07-0.13,0.25-0.13c0.71,0,1.73,0.04,1.81,0.04
				c0.11,0,3.38,0.02,3.74,0c0.3-0.02,0.59-0.07,0.71-0.09c0.07-0.02,0.14-0.07,0.21-0.07c0.05,0,0.07,0.07,0.07,0.14
				c0,0.11-0.09,0.29-0.12,0.71c-0.02,0.14-0.05,0.82-0.09,1c-0.02,0.07-0.07,0.16-0.14,0.16c-0.09,0-0.12-0.07-0.12-0.2
				c0-0.11-0.02-0.36-0.09-0.54c-0.11-0.25-0.27-0.35-1.12-0.46c-0.27-0.04-2.08-0.05-2.26-0.05c-0.07,0-0.09,0.05-0.09,0.16v4.11
				c0,0.11,0,0.16,0.09,0.16c0.2,0,2.26,0,2.61-0.03c0.37-0.04,0.61-0.05,0.77-0.21c0.11-0.11,0.18-0.2,0.23-0.2
				s0.09,0.04,0.09,0.13c0,0.09-0.09,0.34-0.12,0.83c-0.04,0.3-0.07,0.87-0.07,0.98c0,0.12-0.04,0.28-0.14,0.28
				c-0.07,0-0.11-0.05-0.11-0.14c0-0.14,0-0.3-0.07-0.5c-0.05-0.21-0.2-0.39-0.8-0.46c-0.43-0.05-2.1-0.07-2.37-0.07
				c-0.09,0-0.11,0.05-0.11,0.11v1.26c0,0.52-0.02,2.28,0,2.58c0.04,1.01,0.32,1.21,1.87,1.21c0.41,0,1.16,0,1.57-0.16
				c0.41-0.18,0.62-0.45,0.71-1.05c0.03-0.18,0.07-0.23,0.16-0.23c0.09,0,0.11,0.12,0.11,0.23c0,0.11-0.12,1.14-0.21,1.46
				c-0.11,0.39-0.27,0.39-0.87,0.39c-1.17,0-2.08-0.03-2.72-0.05C54.71,55,54.3,55,54.07,55c-0.04,0-0.34,0-0.68,0.02
				c-0.3,0.02-0.66,0.04-0.91,0.04c-0.16,0-0.25-0.04-0.25-0.12c0-0.05,0.04-0.13,0.13-0.13c0.14,0,0.34-0.05,0.48-0.07
				c0.3-0.05,0.34-0.36,0.41-0.8c0.09-0.62,0.09-1.81,0.09-3.27V47.99z"/>
			<path style="fill:#2C2A29;" d="M63.14,47.99c0-2.35,0-2.78-0.04-3.26c-0.03-0.51-0.12-0.76-0.64-0.83
				c-0.12-0.02-0.39-0.04-0.53-0.04c-0.05,0-0.12-0.07-0.12-0.12c0-0.09,0.07-0.12,0.25-0.12c0.71,0,1.73,0.04,1.81,0.04
				c0.18,0,1.17-0.04,2.1-0.04c1.57,0,4.43-0.14,6.28,1.72c0.78,0.78,1.53,2.05,1.53,3.84c0,1.91-0.82,3.36-1.69,4.25
				c-0.68,0.69-2.08,1.74-4.75,1.74c-0.68,0-1.51-0.05-2.19-0.09C64.48,55.04,63.94,55,63.87,55c-0.04,0-0.32,0.02-0.64,0.02
				c-0.32,0.02-0.69,0.03-0.94,0.03c-0.16,0-0.25-0.03-0.25-0.12c0-0.05,0.04-0.13,0.12-0.13c0.14,0,0.34-0.04,0.48-0.07
				c0.3-0.07,0.34-0.36,0.41-0.8c0.09-0.62,0.09-1.82,0.09-3.27V47.99z M64.57,49.63c0,1.6,0,3,0.02,3.29
				c0.02,0.38,0.05,0.92,0.18,1.09c0.2,0.29,0.75,0.6,2.6,0.6c1.44,0,2.72-0.48,3.66-1.37c0.82-0.76,1.23-2.21,1.23-3.59
				c0-1.92-0.84-3.15-1.48-3.79c-1.48-1.49-3.2-1.69-5.07-1.69c-0.3,0-0.8,0.06-0.94,0.11c-0.14,0.05-0.2,0.13-0.2,0.3V49.63z"/>
			<path style="fill:#2C2A29;" d="M78.8,50.66c0,1.46,0,2.65,0.07,3.28c0.05,0.44,0.11,0.73,0.57,0.8c0.23,0.04,0.57,0.07,0.71,0.07
				c0.09,0,0.13,0.08,0.13,0.13c0,0.07-0.07,0.13-0.25,0.13c-0.87,0-1.89-0.05-1.96-0.05c-0.09,0-1.07,0.05-1.55,0.05
				c-0.16,0-0.25-0.04-0.25-0.13c0-0.05,0.04-0.13,0.12-0.13c0.14,0,0.34-0.03,0.48-0.07c0.3-0.07,0.36-0.36,0.41-0.8
				c0.07-0.62,0.09-1.82,0.09-3.28v-2.67c0-2.35,0-2.77-0.04-3.25c-0.04-0.52-0.16-0.75-0.5-0.82c-0.18-0.04-0.37-0.05-0.48-0.05
				c-0.07,0-0.12-0.07-0.12-0.13c0-0.09,0.07-0.12,0.25-0.12c0.51,0,1.49,0.04,1.58,0.04c0.07,0,1.08-0.04,1.57-0.04
				c0.18,0,0.25,0.04,0.25,0.12c0,0.05-0.07,0.13-0.12,0.13c-0.11,0-0.21,0-0.39,0.04c-0.43,0.09-0.52,0.3-0.55,0.83
				c-0.02,0.48-0.02,0.91-0.02,3.25V50.66z"/>
			<path style="fill:#2C2A29;" d="M84.18,53.63c-1.53-1.32-1.9-3.04-1.9-4.48c0-1.02,0.38-2.78,1.76-4.13
				c0.94-0.91,2.37-1.62,4.77-1.62c0.62,0,1.51,0.05,2.28,0.18c0.59,0.11,1.08,0.21,1.6,0.23c0.16,0,0.19,0.07,0.19,0.16
				c0,0.12-0.04,0.3-0.07,0.85c-0.02,0.5-0.02,1.33-0.03,1.55c-0.02,0.23-0.09,0.32-0.18,0.32c-0.11,0-0.13-0.11-0.13-0.32
				c0-0.58-0.25-1.19-0.66-1.51c-0.55-0.46-1.69-0.84-3.08-0.84c-2.01,0-2.97,0.53-3.52,1.05c-1.16,1.06-1.41,2.42-1.41,3.95
				c0,2.9,2.29,5.48,5.64,5.48c1.17,0,1.96-0.09,2.58-0.71c0.34-0.34,0.55-0.98,0.6-1.26c0.04-0.16,0.05-0.21,0.16-0.21
				c0.07,0,0.14,0.1,0.14,0.21c0,0.11-0.21,1.42-0.37,1.94c-0.09,0.29-0.12,0.34-0.39,0.45c-0.64,0.25-1.81,0.34-2.83,0.34
				C86.99,55.25,85.4,54.7,84.18,53.63"/>
			<path style="fill:#2C2A29;" d="M99.03,43.92c0.2-0.5,0.27-0.59,0.38-0.59c0.16,0,0.21,0.21,0.37,0.55
				c0.29,0.64,2.79,6.88,3.75,9.18c0.57,1.35,1,1.54,1.33,1.65c0.23,0.07,0.46,0.09,0.62,0.09c0.09,0,0.2,0.04,0.2,0.13
				c0,0.09-0.18,0.12-0.36,0.12c-0.23,0-1.39,0-2.47-0.04c-0.3-0.02-0.55-0.02-0.55-0.11c0-0.07,0.04-0.07,0.11-0.11
				c0.09-0.03,0.25-0.16,0.14-0.41l-1.4-3.47c-0.04-0.07-0.06-0.09-0.14-0.09H97.4c-0.07,0-0.12,0.04-0.16,0.12l-0.89,2.42
				c-0.14,0.38-0.23,0.75-0.23,1.01c0,0.3,0.27,0.41,0.54,0.41h0.14c0.13,0,0.16,0.06,0.16,0.13c0,0.09-0.09,0.12-0.23,0.12
				c-0.37,0-1.23-0.05-1.4-0.05c-0.16,0-0.94,0.05-1.58,0.05c-0.2,0-0.3-0.04-0.3-0.12c0-0.07,0.07-0.13,0.14-0.13
				c0.11,0,0.34-0.02,0.46-0.03c0.71-0.09,1.01-0.62,1.32-1.39L99.03,43.92z M100.78,50.22c0.07,0,0.07-0.04,0.05-0.11l-1.55-4.14
				c-0.09-0.23-0.18-0.23-0.27,0l-1.46,4.14c-0.02,0.07,0,0.11,0.06,0.11H100.78z"/>
			<path style="fill:#2C2A29;" d="M109.18,50.7c0,2.22,0.04,3.13,0.32,3.4c0.25,0.25,0.85,0.36,2.08,0.36
				c0.82,0,1.51-0.02,1.88-0.46c0.2-0.23,0.32-0.55,0.37-0.85c0.02-0.11,0.07-0.19,0.16-0.19c0.07,0,0.11,0.07,0.11,0.23
				c0,0.16-0.11,1.07-0.23,1.51c-0.11,0.36-0.16,0.41-1,0.41c-1.12,0-1.99-0.02-2.72-0.05c-0.71-0.02-1.25-0.04-1.71-0.04
				c-0.07,0-0.34,0-0.64,0.02c-0.32,0.02-0.66,0.03-0.91,0.03c-0.16,0-0.25-0.03-0.25-0.12c0-0.05,0.04-0.13,0.12-0.13
				c0.14,0,0.34-0.03,0.48-0.07c0.3-0.07,0.34-0.35,0.41-0.8c0.09-0.62,0.09-1.82,0.09-3.27v-2.67c0-2.35,0-2.78-0.04-3.26
				c-0.04-0.51-0.12-0.76-0.64-0.83c-0.13-0.02-0.39-0.04-0.53-0.04c-0.05,0-0.12-0.07-0.12-0.12c0-0.09,0.07-0.12,0.25-0.12
				c0.71,0,1.69,0.04,1.78,0.04c0.07,0,1.25-0.04,1.73-0.04c0.16,0,0.25,0.04,0.25,0.12c0,0.06-0.07,0.11-0.12,0.11
				c-0.11,0-0.34,0.02-0.52,0.04c-0.46,0.09-0.55,0.32-0.59,0.85c-0.02,0.48-0.02,0.91-0.02,3.26V50.7z"/>
			<path style="fill:#2C2A29;" d="M122.17,53.38c-1.73-1.55-2.15-3.58-2.15-5.27c0-1.19,0.41-3.27,1.99-4.86
				c1.07-1.07,2.69-1.9,5.43-1.9c0.71,0,1.71,0.05,2.58,0.21c0.68,0.12,1.25,0.23,1.82,0.27c0.2,0.02,0.23,0.09,0.23,0.19
				c0,0.14-0.05,0.36-0.09,1c-0.03,0.58-0.03,1.57-0.05,1.83c-0.02,0.27-0.05,0.38-0.16,0.38c-0.13,0-0.14-0.12-0.14-0.38
				c0-0.69-0.29-1.42-0.75-1.81c-0.62-0.53-1.99-1.01-3.56-1.01c-2.37,0-3.47,0.69-4.09,1.3c-1.3,1.24-1.6,2.83-1.6,4.64
				c0,3.4,2.62,6.51,6.42,6.51c1.33,0,2.38-0.16,3.09-0.89c0.38-0.39,0.61-1.17,0.66-1.49c0.04-0.2,0.07-0.27,0.18-0.27
				c0.09,0,0.12,0.13,0.12,0.27c0,0.12-0.21,1.67-0.39,2.28c-0.11,0.34-0.14,0.37-0.46,0.52c-0.71,0.28-2.07,0.41-3.2,0.41
				C125.37,55.31,123.57,54.65,122.17,53.38"/>
			<path style="fill:#2C2A29;" d="M135.96,47.99c0-2.35,0-2.77-0.03-3.26c-0.04-0.51-0.13-0.76-0.64-0.84
				c-0.12-0.02-0.39-0.03-0.53-0.03c-0.05,0-0.12-0.07-0.12-0.12c0-0.09,0.07-0.13,0.25-0.13c0.71,0,1.73,0.04,1.81,0.04
				c0.11,0,3.38,0.02,3.74,0c0.3-0.02,0.59-0.07,0.71-0.09c0.07-0.02,0.14-0.07,0.21-0.07c0.05,0,0.07,0.07,0.07,0.14
				c0,0.11-0.09,0.29-0.12,0.71c-0.02,0.14-0.05,0.82-0.09,1c-0.02,0.07-0.07,0.16-0.14,0.16c-0.09,0-0.13-0.07-0.13-0.2
				c0-0.11-0.02-0.36-0.09-0.54c-0.11-0.25-0.27-0.35-1.12-0.46c-0.27-0.04-2.08-0.05-2.26-0.05c-0.07,0-0.09,0.05-0.09,0.16v4.11
				c0,0.11,0,0.16,0.09,0.16c0.2,0,2.26,0,2.61-0.03c0.38-0.04,0.61-0.05,0.77-0.21c0.11-0.11,0.18-0.2,0.23-0.2
				c0.05,0,0.09,0.04,0.09,0.13c0,0.09-0.09,0.34-0.12,0.83c-0.03,0.3-0.07,0.87-0.07,0.98c0,0.12-0.04,0.28-0.14,0.28
				c-0.07,0-0.1-0.05-0.1-0.14c0-0.14,0-0.3-0.07-0.5c-0.05-0.21-0.2-0.39-0.8-0.46c-0.43-0.05-2.1-0.07-2.36-0.07
				c-0.09,0-0.11,0.05-0.11,0.11v1.26c0,0.52-0.02,2.28,0,2.58c0.04,1.01,0.32,1.21,1.87,1.21c0.41,0,1.16,0,1.56-0.16
				c0.41-0.18,0.62-0.45,0.71-1.05c0.03-0.18,0.07-0.23,0.16-0.23s0.11,0.12,0.11,0.23c0,0.11-0.12,1.14-0.21,1.46
				c-0.11,0.39-0.27,0.39-0.87,0.39c-1.17,0-2.08-0.03-2.72-0.05c-0.66-0.04-1.07-0.04-1.3-0.04c-0.03,0-0.34,0-0.67,0.02
				c-0.3,0.02-0.66,0.04-0.91,0.04c-0.16,0-0.25-0.04-0.25-0.12c0-0.05,0.04-0.13,0.13-0.13c0.14,0,0.34-0.05,0.48-0.07
				c0.3-0.05,0.34-0.36,0.41-0.8c0.09-0.62,0.09-1.81,0.09-3.27V47.99z"/>
			<path style="fill:#2C2A29;" d="M146.42,52.99c0.04,1.25,0.18,1.62,0.6,1.73c0.29,0.07,0.64,0.09,0.79,0.09
				c0.07,0,0.12,0.05,0.12,0.13c0,0.09-0.11,0.12-0.28,0.12c-0.89,0-1.51-0.05-1.66-0.05c-0.14,0-0.8,0.05-1.51,0.05
				c-0.16,0-0.25-0.02-0.25-0.12c0-0.07,0.05-0.13,0.12-0.13c0.12,0,0.41-0.02,0.64-0.09c0.39-0.11,0.45-0.52,0.45-1.89v-8.66
				c0-0.6,0.09-0.76,0.21-0.76c0.18,0,0.45,0.3,0.61,0.46c0.25,0.25,2.53,2.67,4.94,5.16c1.55,1.6,3.22,3.4,3.7,3.9l-0.16-7.58
				c-0.02-0.98-0.1-1.31-0.59-1.41c-0.28-0.05-0.64-0.07-0.77-0.07c-0.1,0-0.12-0.09-0.12-0.14c0-0.09,0.12-0.11,0.3-0.11
				c0.71,0,1.46,0.04,1.64,0.04c0.18,0,0.7-0.04,1.34-0.04c0.16,0,0.28,0.02,0.28,0.11c0,0.05-0.07,0.14-0.18,0.14
				c-0.07,0-0.2,0-0.37,0.04c-0.52,0.11-0.55,0.41-0.55,1.32l-0.04,8.86c0,1-0.02,1.09-0.13,1.09c-0.16,0-0.32-0.12-1.19-0.92
				c-0.16-0.14-2.42-2.37-4.07-4.09c-1.82-1.9-3.58-3.75-4.06-4.29L146.42,52.99z"/>
			<path style="fill:#2C2A29;" d="M164,50.66c0,1.46,0,2.65,0.07,3.28c0.05,0.44,0.13,0.73,0.61,0.8c0.21,0.04,0.57,0.07,0.71,0.07
				c0.11,0,0.12,0.08,0.12,0.13c0,0.07-0.07,0.13-0.25,0.13c-0.86,0-1.85-0.05-1.94-0.05c-0.07,0-1.16,0.05-1.62,0.05
				c-0.18,0-0.25-0.04-0.25-0.13c0-0.05,0.04-0.1,0.13-0.1c0.14,0,0.32-0.04,0.46-0.07c0.32-0.07,0.41-0.37,0.46-0.82
				c0.07-0.62,0.07-1.82,0.07-3.28v-6.35l-2.26,0.04c-0.98,0.02-1.35,0.12-1.58,0.48c-0.18,0.27-0.2,0.37-0.25,0.48
				c-0.04,0.12-0.09,0.14-0.16,0.14c-0.04,0-0.11-0.04-0.11-0.12c0-0.16,0.32-1.51,0.34-1.64c0.04-0.09,0.11-0.29,0.16-0.29
				c0.11,0,0.26,0.12,0.69,0.18c0.44,0.05,1.05,0.07,1.23,0.07h5.91c0.52,0,0.87-0.04,1.12-0.07c0.23-0.03,0.37-0.07,0.44-0.07
				c0.07,0,0.07,0.09,0.07,0.18c0,0.46-0.05,1.55-0.05,1.72c0,0.13-0.07,0.19-0.14,0.19c-0.07,0-0.11-0.05-0.12-0.27l-0.02-0.16
				c-0.05-0.46-0.39-0.8-1.89-0.84L164,44.31V50.66z"/>
			<path style="fill:#2C2A29;" d="M171.44,47.99c0-2.35,0-2.77-0.03-3.26c-0.04-0.51-0.12-0.76-0.64-0.84
				c-0.12-0.02-0.39-0.03-0.53-0.03c-0.05,0-0.12-0.07-0.12-0.12c0-0.09,0.07-0.13,0.25-0.13c0.71,0,1.73,0.04,1.81,0.04
				c0.11,0,3.38,0.02,3.74,0c0.3-0.02,0.59-0.07,0.71-0.09c0.07-0.02,0.14-0.07,0.21-0.07c0.05,0,0.08,0.07,0.08,0.14
				c0,0.11-0.09,0.29-0.13,0.71c-0.02,0.14-0.05,0.82-0.09,1c-0.02,0.07-0.07,0.16-0.14,0.16c-0.09,0-0.12-0.07-0.12-0.2
				c0-0.11-0.02-0.36-0.09-0.54c-0.1-0.25-0.27-0.35-1.12-0.46c-0.27-0.04-2.08-0.05-2.26-0.05c-0.07,0-0.09,0.05-0.09,0.16v4.11
				c0,0.11,0,0.16,0.09,0.16c0.2,0,2.26,0,2.62-0.03c0.37-0.04,0.6-0.05,0.76-0.21c0.11-0.11,0.18-0.2,0.23-0.2
				c0.05,0,0.09,0.04,0.09,0.13c0,0.09-0.09,0.34-0.12,0.83c-0.04,0.3-0.07,0.87-0.07,0.98c0,0.12-0.04,0.28-0.14,0.28
				c-0.07,0-0.11-0.05-0.11-0.14c0-0.14,0-0.3-0.07-0.5c-0.05-0.21-0.19-0.39-0.8-0.46c-0.43-0.05-2.1-0.07-2.37-0.07
				c-0.09,0-0.11,0.05-0.11,0.11v1.26c0,0.52-0.02,2.28,0,2.58c0.04,1.01,0.32,1.21,1.87,1.21c0.41,0,1.16,0,1.57-0.16
				c0.41-0.18,0.62-0.45,0.71-1.05c0.03-0.18,0.07-0.23,0.16-0.23c0.09,0,0.11,0.12,0.11,0.23c0,0.11-0.12,1.14-0.21,1.46
				c-0.1,0.39-0.26,0.39-0.87,0.39c-1.18,0-2.08-0.03-2.72-0.05C172.81,55,172.4,55,172.17,55c-0.03,0-0.34,0-0.68,0.02
				c-0.3,0.02-0.66,0.04-0.91,0.04c-0.16,0-0.25-0.04-0.25-0.12c0-0.05,0.03-0.13,0.12-0.13c0.14,0,0.34-0.05,0.48-0.07
				c0.3-0.05,0.34-0.36,0.41-0.8c0.09-0.62,0.09-1.81,0.09-3.27V47.99z"/>
			<path style="fill:#2C2A29;" d="M181.24,47.99c0-2.35,0-2.78-0.04-3.25c-0.03-0.52-0.12-0.76-0.64-0.83
				c-0.12-0.02-0.39-0.04-0.53-0.04c-0.05,0-0.13-0.07-0.13-0.12c0-0.09,0.07-0.12,0.25-0.12c0.71,0,1.76,0.04,1.85,0.04
				c0.16,0,1.48-0.04,1.96-0.04c1,0,2.1,0.09,2.92,0.66c0.39,0.28,1.09,1.01,1.09,2.06c0,1.12-0.46,2.21-1.92,3.45
				c1.28,1.6,2.37,2.97,3.28,3.92c0.83,0.85,1.35,1,1.74,1.05c0.3,0.05,0.46,0.05,0.55,0.05c0.09,0,0.14,0.07,0.14,0.13
				c0,0.09-0.09,0.12-0.37,0.12h-0.98c-0.89,0-1.28-0.09-1.67-0.3c-0.68-0.36-1.24-1.09-2.14-2.23c-0.66-0.82-1.35-1.8-1.69-2.21
				c-0.07-0.07-0.11-0.09-0.21-0.09l-1.99-0.04c-0.07,0-0.11,0.04-0.11,0.13v0.35c0,1.46,0,2.63,0.07,3.26
				c0.05,0.44,0.14,0.73,0.62,0.8c0.21,0.04,0.55,0.07,0.69,0.07c0.1,0,0.12,0.07,0.12,0.13c0,0.07-0.07,0.12-0.25,0.12
				c-0.85,0-1.85-0.05-1.92-0.05c-0.02,0-1.07,0.05-1.55,0.05c-0.16,0-0.25-0.03-0.25-0.12c0-0.05,0.04-0.13,0.12-0.13
				c0.14,0,0.34-0.03,0.48-0.07c0.3-0.07,0.34-0.36,0.41-0.8c0.09-0.62,0.09-1.82,0.09-3.28V47.99z M182.6,49.27
				c0,0.09,0.04,0.14,0.11,0.19c0.23,0.12,1.03,0.23,1.73,0.23c0.37,0,0.8-0.02,1.17-0.27c0.54-0.36,0.95-1.16,0.95-2.31
				c0-1.89-1.03-2.97-2.71-2.97c-0.46,0-0.96,0.05-1.12,0.09c-0.07,0.04-0.13,0.09-0.13,0.18V49.27z"/>
			<path style="fill:#2C2A29;" d="M33.76,30.29c0-2.8,0-3.3-0.04-3.87c-0.04-0.61-0.18-0.89-0.77-1.02
				c-0.14-0.04-0.45-0.06-0.61-0.06c-0.07,0-0.14-0.03-0.14-0.11c0-0.11,0.09-0.15,0.29-0.15c0.81,0,1.9,0.06,2.06,0.06
				c0.16,0,1.24-0.06,1.77-0.06c0.2,0,0.29,0.04,0.29,0.15c0,0.07-0.07,0.11-0.14,0.11c-0.12,0-0.23,0.02-0.45,0.06
				c-0.48,0.07-0.63,0.39-0.66,1.02c-0.04,0.57-0.04,1.08-0.04,3.87v2.51c0,2.58,0.57,3.69,1.34,4.43c0.88,0.83,1.68,0.98,2.71,0.98
				c1.09,0,2.17-0.52,2.81-1.29c0.83-1.02,1.04-2.54,1.04-4.39v-2.24c0-2.8,0-3.3-0.04-3.87c-0.04-0.61-0.18-0.89-0.77-1.02
				c-0.14-0.04-0.45-0.06-0.61-0.06c-0.07,0-0.14-0.03-0.14-0.11c0-0.11,0.09-0.15,0.29-0.15c0.81,0,1.79,0.06,1.9,0.06
				c0.13,0,0.97-0.06,1.51-0.06c0.2,0,0.29,0.04,0.29,0.15c0,0.07-0.07,0.11-0.14,0.11c-0.12,0-0.23,0.02-0.45,0.06
				c-0.48,0.11-0.63,0.39-0.66,1.02c-0.03,0.57-0.03,1.08-0.03,3.87v1.92c0,1.93-0.21,4.08-1.65,5.36
				c-1.29,1.15-2.63,1.33-3.69,1.33c-0.61,0-2.42-0.07-3.69-1.27c-0.88-0.84-1.56-2.1-1.56-4.71V30.29z"/>
			<path style="fill:#2C2A29;" d="M48.31,36.56c0.03,1.26,0.18,1.63,0.61,1.74c0.29,0.07,0.64,0.09,0.79,0.09
				c0.07,0,0.13,0.05,0.13,0.13c0,0.09-0.11,0.13-0.29,0.13c-0.9,0-1.52-0.05-1.67-0.05c-0.15,0-0.81,0.05-1.52,0.05
				c-0.16,0-0.25-0.02-0.25-0.13c0-0.07,0.05-0.13,0.13-0.13c0.12,0,0.41-0.02,0.64-0.09c0.39-0.11,0.45-0.52,0.45-1.9v-8.73
				c0-0.61,0.09-0.77,0.22-0.77c0.18,0,0.45,0.3,0.61,0.46c0.25,0.25,2.55,2.69,4.98,5.2c1.56,1.61,3.24,3.42,3.73,3.92l-0.16-7.63
				c-0.02-0.98-0.11-1.33-0.59-1.42c-0.29-0.05-0.65-0.07-0.77-0.07c-0.11,0-0.12-0.09-0.12-0.14c0-0.09,0.12-0.11,0.3-0.11
				c0.72,0,1.47,0.04,1.65,0.04c0.18,0,0.7-0.04,1.34-0.04c0.16,0,0.29,0.02,0.29,0.11c0,0.05-0.07,0.14-0.18,0.14
				c-0.07,0-0.2,0-0.38,0.04c-0.52,0.11-0.56,0.41-0.56,1.33l-0.03,8.92c0,1-0.02,1.09-0.13,1.09c-0.16,0-0.32-0.13-1.2-0.93
				c-0.16-0.14-2.44-2.38-4.1-4.12c-1.83-1.92-3.6-3.78-4.09-4.32L48.31,36.56z"/>
			<path style="fill:#2C2A29;" d="M63.65,34.22c0,1.47,0,2.67,0.07,3.3c0.05,0.45,0.11,0.73,0.57,0.81
				c0.23,0.04,0.57,0.07,0.72,0.07c0.09,0,0.12,0.07,0.12,0.13c0,0.07-0.07,0.13-0.25,0.13c-0.88,0-1.9-0.06-1.97-0.06
				c-0.09,0-1.07,0.06-1.56,0.06c-0.16,0-0.25-0.04-0.25-0.13c0-0.05,0.04-0.13,0.12-0.13c0.14,0,0.34-0.04,0.48-0.07
				c0.3-0.07,0.36-0.36,0.41-0.81c0.07-0.63,0.09-1.83,0.09-3.3v-2.69c0-2.36,0-2.79-0.04-3.28c-0.04-0.52-0.16-0.75-0.5-0.83
				c-0.18-0.03-0.38-0.05-0.48-0.05c-0.07,0-0.12-0.07-0.12-0.13c0-0.09,0.07-0.12,0.25-0.12c0.52,0,1.51,0.03,1.59,0.03
				c0.07,0,1.09-0.03,1.58-0.03c0.18,0,0.25,0.03,0.25,0.12c0,0.06-0.07,0.13-0.12,0.13c-0.11,0-0.21,0-0.39,0.04
				c-0.43,0.09-0.52,0.3-0.56,0.84c-0.02,0.48-0.02,0.91-0.02,3.28V34.22z"/>
			<path style="fill:#2C2A29;" d="M72.64,36.65c0.91-2.04,2.97-7.24,3.31-8.33c0.07-0.23,0.14-0.45,0.14-0.57
				c0-0.12-0.05-0.27-0.21-0.32c-0.18-0.05-0.36-0.05-0.54-0.05c-0.09,0-0.18-0.05-0.18-0.13c0-0.09,0.11-0.13,0.36-0.13
				c0.63,0,1.34,0.04,1.54,0.04c0.09,0,0.77-0.04,1.24-0.04c0.16,0,0.25,0.04,0.25,0.11c0,0.07-0.05,0.14-0.18,0.14
				c-0.11,0-0.47,0-0.75,0.18c-0.21,0.15-0.47,0.36-0.88,1.4c-0.18,0.43-0.95,2.26-1.76,4.12c-0.97,2.22-1.67,3.87-2.03,4.62
				c-0.43,0.92-0.52,1.15-0.68,1.15c-0.18,0-0.29-0.2-0.59-0.93l-3.87-9.34c-0.36-0.86-0.57-1.02-1.09-1.15
				c-0.25-0.05-0.52-0.05-0.61-0.05c-0.09,0-0.13-0.09-0.13-0.14c0-0.09,0.16-0.11,0.41-0.11c0.75,0,1.65,0.04,1.85,0.04
				c0.16,0,0.86-0.04,1.47-0.04c0.29,0,0.43,0.04,0.43,0.11c0,0.07-0.06,0.14-0.16,0.14c-0.18,0-0.43,0.02-0.57,0.07
				c-0.16,0.07-0.18,0.16-0.18,0.27c0,0.2,0.2,0.66,0.43,1.27L72.64,36.65z"/>
			<path style="fill:#2C2A29;" d="M80.89,31.53c0-2.36,0-2.79-0.04-3.28c-0.04-0.52-0.12-0.77-0.64-0.84
				c-0.12-0.02-0.39-0.04-0.54-0.04c-0.05,0-0.12-0.07-0.12-0.13c0-0.09,0.07-0.12,0.25-0.12c0.72,0,1.74,0.04,1.83,0.04
				c0.11,0,3.4,0.02,3.76,0c0.31-0.02,0.59-0.07,0.72-0.09c0.07-0.02,0.14-0.07,0.21-0.07c0.05,0,0.07,0.07,0.07,0.14
				c0,0.11-0.09,0.29-0.12,0.72c-0.02,0.14-0.06,0.82-0.09,1c-0.02,0.07-0.07,0.16-0.14,0.16c-0.09,0-0.13-0.07-0.13-0.2
				c0-0.11-0.02-0.36-0.09-0.54c-0.11-0.25-0.27-0.36-1.13-0.46c-0.27-0.04-2.1-0.06-2.28-0.06c-0.07,0-0.09,0.06-0.09,0.16v4.14
				c0,0.11,0,0.16,0.09,0.16c0.2,0,2.28,0,2.63-0.04c0.38-0.04,0.61-0.05,0.77-0.22c0.11-0.11,0.18-0.2,0.23-0.2
				c0.05,0,0.09,0.04,0.09,0.13c0,0.09-0.09,0.34-0.12,0.84c-0.04,0.3-0.07,0.88-0.07,0.99c0,0.12-0.04,0.28-0.14,0.28
				c-0.07,0-0.11-0.05-0.11-0.14c0-0.14,0-0.31-0.07-0.5c-0.05-0.21-0.2-0.4-0.81-0.47c-0.43-0.05-2.11-0.07-2.38-0.07
				c-0.09,0-0.11,0.05-0.11,0.11v1.27c0,0.52-0.02,2.29,0,2.6c0.04,1.02,0.32,1.22,1.88,1.22c0.41,0,1.16,0,1.58-0.16
				c0.41-0.18,0.63-0.45,0.72-1.06c0.04-0.18,0.07-0.23,0.16-0.23c0.09,0,0.11,0.13,0.11,0.23c0,0.11-0.12,1.15-0.21,1.47
				c-0.11,0.39-0.27,0.39-0.88,0.39c-1.18,0-2.1-0.04-2.74-0.06c-0.66-0.03-1.08-0.03-1.31-0.03c-0.04,0-0.34,0-0.68,0.02
				c-0.3,0.02-0.66,0.04-0.91,0.04c-0.16,0-0.25-0.04-0.25-0.13c0-0.06,0.04-0.13,0.12-0.13c0.14,0,0.34-0.05,0.48-0.07
				c0.31-0.06,0.34-0.36,0.41-0.81c0.09-0.63,0.09-1.83,0.09-3.3V31.53z"/>
			<path style="fill:#2C2A29;" d="M89.33,31.53c0-2.37,0-2.79-0.04-3.28c-0.04-0.52-0.13-0.77-0.65-0.84
				c-0.13-0.02-0.39-0.04-0.54-0.04c-0.06,0-0.13-0.07-0.13-0.13c0-0.09,0.07-0.12,0.25-0.12c0.72,0,1.77,0.03,1.86,0.03
				c0.16,0,1.49-0.03,1.97-0.03c1,0,2.12,0.09,2.94,0.66c0.4,0.29,1.09,1.02,1.09,2.08c0,1.13-0.47,2.22-1.94,3.48
				c1.29,1.61,2.38,2.99,3.3,3.94c0.84,0.86,1.36,1,1.76,1.06c0.3,0.05,0.47,0.05,0.55,0.05c0.09,0,0.14,0.07,0.14,0.12
				c0,0.09-0.09,0.13-0.38,0.13h-0.98c-0.9,0-1.29-0.09-1.69-0.31c-0.68-0.36-1.25-1.09-2.15-2.24c-0.66-0.82-1.36-1.81-1.7-2.22
				c-0.07-0.07-0.11-0.09-0.21-0.09l-2.01-0.04c-0.07,0-0.11,0.04-0.11,0.12v0.36c0,1.47,0,2.65,0.07,3.28
				c0.05,0.45,0.14,0.73,0.63,0.81c0.21,0.04,0.55,0.07,0.7,0.07c0.11,0,0.12,0.07,0.12,0.12c0,0.07-0.07,0.13-0.25,0.13
				c-0.86,0-1.86-0.06-1.94-0.06c-0.02,0-1.07,0.06-1.56,0.06c-0.16,0-0.25-0.04-0.25-0.13c0-0.05,0.03-0.12,0.12-0.12
				c0.14,0,0.34-0.04,0.48-0.07c0.3-0.07,0.34-0.36,0.41-0.81c0.09-0.63,0.09-1.83,0.09-3.3V31.53z M90.69,32.82
				c0,0.09,0.04,0.14,0.11,0.2c0.23,0.12,1.04,0.23,1.74,0.23c0.38,0,0.81-0.02,1.18-0.27c0.54-0.36,0.95-1.17,0.95-2.33
				c0-1.9-1.04-2.99-2.72-2.99c-0.46,0-0.97,0.05-1.13,0.09c-0.07,0.04-0.13,0.09-0.13,0.18V32.82z"/>
			<path style="fill:#2C2A29;" d="M99.52,38.43c-0.22-0.11-0.23-0.16-0.23-0.57c0-0.75,0.07-1.36,0.09-1.61
				c0-0.16,0.04-0.25,0.13-0.25c0.09,0,0.14,0.06,0.14,0.18s0,0.34,0.06,0.55c0.25,1.11,1.43,1.51,2.49,1.51
				c1.56,0,2.37-0.88,2.37-2.03c0-1.09-0.59-1.61-1.99-2.65l-0.72-0.54c-1.7-1.27-2.26-2.21-2.26-3.26c0-1.79,1.41-2.87,3.49-2.87
				c0.63,0,1.26,0.09,1.63,0.18c0.3,0.07,0.43,0.07,0.55,0.07s0.16,0.02,0.16,0.11c0,0.07-0.07,0.57-0.07,1.61
				c0,0.23-0.02,0.34-0.12,0.34c-0.11,0-0.12-0.07-0.14-0.2c-0.02-0.18-0.14-0.59-0.23-0.75c-0.11-0.18-0.63-0.75-2.04-0.75
				c-1.15,0-2.1,0.57-2.1,1.65c0,0.97,0.48,1.52,2.04,2.58l0.45,0.31c1.92,1.31,2.58,2.36,2.58,3.67c0,0.89-0.34,1.86-1.47,2.6
				c-0.66,0.43-1.65,0.54-2.51,0.54C101.08,38.84,100.17,38.73,99.52,38.43"/>
			<path style="fill:#2C2A29;" d="M110.24,34.22c0,1.47,0,2.67,0.07,3.3c0.05,0.45,0.11,0.73,0.57,0.81
				c0.23,0.04,0.57,0.07,0.72,0.07c0.09,0,0.13,0.07,0.13,0.13c0,0.07-0.07,0.13-0.25,0.13c-0.88,0-1.9-0.06-1.97-0.06
				c-0.09,0-1.08,0.06-1.56,0.06c-0.16,0-0.25-0.04-0.25-0.13c0-0.05,0.04-0.13,0.13-0.13c0.14,0,0.34-0.04,0.48-0.07
				c0.3-0.07,0.36-0.36,0.41-0.81c0.07-0.63,0.09-1.83,0.09-3.3v-2.69c0-2.36,0-2.79-0.04-3.28c-0.04-0.52-0.16-0.75-0.5-0.83
				c-0.18-0.03-0.38-0.05-0.48-0.05c-0.07,0-0.12-0.07-0.12-0.13c0-0.09,0.07-0.12,0.25-0.12c0.52,0,1.51,0.03,1.6,0.03
				c0.07,0,1.09-0.03,1.58-0.03c0.18,0,0.25,0.03,0.25,0.12c0,0.06-0.07,0.13-0.13,0.13c-0.11,0-0.22,0-0.39,0.04
				c-0.43,0.09-0.52,0.3-0.56,0.84c-0.02,0.48-0.02,0.91-0.02,3.28V34.22z"/>
			<path style="fill:#2C2A29;" d="M118.85,34.22c0,1.47,0,2.67,0.07,3.3c0.05,0.45,0.12,0.73,0.61,0.81
				c0.21,0.04,0.57,0.07,0.72,0.07c0.11,0,0.12,0.07,0.12,0.13c0,0.07-0.07,0.13-0.25,0.13c-0.86,0-1.86-0.06-1.95-0.06
				c-0.07,0-1.16,0.06-1.63,0.06c-0.18,0-0.25-0.04-0.25-0.13c0-0.05,0.04-0.11,0.13-0.11c0.14,0,0.32-0.04,0.47-0.07
				c0.32-0.07,0.41-0.38,0.47-0.82c0.07-0.63,0.07-1.83,0.07-3.3v-6.4l-2.28,0.03c-0.99,0.02-1.36,0.13-1.6,0.49
				c-0.18,0.27-0.19,0.38-0.25,0.48c-0.04,0.13-0.09,0.15-0.16,0.15c-0.03,0-0.11-0.04-0.11-0.13c0-0.16,0.32-1.52,0.34-1.65
				c0.04-0.09,0.11-0.28,0.16-0.28c0.11,0,0.27,0.12,0.7,0.18c0.45,0.06,1.06,0.07,1.24,0.07h5.95c0.52,0,0.88-0.03,1.13-0.07
				c0.23-0.03,0.38-0.07,0.45-0.07c0.07,0,0.07,0.09,0.07,0.18c0,0.47-0.05,1.56-0.05,1.74c0,0.12-0.07,0.2-0.14,0.2
				c-0.07,0-0.11-0.05-0.12-0.27l-0.02-0.16c-0.05-0.46-0.39-0.81-1.9-0.84l-1.97-0.03V34.22z"/>
			<path style="fill:#2C2A29;" d="M129.21,34.68c0-0.82-0.11-1.13-0.34-1.56c-0.13-0.23-2.26-3.62-2.8-4.43
				c-0.38-0.57-0.75-0.91-1.04-1.11c-0.23-0.14-0.54-0.22-0.66-0.22c-0.09,0-0.16-0.07-0.16-0.14c0-0.07,0.06-0.11,0.2-0.11
				c0.31,0,1.49,0.04,1.56,0.04c0.11,0,0.75-0.04,1.36-0.04c0.18,0,0.21,0.04,0.21,0.11c0,0.05-0.11,0.11-0.25,0.16
				c-0.13,0.05-0.2,0.12-0.2,0.25c0,0.21,0.11,0.39,0.22,0.59l2.87,4.75c0.32-0.64,2.29-3.91,2.58-4.41
				c0.2-0.34,0.27-0.59,0.27-0.79c0-0.21-0.07-0.34-0.25-0.39c-0.14-0.04-0.23-0.11-0.23-0.18c0-0.05,0.09-0.09,0.25-0.09
				c0.41,0,0.97,0.04,1.09,0.04c0.11,0,1.24-0.04,1.54-0.04c0.11,0,0.2,0.04,0.2,0.09c0,0.07-0.07,0.16-0.2,0.16
				c-0.18,0-0.48,0.05-0.73,0.2c-0.31,0.18-0.45,0.34-0.79,0.75c-0.52,0.61-2.74,4.19-3.06,4.84c-0.27,0.54-0.2,1.02-0.2,1.52v1.31
				c0,0.25,0,0.9,0.05,1.52c0.04,0.45,0.15,0.73,0.61,0.8c0.22,0.04,0.58,0.07,0.72,0.07c0.09,0,0.12,0.07,0.12,0.12
				c0,0.07-0.09,0.13-0.25,0.13c-0.88,0-1.9-0.05-1.99-0.05c-0.07,0-1.07,0.05-1.54,0.05c-0.18,0-0.25-0.04-0.25-0.13
				c0-0.05,0.04-0.12,0.13-0.12c0.14,0,0.32-0.04,0.46-0.07c0.32-0.07,0.43-0.36,0.47-0.8c0.04-0.63,0.04-1.27,0.04-1.52V34.68z"/>
			<path style="fill:#2C2A29;" d="M167.82,36.35c0.07,0.64,0.2,1.64,0.96,1.88c0.52,0.16,0.98,0.16,1.16,0.16
				c0.09,0,0.14,0.02,0.14,0.09c0,0.11-0.16,0.16-0.37,0.16c-0.39,0-2.31-0.05-2.97-0.11c-0.41-0.04-0.5-0.09-0.5-0.17
				c0-0.07,0.04-0.11,0.12-0.13c0.09-0.02,0.11-0.32,0.07-0.64l-0.86-9.18h-0.05l-4.36,9.25c-0.38,0.78-0.43,0.94-0.59,0.94
				c-0.13,0-0.22-0.18-0.55-0.82c-0.46-0.87-1.99-3.95-2.08-4.13c-0.16-0.32-2.15-4.59-2.35-5.07h-0.07l-0.71,8.25
				c-0.02,0.29-0.02,0.61-0.02,0.91c0,0.27,0.2,0.5,0.46,0.55c0.3,0.07,0.57,0.09,0.68,0.09c0.07,0,0.14,0.03,0.14,0.09
				c0,0.12-0.11,0.16-0.32,0.16c-0.66,0-1.51-0.05-1.66-0.05c-0.16,0-1.01,0.05-1.49,0.05c-0.18,0-0.3-0.04-0.3-0.16
				c0-0.06,0.09-0.09,0.18-0.09c0.14,0,0.27,0,0.53-0.05c0.59-0.11,0.64-0.8,0.71-1.48l1.28-11.6c0.02-0.2,0.09-0.32,0.2-0.32
				c0.11,0,0.18,0.07,0.27,0.27l5.45,11.19l5.23-11.17c0.07-0.16,0.14-0.28,0.27-0.28c0.12,0,0.18,0.14,0.21,0.48L167.82,36.35z"/>
			<path style="fill:#2C2A29;" d="M175.64,27.5c0.2-0.5,0.27-0.59,0.38-0.59c0.16,0,0.21,0.21,0.37,0.55
				c0.29,0.64,2.79,6.88,3.75,9.18c0.57,1.35,1,1.55,1.33,1.65c0.23,0.07,0.46,0.09,0.62,0.09c0.09,0,0.2,0.04,0.2,0.12
				c0,0.09-0.18,0.13-0.36,0.13c-0.23,0-1.39,0-2.47-0.04c-0.3-0.02-0.55-0.02-0.55-0.11c0-0.07,0.04-0.07,0.1-0.11
				c0.09-0.04,0.25-0.16,0.14-0.41l-1.4-3.47c-0.04-0.07-0.06-0.09-0.14-0.09H174c-0.07,0-0.12,0.03-0.16,0.12l-0.89,2.42
				c-0.14,0.38-0.23,0.75-0.23,1.02c0,0.3,0.27,0.41,0.53,0.41h0.14c0.13,0,0.16,0.05,0.16,0.12c0,0.09-0.09,0.13-0.23,0.13
				c-0.38,0-1.23-0.06-1.41-0.06c-0.16,0-0.94,0.06-1.58,0.06c-0.2,0-0.3-0.04-0.3-0.13c0-0.07,0.07-0.12,0.14-0.12
				c0.11,0,0.34-0.02,0.46-0.04c0.71-0.09,1.01-0.62,1.32-1.39L175.64,27.5z M177.38,33.8c0.07,0,0.07-0.03,0.05-0.11l-1.55-4.14
				c-0.09-0.23-0.18-0.23-0.27,0l-1.46,4.14c-0.02,0.07,0,0.11,0.06,0.11H177.38z"/>
			<path style="fill:#2C2A29;" d="M183.65,31.58c0-2.35,0-2.78-0.04-3.26c-0.04-0.51-0.12-0.76-0.64-0.83
				c-0.13-0.02-0.39-0.04-0.54-0.04c-0.05,0-0.12-0.07-0.12-0.13c0-0.09,0.07-0.12,0.25-0.12c0.71,0,1.76,0.04,1.85,0.04
				c0.16,0,1.48-0.04,1.96-0.04c0.99,0,2.1,0.09,2.92,0.66c0.39,0.29,1.08,1.01,1.08,2.06c0,1.12-0.46,2.21-1.92,3.45
				c1.28,1.6,2.37,2.97,3.27,3.92c0.84,0.85,1.35,1,1.74,1.05c0.3,0.06,0.46,0.06,0.55,0.06c0.09,0,0.14,0.07,0.14,0.12
				c0,0.09-0.09,0.13-0.37,0.13h-0.98c-0.89,0-1.28-0.09-1.67-0.31c-0.68-0.35-1.24-1.08-2.14-2.22c-0.66-0.82-1.35-1.8-1.69-2.21
				c-0.07-0.07-0.1-0.09-0.21-0.09l-1.99-0.04c-0.07,0-0.1,0.04-0.1,0.12v0.36c0,1.46,0,2.63,0.07,3.26
				c0.05,0.44,0.14,0.73,0.62,0.8c0.21,0.04,0.55,0.07,0.69,0.07c0.1,0,0.12,0.07,0.12,0.12c0,0.07-0.07,0.13-0.25,0.13
				c-0.85,0-1.85-0.05-1.92-0.05c-0.02,0-1.07,0.05-1.55,0.05c-0.16,0-0.25-0.04-0.25-0.13c0-0.05,0.04-0.12,0.12-0.12
				c0.14,0,0.34-0.03,0.48-0.07c0.3-0.07,0.34-0.35,0.41-0.8c0.09-0.62,0.09-1.81,0.09-3.27V31.58z M185,32.86
				c0,0.09,0.03,0.14,0.1,0.2c0.23,0.12,1.03,0.23,1.73,0.23c0.37,0,0.8-0.02,1.17-0.27c0.53-0.36,0.94-1.16,0.94-2.31
				c0-1.89-1.03-2.97-2.71-2.97c-0.46,0-0.96,0.05-1.12,0.09C185.05,27.86,185,27.91,185,28V32.86z"/>
			<path style="fill:#2C2A29;" d="M196.71,34.71c0-0.82-0.11-1.12-0.34-1.55c-0.12-0.23-2.24-3.59-2.77-4.39
				c-0.38-0.57-0.75-0.91-1.03-1.1c-0.23-0.14-0.53-0.21-0.66-0.21c-0.09,0-0.16-0.07-0.16-0.14c0-0.07,0.06-0.11,0.2-0.11
				c0.3,0,1.48,0.04,1.55,0.04c0.11,0,0.75-0.04,1.35-0.04c0.18,0,0.21,0.04,0.21,0.11c0,0.05-0.11,0.11-0.25,0.16
				c-0.12,0.05-0.19,0.12-0.19,0.25c0,0.21,0.11,0.39,0.21,0.59l2.85,4.72c0.32-0.64,2.28-3.88,2.56-4.38
				c0.19-0.34,0.27-0.59,0.27-0.78c0-0.21-0.07-0.34-0.25-0.39c-0.14-0.03-0.23-0.11-0.23-0.18c0-0.05,0.09-0.09,0.25-0.09
				c0.41,0,0.96,0.04,1.08,0.04c0.11,0,1.23-0.04,1.53-0.04c0.1,0,0.19,0.04,0.19,0.09c0,0.07-0.07,0.16-0.19,0.16
				c-0.18,0-0.48,0.05-0.73,0.19c-0.3,0.18-0.45,0.34-0.78,0.75c-0.52,0.61-2.72,4.16-3.04,4.8c-0.27,0.54-0.19,1.02-0.19,1.51v1.3
				c0,0.25,0,0.89,0.05,1.51c0.04,0.44,0.14,0.73,0.6,0.8c0.21,0.04,0.57,0.07,0.71,0.07c0.09,0,0.13,0.07,0.13,0.12
				c0,0.07-0.09,0.13-0.25,0.13c-0.87,0-1.89-0.05-1.98-0.05c-0.07,0-1.07,0.05-1.53,0.05c-0.18,0-0.25-0.04-0.25-0.13
				c0-0.05,0.04-0.12,0.13-0.12c0.14,0,0.32-0.03,0.46-0.07c0.32-0.07,0.43-0.35,0.46-0.8c0.04-0.62,0.04-1.26,0.04-1.51V34.71z"/>
			<path style="fill:#2C2A29;" d="M206.6,34.28c0,2.22,0.04,3.13,0.32,3.4c0.25,0.25,0.85,0.36,2.08,0.36
				c0.82,0,1.51-0.02,1.89-0.46c0.2-0.23,0.32-0.55,0.37-0.85c0.02-0.11,0.07-0.19,0.16-0.19c0.07,0,0.11,0.07,0.11,0.23
				c0,0.16-0.11,1.07-0.23,1.51c-0.11,0.35-0.16,0.41-1,0.41c-1.12,0-1.99-0.02-2.72-0.05c-0.71-0.02-1.25-0.04-1.71-0.04
				c-0.07,0-0.34,0-0.64,0.02c-0.32,0.02-0.66,0.04-0.91,0.04c-0.16,0-0.25-0.04-0.25-0.12c0-0.05,0.04-0.12,0.12-0.12
				c0.14,0,0.34-0.04,0.48-0.07c0.3-0.07,0.34-0.35,0.41-0.8c0.09-0.62,0.09-1.81,0.09-3.27v-2.67c0-2.35,0-2.78-0.04-3.26
				c-0.04-0.52-0.12-0.76-0.64-0.84c-0.13-0.02-0.39-0.04-0.54-0.04c-0.05,0-0.12-0.07-0.12-0.12c0-0.09,0.07-0.13,0.25-0.13
				c0.71,0,1.69,0.04,1.78,0.04c0.07,0,1.24-0.04,1.72-0.04c0.16,0,0.25,0.04,0.25,0.13c0,0.05-0.07,0.11-0.13,0.11
				c-0.11,0-0.34,0.02-0.52,0.03c-0.46,0.09-0.55,0.32-0.59,0.85c-0.02,0.48-0.02,0.91-0.02,3.26V34.28z"/>
			<path style="fill:#2C2A29;" d="M217.6,27.5c0.2-0.5,0.27-0.59,0.38-0.59c0.16,0,0.21,0.21,0.37,0.55
				c0.28,0.64,2.79,6.88,3.75,9.18c0.57,1.35,1,1.55,1.33,1.65c0.23,0.07,0.46,0.09,0.62,0.09c0.09,0,0.2,0.04,0.2,0.12
				c0,0.09-0.18,0.13-0.36,0.13c-0.23,0-1.39,0-2.47-0.04c-0.3-0.02-0.55-0.02-0.55-0.11c0-0.07,0.04-0.07,0.11-0.11
				c0.09-0.04,0.25-0.16,0.14-0.41l-1.41-3.47c-0.04-0.07-0.05-0.09-0.14-0.09h-3.61c-0.08,0-0.13,0.03-0.16,0.12l-0.89,2.42
				c-0.14,0.38-0.23,0.75-0.23,1.02c0,0.3,0.27,0.41,0.53,0.41h0.14c0.13,0,0.16,0.05,0.16,0.12c0,0.09-0.09,0.13-0.23,0.13
				c-0.38,0-1.23-0.06-1.41-0.06c-0.16,0-0.94,0.06-1.58,0.06c-0.2,0-0.3-0.04-0.3-0.13c0-0.07,0.07-0.12,0.14-0.12
				c0.1,0,0.34-0.02,0.46-0.04c0.71-0.09,1.01-0.62,1.31-1.39L217.6,27.5z M219.34,33.8c0.07,0,0.07-0.03,0.05-0.11l-1.55-4.14
				c-0.09-0.23-0.18-0.23-0.27,0l-1.46,4.14c-0.02,0.07,0,0.11,0.06,0.11H219.34z"/>
			<path style="fill:#2C2A29;" d="M226.98,36.58c0.04,1.24,0.18,1.62,0.6,1.72c0.28,0.07,0.64,0.09,0.78,0.09
				c0.07,0,0.13,0.05,0.13,0.12c0,0.09-0.11,0.12-0.28,0.12c-0.89,0-1.52-0.05-1.66-0.05c-0.14,0-0.8,0.05-1.51,0.05
				c-0.16,0-0.25-0.02-0.25-0.12c0-0.07,0.05-0.12,0.13-0.12c0.12,0,0.41-0.02,0.64-0.09c0.39-0.11,0.45-0.52,0.45-1.89v-8.67
				c0-0.6,0.09-0.77,0.21-0.77c0.18,0,0.44,0.3,0.61,0.46c0.25,0.25,2.53,2.67,4.94,5.16c1.55,1.6,3.22,3.4,3.7,3.9l-0.16-7.58
				c-0.02-0.98-0.11-1.32-0.59-1.41c-0.28-0.05-0.64-0.07-0.76-0.07c-0.1,0-0.12-0.09-0.12-0.14c0-0.09,0.12-0.1,0.3-0.1
				c0.71,0,1.46,0.04,1.64,0.04c0.18,0,0.7-0.04,1.33-0.04c0.16,0,0.29,0.02,0.29,0.1c0,0.06-0.07,0.14-0.18,0.14
				c-0.07,0-0.2,0-0.38,0.04c-0.51,0.11-0.55,0.41-0.55,1.31l-0.04,8.86c0,0.99-0.02,1.08-0.13,1.08c-0.16,0-0.32-0.13-1.19-0.93
				c-0.16-0.14-2.42-2.37-4.07-4.09c-1.82-1.9-3.58-3.75-4.06-4.29L226.98,36.58z"/>
			<path style="fill:#2C2A29;" d="M239.36,31.58c0-2.35,0-2.78-0.04-3.26c-0.03-0.52-0.12-0.76-0.64-0.84
				c-0.12-0.02-0.39-0.04-0.53-0.04c-0.05,0-0.12-0.07-0.12-0.12c0-0.09,0.07-0.13,0.25-0.13c0.71,0,1.73,0.04,1.82,0.04
				c0.18,0,1.17-0.04,2.1-0.04c1.56,0,4.43-0.14,6.28,1.73c0.78,0.78,1.53,2.05,1.53,3.84c0,1.9-0.82,3.36-1.69,4.25
				c-0.68,0.69-2.08,1.74-4.75,1.74c-0.67,0-1.51-0.05-2.19-0.09c-0.67-0.06-1.21-0.09-1.28-0.09c-0.04,0-0.32,0.02-0.64,0.02
				c-0.32,0.02-0.69,0.04-0.94,0.04c-0.16,0-0.25-0.04-0.25-0.12c0-0.05,0.03-0.12,0.12-0.12c0.14,0,0.34-0.04,0.48-0.07
				c0.3-0.07,0.34-0.35,0.41-0.8c0.09-0.62,0.09-1.81,0.09-3.27V31.58z M240.78,33.21c0,1.6,0,3.01,0.02,3.29
				c0.02,0.38,0.06,0.93,0.18,1.09c0.2,0.28,0.75,0.6,2.6,0.6c1.44,0,2.72-0.48,3.67-1.37c0.82-0.76,1.23-2.21,1.23-3.59
				c0-1.92-0.84-3.15-1.48-3.79c-1.48-1.49-3.2-1.69-5.07-1.69c-0.3,0-0.8,0.05-0.94,0.11c-0.14,0.05-0.2,0.12-0.2,0.3V33.21z"/>
			<path style="fill:#2C2A29;" d="M143.37,33.01c0,0.68-0.18,1.36-0.54,2.03c-0.36,0.67-0.87,1.2-1.51,1.59
				c-0.65,0.39-1.27,0.59-1.89,0.59c-0.62,0-1.13-0.2-1.53-0.6c-0.39-0.4-0.59-0.91-0.59-1.55c0-0.67,0.19-1.34,0.58-2.02
				c0.39-0.68,0.9-1.21,1.54-1.6c0.65-0.39,1.27-0.59,1.87-0.59c0.6,0,1.1,0.2,1.49,0.59C143.18,31.87,143.37,32.38,143.37,33.01
				 M142.24,32.54c0-0.43-0.1-0.75-0.31-0.98c-0.21-0.23-0.47-0.34-0.8-0.34c-0.67,0-1.29,0.48-1.85,1.44
				c-0.56,0.96-0.84,1.91-0.84,2.86c0,0.43,0.11,0.77,0.33,1c0.22,0.23,0.49,0.35,0.83,0.35c0.64,0,1.24-0.48,1.81-1.43
				C141.96,34.49,142.24,33.52,142.24,32.54"/>
			<path style="fill:#2C2A29;" d="M147.76,31.04l-0.12,0.45h-1l-0.75,2.99c-0.34,1.32-0.67,2.33-1.01,3.05
				c-0.48,1.02-0.99,1.72-1.54,2.1c-0.42,0.3-0.83,0.45-1.26,0.45c-0.27,0-0.51-0.08-0.69-0.25c-0.14-0.11-0.21-0.26-0.21-0.44
				c0-0.14,0.06-0.27,0.17-0.38c0.12-0.11,0.26-0.16,0.43-0.16c0.12,0,0.23,0.04,0.31,0.12c0.08,0.08,0.13,0.17,0.13,0.27
				c0,0.1-0.05,0.19-0.15,0.28c-0.07,0.07-0.11,0.11-0.11,0.15c0,0.04,0.02,0.07,0.05,0.1c0.04,0.03,0.1,0.05,0.19,0.05
				c0.2,0,0.4-0.06,0.62-0.18c0.21-0.12,0.41-0.31,0.58-0.55c0.17-0.24,0.33-0.59,0.48-1.06c0.06-0.19,0.23-0.82,0.51-1.89
				l1.19-4.62h-1.19l0.09-0.45c0.38,0,0.64-0.03,0.79-0.08c0.15-0.05,0.29-0.15,0.41-0.3c0.12-0.15,0.29-0.43,0.49-0.83
				c0.27-0.55,0.52-0.97,0.77-1.27c0.34-0.41,0.69-0.71,1.06-0.91c0.37-0.2,0.72-0.3,1.05-0.3c0.35,0,0.62,0.09,0.83,0.26
				c0.21,0.18,0.32,0.37,0.32,0.57c0,0.16-0.05,0.29-0.16,0.4c-0.11,0.11-0.24,0.16-0.4,0.16c-0.14,0-0.26-0.04-0.34-0.12
				c-0.09-0.08-0.13-0.18-0.13-0.29c0-0.07,0.03-0.16,0.09-0.27c0.06-0.11,0.09-0.18,0.09-0.21c0-0.06-0.02-0.11-0.06-0.14
				c-0.06-0.05-0.15-0.07-0.26-0.07c-0.29,0-0.54,0.09-0.77,0.27c-0.31,0.24-0.58,0.62-0.82,1.13c-0.12,0.27-0.35,0.94-0.67,2
				H147.76z"/>
			<path style="fill:#FFCD00;" d="M0,0v4.09c9.36,1.15,18.25,4.59,26.24,9.66v-0.61C18.25,7.02,9.36,2.39,0,0"/>
			<path style="fill:#2C2A29;" d="M6.51,16.11c0,0,2.29-1.22,6.55-1.22c0,0,3.92-0.2,8.08,1.69c0,0,2.29,0.91,5.1,3.27v-3.11
				C18.25,11.68,9.36,8.23,0,7.08V19.8C0.69,19.23,3.32,17.15,6.51,16.11"/>
			<polygon style="fill:#2C2A29;" points="13.14,17.95 2.1,23.02 24.32,23.02 			"/>
			<path style="fill:#C8102E;" d="M0,52.71c7.99,6.13,16.88,10.75,26.24,13.15v-4.09C16.88,60.62,7.99,57.17,0,52.1V52.71z"/>
			<path style="fill:#2C2A29;" d="M3.56,50.84V27.79c0,0,0.83-2.97,3.79-2.63v27.74C7.36,52.91,5.93,52.42,3.56,50.84"/>
			<path style="fill:#2C2A29;" d="M11.15,54.45V27.79c0,0,0.83-2.97,3.79-2.63v30.75C14.94,55.91,12.09,55.04,11.15,54.45"/>
			<path style="fill:#2C2A29;" d="M18.66,56.96V27.79c0,0,0.83-2.97,3.79-2.63v32.66C22.45,57.82,19.82,57.41,18.66,56.96"/>
</svg>